<mxfile host="app.diagrams.net" modified="2022-04-01T10:46:58.615Z" agent="5.0 (X11)" etag="Vo-PMVzdsbp-NnyKfKVY" version="17.4.0" type="github" pages="4">
  <diagram id="EBS8yE9UCGTuOSnyxT1s" name="Introduction">
    <mxGraphModel dx="1398" dy="697" grid="1" gridSize="10" guides="1" tooltips="1" connect="1" arrows="1" fold="1" page="1" pageScale="1" pageWidth="850" pageHeight="1100" math="0" shadow="0">
      <root>
        <mxCell id="0" />
        <mxCell id="1" parent="0" />
        <mxCell id="-wInNyCDvnblk8jcAMzC-1" value="" style="shape=image;verticalLabelPosition=bottom;labelBackgroundColor=default;verticalAlign=top;aspect=fixed;imageAspect=0;image=https://rithmapp.s3-us-west-2.amazonaws.com/assets/express-logo.png;" vertex="1" parent="1">
          <mxGeometry x="140" y="370" width="435" height="157" as="geometry" />
        </mxCell>
        <mxCell id="-wInNyCDvnblk8jcAMzC-3" value="Framework it not cheating, it just make our life easier and start focusing on the problem rather than the language syntax" style="text;html=1;strokeColor=none;fillColor=none;align=center;verticalAlign=middle;whiteSpace=wrap;rounded=0;fontFamily=Comfortaa;fontSource=https%3A%2F%2Ffonts.googleapis.com%2Fcss%3Ffamily%3DComfortaa;fontSize=25;fontStyle=2" vertex="1" parent="1">
          <mxGeometry x="110" y="570" width="522" height="30" as="geometry" />
        </mxCell>
        <mxCell id="-wInNyCDvnblk8jcAMzC-4" value="These functionality is maintain by community" style="text;html=1;strokeColor=none;fillColor=none;align=center;verticalAlign=middle;whiteSpace=wrap;rounded=0;fontFamily=Comfortaa;fontSource=https%3A%2F%2Ffonts.googleapis.com%2Fcss%3Ffamily%3DComfortaa;fontSize=25;fontStyle=2" vertex="1" parent="1">
          <mxGeometry x="110" y="740" width="522" height="30" as="geometry" />
        </mxCell>
      </root>
    </mxGraphModel>
  </diagram>
  <diagram id="HYmZmmprcDlihU3AZgr4" name="server.js">
    <mxGraphModel dx="1398" dy="697" grid="1" gridSize="10" guides="1" tooltips="1" connect="1" arrows="1" fold="1" page="1" pageScale="1" pageWidth="850" pageHeight="1100" math="0" shadow="0">
      <root>
        <mxCell id="0" />
        <mxCell id="1" parent="0" />
        <mxCell id="rgW3D4wvBPcEMxX5e0Z8-1" value="server.js is what node built-in, if we run npm start it will implicit node server.js without you specify it in package.json" style="rounded=0;whiteSpace=wrap;html=1;fontFamily=Comfortaa;fontSource=https%3A%2F%2Ffonts.googleapis.com%2Fcss%3Ffamily%3DComfortaa;fontSize=25;fillColor=#dae8fc;strokeColor=#6c8ebf;" vertex="1" parent="1">
          <mxGeometry x="165" y="360" width="520" height="170" as="geometry" />
        </mxCell>
      </root>
    </mxGraphModel>
  </diagram>
  <diagram id="f9hnIQ1OXZHdWtV5q7an" name="Create Server">
    <mxGraphModel dx="1398" dy="697" grid="1" gridSize="10" guides="1" tooltips="1" connect="1" arrows="1" fold="1" page="1" pageScale="1" pageWidth="850" pageHeight="1100" math="0" shadow="0">
      <root>
        <mxCell id="0" />
        <mxCell id="1" parent="0" />
        <mxCell id="fqpLb317S8GFsY9aMZkw-1" value="" style="shape=image;verticalLabelPosition=bottom;labelBackgroundColor=default;verticalAlign=top;aspect=fixed;imageAspect=0;image=data:image/png,iVBORw0KGgoAAAANSUhEUgAAAqAAAAEmCAYAAAC9PSKdAAAABHNCSVQICAgIfAhkiAAAABl0RVh0U29mdHdhcmUAZ25vbWUtc2NyZWVuc2hvdO8Dvz4AAAAtdEVYdENyZWF0aW9uIFRpbWUARnJpIDAxIEFwciAyMDIyIDA1OjQ0OjEzIFBNICswN3LRAQ0AACAASURBVHic7J13eFRV+sc/00smk0mvpAdCS+gd6UhRXBu7WFAEFbura/lZdl11dXWt7GJZ14Kyrl1QBAVUeu89BtJ775k+vz8mCQkzExLSKOfzPD6Se857zzl3Zu793ve85z2S0OB4BwKBQCAQXEBIJBL8o31ReivJO1TQ090RXIQkTIgh91A+deXGnu7KRYm8pzsgEAgEAkF7CIjzZ+Cs3uhDvck5kC8EqKBL6Hd5An2nx5O9L5/ja1MxVpt6uksXFUKACgQCwSVGVGgwSoWctJx8bHZ7T3enXfSZEkfi5DiQgN1mp7q4tqe7JLhIqcyrxifMm8ihYQT19mf3pwcpy6zo6W5dNEjEFLxAIBBcOvx54Q1cN3kcAKu27OKJtz/q2Q61g37TE0iYGANA5u4cjv2UirnO0sO9ElzM+EYaGPS7vuhDvLGabWx9bw8VuZU93a2Lgm7xgPYKiWHWhOsY2HsY/oYgLBYzOUWZ7DywgZ+2fovRVN8d3bikUYZG4Df1KgCKvngfu0nEtAgElxpeGhXXThrb9HdEoH8P9qZ9hPQNbBKfR1ancGpLZrvsn799CPOmxVBVZ2Hwrd91RRcF5zHn+vmXZ1Ww+Z1djLp1KP7RBkbeNIif39iC1WTrwt5eGki7uoGpo6/k5Uc+YOroOQT7hyGXydGotSRE9uWmOXfxyqMfEewf1tXdEAgEgkseo8nCrmO/YXc4yCsuY8kXF4YQk8qkJM3pC0Duofx2i0+BoCNYzTZ2f3oAS70FtY+KPlPie7pLFwVd6gGNiejN7XP/hFQiJTP3JMu+W0paVgpatRfDk8Zzw+w7CPYP4+EFz/HYq4twOEQ0gEAgEHQVNrud2194s6e70W7CBgaj8VFjtzs4uia1p7sjuAQx1ZhJ3ZBOv5m9iR4eQcr6k1jNwgvaEbrUAzpt9FVIJVJq62t4/p2HOZyyh9r6aorLC1i98Us+WvFPwClUe0f378quCAQCgeACJTw5FICi1FLqK0X4kKBnyNqXh93uQK6SEZQY2NPdueDpUg9oWHAvAFIzjlJRXeZSvvPgRu6c+wgA4cHRpKQf6ZJ+SNUavPomo4qIRqbTg0SCraYKU3YGtcf2nzUeUq434NVvMMrQCGRaL+w2O7bqcoyZadSdOITD6j4I3nfyFajCo6g5vIfaQ7vQ9h2EJr4fMi8dDosZU24WNYd2YaupbqV1CZrY3qjjElH4BiBVqnA4wF5fgyknk9qj+7DVutpr+yajHzbO7RmD5i50OWbKTqd8w+pWr0NHGDAwmWuvmcugQYMJCAjEbLaQkZHGT2tX883XX2C1Wl1s+vUbwPvvLwfg8ccfYuPGX1zqREVF88GHn6LVaFm39kf+/JfHW5S/8fpbjBw1hqX/ep0vvvyMuXPnMWPmFYSHhWM0Gtm2bTNvv72EkpISt/1O6N2Hj5d9jsViZsKEkcTGxjN//m0MHjQUg6+B/Px8Vq78ms8//y82m+e34XMZfyMymYzZs69i+vSZxMf3xtvbG6vVQm5uLjt2bOXjZe9TUel5ZWZH7S9k+kRF8OULT2CxWhl26wPER4SxcM50hiUm4KvXkVtcxte/bmH5ml9aXQ2elBDLH6ZexpDEOAJ9DZjNFtLyClm9bRdfrN+Exer5s5dIJMwZN5Lrpoyjd2QEZquVQ6lpvPHZSjLyC9j14ZvIpFLm/OkZMvKLWti+89i9jEnqx4pNO/jzux+7nDshIoyvX3oKgBkPPE1eSWmLcplUyq6P3kQhk7nYVtTUctmdj5z31w8J+Ef6AFCc6v532hbqTc7fmKmdXqs+UT4svCKBUf0DCTKoMVvtZObXsG5PHh+tPkVVrdnFJjpUxw//mIpaKWPdrjwWv7LdpY6vt5L1b16OQadk57ESbvzrRppPAv7n8bFMGhLC0m9O8OYXx1gwO4HrJkbRK9iLepONbUeKePPzY5zKc//88PVWsuf9KwGYfP9PGM02Hri+L5cNCibAR01huZG1O3P51zfHqazxvJDrXMbfiEQCvxsfyTUTo+gXbUCvVWB3QFF5Pb/uLeDdlSnkltR1mX1zzvXzb46p1kxVQTWGMD0BUYZ2pf8aN3Yqw4aMpq6ullVrviIvL+uc+3Gx0KUCtKrG+VCTyxVuyxWK08crq0rd1ukoct8AfKdciUyjbXncxw+5jx/quD6Ur/8ea4X79tWRcRjGTwPp6Ru4VCpD6heEwi8ITVwiZetWYK9rPRWIftRkNHGJTX9LZHI0cYmoIqIp++kbrJXlbu18LpuOJqplvIlEAjIvb7R9BqCJT6T8l1WYC3Jbbb+nkEgk3HffQ8ybd3OL43K5gn79BtCv3wDGjBrHQw/fi/2MB9ixY0fYvOlXxl82iQULbncRoBqNhhdffA2tRsuJlGP87YVnXNqPio4GoKi4iCVL3iE5eXBTmVqtYdasOSQlDeKW+b+nrt51MVxUrygAcnNzGTlqDH9/8VVUKnVTeWRkFPfd9xBBgcG88eY/OnX8ADqdjtdfW8qAgcktjiuVKmJiYomJiWXqlMu5bdGNlBQXd7p9R7j/vqfQqLVnrwjs2r2ZXzes6dT2AaJDggHILiphTFJf3njwDlRK5eny0CAevuEagn0NvLz8Kxd7iUTCwzdcw/xZU1ocV2hkDIyLYmBcFOOT+3P3y0uxuwkhksuk/OO+RUwZPqjpmEalZPygAQyIi+aB195FJpVitdnJLXa9B0WHhgCQkef+QRcV5hyf2WKhoNT1JT8syN+t+ATIzCt0e7xF+z18/QCUGgUKjfNZUV1Yc9Y+e6Kixtzi/23h2glR/O3OoSjkktN9l0vpF2OgX4yB6ydFc9Ozm8ksaNmvjPwaXvnfEZ66JZlpI8KYNiKMdbvyWtR5Yn4SBp2SOpONx9/eQ2sRaH+7cwjXT4pu+lutlDF7dAQTBoVw87ObOXTK9bNvjr+PitfvH0FE4OnfY0SgltuuSGDikFCuffJXt0LyXMffyJsPjmT26IgWx6RAWICWGy+P5brJUSx8YSvbj7q/93TUvjnn8vm7o6qgBkOYHi//tt3bAAIDQxg7ZjIAKrWGy6ddxYfL/tmhflwMdKkA3XtsG6MHTaJ3dH9CAsIpKGkpksYPvRyAuvpqTnSF91MqxTBhJjKNFofNSu3RfZjyc8BuQxkSgVf/ocg0XvhOmkXJ95+5eDJlOj0+46aCVIbdWE/NwZ1YSoqRKpWoouLQJvRHrjdgGDedsrXfeuyGwjcAuX8gFZt+wpSfjVStQRMdj9fAEUhVavSjJlL2k6u9KiKmSXya87OpPXYQW00lSKXIff3RJY9E7u2DYeIsSr79pIUn15j+G5ai/NN98A9CP3ICAGXrvsNhaZlQ12HumgS7CxcuZt68m7Hb7fzww0pWr/6eoqJCQkJCufmmBYwaPZaRo8YwffpMfvzxBxf7d99dythxE+jTpy9jx4xn67bNTWVP/N9fiImJpayslMce+SOmMzzZKpWa4GDn1N20aTNQKBQ88qf7ychIIyg4hPnzFzJy5GgiIiK5Ys7VfPH5py7tR0ZFA1BbW8Njjz7JJ598xPr1P1JfbyRpYBIP/+n/MBh8ue76P/DJ8g8pLW3poeno+B988BEGDEzGYjHz8cfvs2PHdioqyvHy0jFmzDhuu20xgUFB3HTDrW4FcEftL3Siw4IAqKkz8vRt8/jg+3X8uH0P9SYzyQmxPLHg9/h665h3+UQ+WLWWkoqqFvZ3XTOb+bOmYHc4WLlxO99t3kFBaTlhAf7cduU0xib3Z0xSP2aNHc6qLbtc2r/v979rEp8rN+/gu407KCgrp3dkOI/ceB2LrnLeA3OKSly8gEqFgpAAXwDSPYjF6FCnQMzML3Qr4Eorqpj31Estjj29cB79YiLJyG+DAO3h6weg0J52VJjrzz3lUllDEvHKNgqQPpE+vLB4KHKZhPS8at76NoUTWZXo1HLGJQez6MoEwgK0LH1oFFc+tt5FQC5bfYoZI8MZlhjAM7cNYvvhImrqnV64MQOCuGaC8+X25eWHySr07MDoF21gaKI/z7x/gO1HitCo5EweFspdv0tEp5Hz8t1Dmfmnda0K2Dvn9KbeZOWe13aQmlVFsL+GW2bEMXV4GLFhOh69YQBPvbevU8c/ZVhok3jccqiID1alklNUi1QqoW+0Dw/O7U9UiBdvPzKaSff9SHm1uVPtz6S9n78nGtN+KbTKs9Q8jfYMB5hG23bxejHTpQJ00+6fGDHwMkYMHM+Td77CB9+8SUr6YTRqLy4bdjlzZ96G3W7j/W/epLa+tWnoc0MdGYfcWw/gFH85GU1llpIiLAW5+F5+DTKdHk1Mb+pSj7aw1yYmIZHJcdislK75ClvN6ZurqSAHW2013oNHowwOQ+EfjKXU/Q1dFRFN2brvMBdkA2Azm6g5tAekMnQDh6EMCkPm7YOtumVuMVWo88dnN9ZR9ssqaOYhs1aUYS0pwnuoM6WK3OCHufD0G7bdWI/deNqjJ2nmtbCWF3dLGqbg4FBuuWURAK+//jJfffVZU1leXi4HDuzj42WfERffm1GjxroVYKfSTrJ+/U9Mnz6TWxfc3iRA586dx9RpM7BaLTz++EMUFbte+16RkUgkzjd3b289d9xxS9M0eU5uDgcO7GP58q+IiYll2JDh7gVoZDQA/fsP5C9/+T/Wrj3tpVv/cwFGs5l/vPwGMpmM/gOS2NTMS9vR8Wu1Wi6//AoAXnvtZVasaOlhSkk5Tn19PUMGD6XaTRhHR+07yscfLwVp28LMTW68z51BowcxKT6ax5d+yOptu5vKCnbuxWSxsOThxcikUpLiY/hlz8Gm8lB/PxZdNQOAv3/8JZ+t3dBUlltcyt4TqXz5wv+REBnB2KT+LgIq1N+Pmy6fBMA/v/ye91ac/u5kFxaTU1TCF3/7PwDS8/I5k6iQIKQN3980Dx7Q6FCnQEw/Y+q+kTqjiaPpLVeM+/l4N9i0QYD24PVrRCY7/R1y2M59oWqjQGlturk5t8yMQy6TUFJp5Nqnfm1ht+t4CanZVbzxwAj6Rvswql+gixfO7nDw2Nt7+eEfUwnx0/DQHwbw7IcHUMqlPHe7cyZm+9Filq891Wo/Jg0J4ebnNrPt8OnP+HBaOSUVRp5dNJiEXnoG9/ZnX4rnWcQBcb5Mf3AttUanAD6VV822w0V89OQ4xicHc9VlkTzzwX6sza5vR8c/dqDz5aik0siiF7disZ1+fqXmVHEwtYwn5icB0LuXnp3HSjrV/kza+/l7wmF3XiOZTHKWmqfJyc2ipKSQgADnmPbvd/9dv9ToUgHqcDh45YOnmDhiJrMnXs8Td7b0sGzZu44ft35LStrhLmlfGRwOOMVac/HZiLmkEFPmKZTBYcj9XAOKVSFOAWjMPNlCfDZSd+wA3skjQCpDGRTiUYBaK8qaxGdz6k8eQzdwGAAKX38XAdo47W+vq20hPpvOW13ZpXGbHWXmzCuQy2VkZ2e1EF+N2O12jh47Qlx8b7x0Oo/nee/fS5k8eToDBiQxfPhI6o1G7rvvYQBeeulvHD580K1ddIN4BHjl1RddYjTtdjt79+4iJiYWH4Ov23NERjm9FHv27GohPhvZtfN0bJdGrW5R1tHxx8TEIZc7vwM7dmxz27/PPlvOZ58td1vWUfuOUuEhrKQ7afTg7Tya0kI8NbLt8PGmf2tULT0aV4wfiVwmJaugqIV4asTucHD4VCYJkRHotBqX8tljh6OQyygoK+f9lT+6lKdk5lBSWU2gQe/Ww9koLi1WG7lF7qcYm6boPQjQM1ErlQT7GgDILDi7TU9ev85m3a48kuavxGJt285PQ/o4c6Su3pbjVrR8vzWbZ28fjF6rICnez+00cPOp+Jsvj+XbjZlMGRZGdKiOWqOVx99qfeodICWrsoX4bOSz9ek8MT8JtVLG4AS/VgXoJz+eahKfzVm25iTjk4PRqmREh+g4mXv6RbSj41fKnS8ORWXGFuKxkczCWu78h2tsbGfZn0l7P//OxGaz8vEnb9OrVwy1tdUUFuWd3egSoMvzgIYGhjNxxAwiQ2Kx2qxk5adRWuH8MQ3oPZThA8Yjl3WNDpZpnDc1T/GVABVb1lL09UdU7dzgUiZpEBSe7B12O9YG0ShtJdbNWuV+gYettqbpbUoid3XnW8udb3Ry3wA0cYlI2uhNOl9ITnJOPW7evMFjHYOP82FYWuI5hicnN4cfflgBwK233s7zz7+EXC7niy/+x6pVKzzaRUU7k1YXFhVwMvU3t3Xkcud3r6rK/c4Wkb2iAdi06VeP7TRSXt4yDquj4zc1C4uYOXM2Mg+xfJ7oqP3FQFRDDOMvew6dtW5ZVUsv8JDesQD8utezrcHb+eJQUu76Gx/WNwGATfuOeIxvtNmdL0VuBWiYU1xmFxVjdfMAhtMiNSO/bYshIkMDm2YFMtoQA9qT16+zsdkd1BqtmNsoQPy8VQDkFHte5JLTMHVu8PY8Hbts9Sn2nChBKpXwl9uSueMq5/fipeWHWz13I+l57uMrbXYH2Q3t++lVrZ6jubBsTkbB6al/b6+WY+jo+E80bFmZGOXDdROjWsSRtoWO2p9Jez//zsZiNZOWniLEZzO61APaKySG5x9YilbjzU9bVvDJd0sxmZ1Tv5Fh8Txw89NcNXkeCVF9ee6tB7G2sor4nGhcOGQ/t/NKGuwdrfTLYWt4q2xNHNo8rHB2OJBgB2Tg5rdlTP8NrwFDkHl54zNmCvqRE7BWlmOrqsBaWYa5IA9zcT5nfYXuIWLi4gDndPnVV1/vto5K5bzJZWe3viLwg/f/zaxZVzJkiNNjvGfPTpYseaVVm6hIpwD97cRxj3V6NSwyyslx9VAHBATg5eUFwIkTx9zay2RSXn317wCknNFOR8efduok6elpxMTEcscd93Djjbdy8uRvZGdncvJkKrt2bSc9Pc3j2Dpqf6ETaNCj0zhfIo9luE9cLpNKeGHZF8466S2/A3G9nBtk3DBjEnOnXubWXqV0xidmFri+QCT0cs7ApGS5fregpTfS3XR4dIhTXKbluBeXfnpv9F7OF9+MvLZ5QGNCnKLWZref1QPa09evp2mcYn1iflLTVK8npK1oo+ZT8YN7O72K2w4X8em6tv32TBbPgslkcT6b5GeZDq534/0EyCuu4/a/bwXg1BkitaPjX7Elizt+14fwAC0v3T2Mvy4azKncajLyq0nNqWLn0RL2nCj1+HLWUXvB+U+XCtD5V92DVuPN4dS9/OerV1uUZeWd5B8fPMlrjy2jX9wgJo+6grVbV3Zldy447BYzpT9+g374eFQRMUhkchR+gSgawwWSndP7FVvWNXlLzxdUKjVBgU7viVyu8JgJoZHMjPRWy2tqqyktLSEkxPlQe/ffb7Wa9ghOT5+nZ3i+0UdFNewrnZnhat9sCj8z033/6uvr3U6vd8b47XY7f/zjPTz22JOMHDkGLy8vkpMHt1jJv27tjzz3/J+xWFwD6ztq31EMvv7IJG3z2tcb66g7SyaJ9tI4PQ2QketexNWbzG6nh1XNxKFCJvO4kryRM2M4tWoVgb7O1EHpuR4WEIUFN/NGuvav0QPqybvZ6P0EyCw4uzcTICrUee/IKy496wt/T16/5lwM+iIjv4ZDp8oZ0TcAgJ925p4X4zJZbPyyr+2phNpDTZ2VuU9t4M8LBjFlWChqpYz+MQb6xxia6qRmV/HAkl2kZLrOQHXUvqs5Hz6/C50uE6BeGh3JiSMA2LJ3vds6BcU5pGYeo1/cIIb0HysEqBvsdTVUbFyDRKlGGRCETG9ApjegCgpD7uuP3OCH75QrKVmx3GM+0p6g+QKg2bOnUFZ27mm2JBIJf/3ri4SEhGG1WpDLFcybdzNPeoj9PN0HpwBNS3Mf5O/l5UVAgPOBkJHuWqdxBXxFRTlVVa4xwK233TnjLyzM56GH7sVH70PvPolER8cSGxvH6NFjCQ4OZdr0GWRmpfP+++92iX1HmH/TXT2ahqkxfrG8uobK2rblCmwkqtlU9aS7H6e0sn2ff+PqdIAMD+IwLtwp8Mqqqqly07/oEKdY9LRYqFGgllRUUl3XtkVcjaKyPfGfPXH9mmNvlh1Apuj+MJLnlx3kwx9OdugcV18WyYi+AVisDhRyCQ/P68/a3XkUlZ//SfU7Mv6CsnrufnU7ei8lyQm+xIV5Ex2qY3ifABKjfUjopeejJ8Yx9YGf3MaodtS+K5ArnC/VNovYBamjdFlQoY+3b9MNqLUcnxUNZT46g8c650zj1Lv03G5ajgZ7SStv7xJpg4ZvJQlzZ+AwGzHlZVF34hDVuzZRsuozKrf9DIBMo0UVEd2l7beXiHDnAq76+voOiU+AO++8h3HjJlBbW8sjjz6Iw+Fg0sQp9OnT16NNUGBwU+qLvDz3OVJ793bmZXU4HKS5EaBRDR5Qd97Rs9GZ4weorKpk9+6dfPnl/3jppeeZO/d3HD3qXLw3csToLre/EDlbDs3WiAxyir96k/mcxFOvYKd9ndHkkpqokbgIpzffXfynr7cO74bp9SwPC4ziwp0pxtLaEMvZSFSDMG5L/GdPXr/mNKa9AVB5tT6T0JnYGlaEa1Ud89ME+an5ywJnPPjbK06QlleD3kvJ3+4Y0iZ7pcLzY1rVIMitHcgO4InOGj9AVa2ZzQcK+Wj1SZ55/wCzH13PY2/tASDIV83koaFdat+ZKBtiZS0dSAkmcNJlHtDq2tM3nfCQaPYec79aLSLY6aWqrOn8IHRbQ2oXmY9ncWsYNx1lcBjGnAyXhUiO+nrQeCHXu18hLZFKkOud02w2Y/s8BJ1B/akT6IeNRaJUO3d4Oo/w9fMDwEHHboxTp0znllsW4XA4eP75p9mxfStbNm9g/GWTWHznvfzxoXvc2jUmoAewWty/GY8fPxGAtPRTbj2cjVP4nqbfW6Ozxu8Js9nE8eNH6d9/YKs70HSVfVtY8s/nu+S8baUpRVE7BFojjamKHOc4z+ard9obzZ5DG6Y15Ad1J/D8GuzBKWLdMXqg8wXs4G+tp/FpTqNX1ZNXtkXdHrx+zbEYrRirjKj1anzC9RSkdE+4UVm1CX8fFXHhHbu3/n3xULy9FGQW1PLuihT2ppSy7MlxTB4ayrUTovh6o/v42kZiQ73cHpfLJESGOMvKqjo/j3Nnjd8TX23I5MlbktB7KYkIan9ezI7anys+Yc7vdlU7N0XQeevRqJwLo80WE5UX6e5z7aHLPKDVtZXkFjkXVsy67DpUSrVLnaH9xxAZ5ky0fjR1b6f3wdyw2kxh8EcVFulSrgwIRhUVh1Tr5TaFkqnQ6TlTR8Uh8/J2KdcmDmryrloKPccwnSt+068m4Mp56IePd1su1eqQKJyLWM5MLO9Cs1W0EmXrKyY7g+oGr4dWo2XQINc3fZVKzYMPPsrTTz/LyFFj3J4joXcfnnzqrwB89NF/2LDBmWPzww//A8Co0WMZ1CyesTlRzeI3hw0f4VIeFxvPNdc4Fwb9sMp96EfjCvhz8YB2dPwLFy7mv59+zYsvvupSBs5doEaPdm612ujJ7Ez7i4HGafC25Ls8k8pq5wulVq1iaGK8S7lKqeSxm6/nucXzGZPUz6W8ps5p76f3JjYsxKX85pmTm7yR7vrXXHQmRIa7lE8bMZj4CKfXZ832PW0ZEn567yavats8oD13/c6kNN35sA7pF3SWmp1HY1qjmaPDiQp2FYEBPmr+ftdQXr5nGIMT/NyeY+6UGCYMcn7+T7+3D6PZxpaDhazc7Fyw9fStyQT7tZ6Cqk+UgdH9XdME3nR5XJMH9MDJzk951tHxf/rMBH58dRp/XjDIpQwgxE+Dd8MmA1W1rt7Ejtp3Bd6BXugCnNeiNKN9AvLqq27ktgUPcNuCB+jfz/1z61KjSxchfbPuY+678Sn8DUE8fddrfPL925zKOoFaqWZE0gTmX+X0XpVXlfLz9lWd3r4x8yTW5JHIvfUYJsyg9sg+TAU5YHegDAnHa8BQJFIp1upKjOmpLvZ1Jw6h7d0fiVyB38zrqDm4C2tpERKlEnVkLNreAwEwF+ZhKWvbKtT2YC0vQZuYhNzgh0SppP7UCWx1tUhkcuQGP3RJw0EiwWF3YMptfRW5paLUGSYglaIfMZ7aI/twNNt/3FZb3SJxfUfZvXsnZrMJpVLFSy+9wZIlr3Lo8AGkEgkDBiRz0023Eh0dQ2FRAa++8qKLvcHgyz9efgO1WsOWrZt47723msqOnzjKju1bGTV6LIvvup/Fixe42DemYNq9eyeLFi1GJpOzectGcDgYOnQYixbdhUqlJjs7i6+//sLFXi5XEBrqnCI92wKprhh/VVUlsTFxxMbE8dyzf2fFyq8pKi5CqVQRGxPLjTfeQnh4BCaTkRXfftnp9hc6cpmMsEDniuN0DwtoWmPH0ROYLRaUCgVvPLSYV5Z/zYHUNKQ49zVfcOU0YsNCKCgr58WPPnex33fiFHaHA6lEwtuP38s/ln9NSmYO/j565owfSWJ0BBU1tRh0Xm49jPmlZeQUlRARFMCjN1+HVCrh6KlMdFo145IHcNuV0wBYsXEbJ3NcX34DfX0IMrSc+YlvWJUOzpyd/WOimv7OKSpuEefZ09fvTLL25xGeHOLcgzvGj5L01ree7AyWrTnFtROjUcqlfPn8JF7/4iiHTpYjkUgYFO/Lnb/rQ1iAlrIqE8995BqPHhag5Ymbnc+IbzZmsrVZLs/nlx1kwuBgDDolLy4ewm0vbPXYj62Hi3j7T6P5x/+OsONIMVq1nOkjw7hjTh/AmZR9Xxd4hTs6/pTMCubPjCehlx6dVs63GzIpKDeiVEhJjNRzz7V9kUgkWG0ONh90/Q101L4riB8fDYCx2kRxatuvuVKpIqQhL7nNZufQoba9NF7sSEKD47t0Lde82bdz9dSbm+JBz6S8qpSX3nucU9knuqR9517wVyDTuJ/GsNfVUvbzd1gr3N/Q3O0FoqEmIAAAIABJREFU3xxbVQWlHvaC9518BarwKIzpv1GxZZ1b+5AbF4NURuW2n6k/1fIaSOQK/KbOQRHo6kFpTvWeLdQeb31BDoBu0MimxPdnUrVrM3UpZ8/11x6uvWYuf3rkCY/lqb+l8Ohjf6SgoGVeNLlczj//+W8GDRpCdlYmty28kZqaltMdAwcm8+9/LwPg4YfuY9v2zS3Klyx5l+HDR/LJxx8QFRXNZRMmu7RfWJjPffcvJjvLdQosJiaWTz/9BoDrr7uCnNyctg26Gec6fnDuU//vdz8ioXcfj/Ymk5G//OUJNjbbfamz7C904sJD+fblpwGY/dBfyC5sf5qfP0y9jCcW/MFjeUpmDg+89i55Je5jfJ9aMI+5U11nLypr63jyrY/41yN3AzDrj38mp8j1YTZxSBKv//EOZB5SvG06cISH3ngPs8XV+/PnhTdw3eRxHvt+Jre/sISdR0/ff86H69cciUTChHtG4RPmTU1JHZve2oGlGxadXD8pmufvGOIxzVF5tZk7Xt7mkgReIoFlT41n7MAgyqvNTHvwJ5etIq+bGMVLdzvvx4+/vZcvf81oUf6fx8cyaUgIn/+cjkwm5bqJUZxJrdHK/Oc2cyDV9fnl661kz/tXAjD/uc0tBHBbOdfxA3ip5Sx7alxT6ilP/G3ZIT74wdUB1FH7ziYw3p/RC4YgkUg4sjqFU1taD51oTnxcItdeMx+A4ymH+e67/3VVNy8oZN46v2e6soEjqfs4mLIbpVyFl0aHUqnGbDGRXZDO+m0r+dd//0ZhadclZrUb6zCmpYDDjlSpQqJQgsOOrbqS+pPHqNy6Hlut520IrZXlGDNPIpHLkSrVSOUKHDYr1vIS6k4conL7rzg8bGupiemNXG/AWlGKMct9KiBd0jCQSDFlp7umUrLbMaalYDfWIVGonP9JpTgcDhz1dZjys6nasRFjZttWKJoLcrEb65Hp9EiUqhYvBabcLI87OZ0rx48f5fDhAxgMBrz1euRyGcXFRRw9eoT33nuLN958xW0C+D/96QkmTZpCXV0d9957O8XFrjfOoqJCBg8eSlhYOLExcaxY+XWL8jsX34vOS8fatav58MP30Gq1BAQGolKpyMvLZeXKb3jmmSfdnhsgOXkwU6dejsVi5p//ev2cYtnOdfwAVquVH3/6AavVgo/BF52XFzKZHJPJSHZ2FmvXruGvf32SI0fcvzR01P5CZ0hiPDNGDcVitfLqf785p0jcI2mZHEg9ha+3Dr2XFplcRlF5BYdPZrD0q1W8/MlXVNZ6Th217fAxjCYz4QH+aDVqSiqqWL9rH0++vQxfbx2zxg7HYrXy2qfu+5eRX8juYyn4+ejx0Xkhl8mpqq1lX8pJ/vXV9/zzi+88piK75YqphAW0/uBuzpIvVlJbf/o+dj5cvzOpzKui15BwVDol/tG+FBwvwtZKjszO4FhGBT/vzUOtlOGjU6JWyqiqtZCaU8myNad49K3dZOS7xgLeND2W+TOdoQdPv7eP/W4E4rGMSoYnBtAr2IsR/QP5bnM2Nc0WtswZF0lMqI7UnGqeeGcvdUYrwX4avNRyauqt/Lw3n4eW7OJYhvt7iEYl446rnC+g327KIruo/WnOznX8ABarnW83ZVJUbkSnVeKtVaCUS7HaoKTCyOaDRfz5vf2s2ub+5b6j9p1JYLwfw28YhEwhoyKvioPfHGtXGqZBySMID3eGAa5f/x2VHjanudTocg+oQNDdaDQafv55GxKJhPvuvYM9e8W+u5ciwX6hBPuFoVAoySnMoLCsfXHaXWm/YPZU/njDNaTm5HHtY+4Xa53P/e8p+4jkEIbMHYhEIsFUayZ1Qzo5B/Mx1bgu9jof+98ePnl6MmMG+rL5UD2PvbX/guv/xWAfmRCJzwAt2lg5EomEuvJ6Nr+zE2N1+/ImL7jlPoKCQikpLeL9D95ol+3FTJfGgAoEPUGvyKjTCb4zL96dfgTuGdp3NAuvup/QwF4tjucXZ/PZug/ZtHdtj9vHNqRQcrcY6ELof0/a71i2j6FzB6LyUjJgdh8M4Xr2fnG4zfY93f+22g+M3wukMyB+CO88+cQF1/+Lwf4j07NNx/2sYVRsy2u3+FSrNQQ2hNHt37+zXbYXO10+BS8QdDdDhgxj0qSp1NTU8O67/+rp7gi6kRljruahm/6Ct5czPVpm/ilyi7PRabzx8wlgeL8xaNQ6Dv622639H6Yv5O65j3a5/dBEX0L8fPl590F2HUvp9vYvZHt7rZTvln+LRCLBO8iL2tI68o8WXTD9b6u9r/YEKkUFhWVyymtjL7j+Xwz2B2wb0Vr0DJVNY4xmFsN7j23VPiIoiqraliERsbF96JuYhNlsZvWaL8+6g9+lhJiCF1x0LFy4mEWLFnP06GEWLbq5p7sj6EYUciX/ePA9ftm9mu82ft7i+JQRs1n4u/uRyxRk5J1k+ep3OZFxBJVCyaA+I5k8YjZ9ovpRUlHEmq3fdKl9VOAh5DJ45j+fsWHv0W5v/2KxT8k6ik+AN32Cki/I/rdmP2d0DpOGhLByczaPvX3gguv/xWCvD9ZRVVjTLvun3rqPlIwjTW1Pm3olQwaP5sCBXfy0bgWC0wgBKhAILioUciUWq/tpsqF9R3PntQ8T6Os+s0SdsZYXPniMo6cOCHthL+yFfbvtn33v4RYCVOAZIUAFAsElhUKuZM6E3zNy4GXEhMVjsVooKstnx+FNfL/pC2rrPWfFEPbCXtgL+47YC04jBKhAIBAIBAKBoFvpsq04BQKBQCAQCAQCdwgBKhAIBAKBQCDoVoQAFQgEAoFAIBB0K0KACgQCgUAgEAi6FSFABQKBQCAQCATdihCgAoFAIBAIBIJupcv2gpfL5Vx91fw218/Ly2Tr9p+7qjsCgUAgEAgEgvME4QEVCAQCgUAgEHQrXeYBbc7+AzsoKS1wOe5wQN8+SfTqFYvdIfLhCwQCgUAgEFwKdIsAraurpqKizOW4QqEiLCwSgPz8rO7oikAgEAgEAoGgh+nRKfjYmN7IZHIsFhNZ2ek92RWBQCAQCAQCQTfRZR5Qq9XK198uA8DhsLuUSyQSYmMTAcjIOIndbuuqrggEAoFAIBAIziO6dAq+NVEZEhyOzssbgFPpJ7qyGwKBQCAQCASC84gem4KPj+sHQHFJAdXVlT3VDYFAIBAIBAJBN9MjAlSn0xMSEg7AqTTh/RQIBAKBQCC4lOgRARoX2xeQYDIZyc3J6IkuCAQCgUAgEAh6iG4XoDKZnJioBAAyMlOxu1mgJBAIBAKBQCC4eOl2ARoVGYdCqQQcpInFRwKBQCAQCASXHN0uQONj+wJQWJhHTU11dzcvEAgEAoFAIOhhulWABvgH42PwA0TqJYFAIBAIBIJLlW4VoPHxTu+nsb5ObL0pEAgEAoFAcInSbQJUo9YQHhYNQFrGb9jtju5qWiAQCAQCgUBwHtFtAjQ2NhGpVIrD4SA9/bfualYgEAgEAoFAcJ7RLQJUKpUQG90HgPyCHOrqa7qjWYFAIBAIBALBeUi3CNDwsGjUGi0AaWnHu6NJgUAgEAgEAsF5iiQ0OF4EYwoEAoFAIBAIuo0e2YpTIBAIBAKBQHDpIgSoQCAQCAQCgaBbEQJUIBAIBAKBQNCtCAEqEAgEAoFAIOhWhAAVCAQCgUAgEHQrQoAKBAKBQCAQCLoVIUAFAoFAIBAIBN2KEKACgUAgEAgEgm5FCFCBQCC4AJFIJATE+BGWFOKxTsKEGLS+6m7slUAgELQNeU93QCAQCATtIyDOn4GzeqMP9SbnQD55hwrc1ut3eQJ9p8eTvS+f42tTMVaburmnAoFA4B4hQAUCgeACos+UOBInx4EE7DY71cW1HutW5lXjE+ZN5NAwgnr7s/vTg5RlVnRjbwUCgcA9Yi94gUAguEDoNz2BhIkxAGTuzuHYT6mY6yyt2vhGGhj0u77oQ7yxmm1sfW8PFbmV3dFdgUAg8IjMW+f3THc26GsI4IpZv6d/vyF4eenIy8vqzuYvWZShEQRefTO65BHUpRzGYbP2dJcEAkE7COkbSNJVfQE4sjqF42tPYrPYz2pnrDSSsz8f/2g/dP5aQvoEkrknB7tN+B4EAkHP0e2LkAYPHo1EIsFYX8eBQzu7u3mBQCC44JDKpCTNcYrP3EP5nNqS2S57q9nG7k8PYKm3oPZR0WdKfFd0UyAQCNpMtwrQ2Jg++PsFArB3/1YsZnN3Ni8QCAQXJGEDg9H4qLHbHRxdk3pO5zDVmEndkA5A9PAI5EpZZ3ZRIBAI2kW3CVClQsmAAUMByMw8SV5+dnc1LRAIBBc04cmhABSlllJfaTzn82Tty8NudyBXyQhKDOys7gkEAkG76bZV8AMHDEelVGM01nHg4I7uahYAqVqDV99kVBHRyHR6kEiw1VRhys6g9th+7KbWb+hyvQGvfoNRhkYg03pht9mxVZdjzEyj7sQhHFb3iwB8J1+BKjyKmsN7qD20C23fQWji+yHz0uGwmDHlZlFzaBe2mupWWpegie2NOi4RhW8AUqUKhwPs9TWYcjKpPboPW62rvbZvMvph49yeMWjuQpdjpux0yjesbvU6nCtKpYrf//5GZsycTa+IXlSUV7BpywbeWvoG06fP4rHHnuLQoQPceeetLrZvvP4WI0eNYem/XueLLz9j7tx5zJh5BeFh4RiNRrZt28zbby+hpKTEbdsdtb9YSEqI5Q9TL2NIYhyBvgbMZgtpeYWs3raLL9ZvwmK1udgMjIviv88+BsAf3/g3P+8+4FInJjSY/z3/OFq1ijXb9vDY0g9alL/z2L2MSerH659+w3/XbuTGyydyxfiR9AoKoN5kZtOBIyz5bAXFFVVu+90nKoIvX3gCi9XKsFsfID4ijIVzpjMsMQFfvY7c4jK+/nULy9f8gs3uOR7yXMbfiFwmZc5lo5k1Zji9I8PRe2mxWq1kF5Ww9eAx/vPdT1RU13SZPRLwj/QBoDi1Y99TU62ZqoJqDGF6AqIMHtM3uWPc2KkMGzKaurpaVq35SsTvCwSCDtEtAtTXEEBMTG8A9u7fjtnSfVPvct8AfKdciUyjbXncxw+5jx/quD6Ur/8ea0WpW3t1ZByG8dNAenq6SiqVIfULQuEXhCYukbJ1K7DXeU6FAqAfNRlNXGLT3xKZHE1cIqqIaMp++gZrZblbO5/LpqOJahmvJZGAzMsbbZ8BaOITKf9lFeaC3Fbb7yn0ej1LlrxLnz59m44FBgVx7TVz0Wq0lJY5r3tWVoZb+6joaACKiotYsuQdkpMHN5Wp1RpmzZpDUtIgbpn/e+rq6zvdviPcf99TaNTas1cEdu3ezK8b1nRq++BMVv7wDdcwf9aUFscVGhkD46IYGBfF+OT+3P3yUuyOlotSDp/K5Ne9B5k0NJk7fjfDRYBqVEpe++MdaNUqjqVn8ef3lru0Hx0WDEBheSXv/d99DO5z+rusViq5avwohiTEcf2TL1BndM1RGR3itM8uKmFMUl/eePAOVErl6fLQIB6+4RqCfQ28vPyrTh0/gLdWw1uP3kNyQmyL40qFgrjwUOLCQ5kxaijz/vwSxeWuK8s7ag+g1ChQaBQAVBe2IlTbSFVBDYYwPV7+bftuAgQGhjB2zGQAVGoNl0+7ig+X/bPDfREIBJcu3SJABw8aiUQiITs7jby89gXPdwipFMOEmcg0Whw2K7VH92HKzwG7DWVIBF79hyLTeOE7aRYl33/m4smU6fT4jJsKUhl2Yz01B3diKSlGqlSiiopDm9Afud6AYdx0ytZ+67EbCt8A5P6BVGz6CVN+NlK1Bk10PF4DRyBVqdGPmkjZT672qoiYJvFpzs+m9thBbDWVIJUi9/VHlzwSubcPhomzKPn2kxaeXGP6b1iK8k/3wT8I/cgJAJSt+w6HpeXD3mHumgTVTz/9HH369MVqtfK//33Cxo2/UFNTzahRY1m0cDEnUo4DkJmZ4WKrUqkJDnZOPU6bNgOFQsEjf7qfjIw0goJDmD9/ISNHjiYiIpIr5lzNF59/2qn2FwN3XTOb+bOmYHc4WLlxO99t3kFBaTlhAf7cduU0xib3Z0xSP2aNHc6qLbtc7P/1xfdMGJJE3+hILhs0gE0HjjSV/fX2m4gLD6W0sooHXnsH0xkx3SqlklB/PwBmjh6GXK7gvlfeIi2vkBA/XxbOuZwxSX3pFRLI1RPH8N8ff3VpPzosCICaOiNP3zaPD75fx4/b91BvMpOcEMsTC36Pr7eOeZdP5INVayk5w5Pa0fE/etN1JCfEYrFa+c93P7Ht4DHKamrQqdWMH9SfxddcQZCfgQWzp7kVwB21B1BoFU3/Nte3nnKpLTSmbVJolWepeRrtGS/wGm3bxatAIBC4o8sFaK9esfj7B1NfX0tVdQUzL78erdYLk9lEYWEux0/sp6bVKehzRx0Zh9xbD+AUfzkZTWWWkiIsBbn4Xn4NMp0eTUxv6lKPtrDXJiYhkclx2KyUrvkKW83ph5upIAdbbTXeg0ejDA5D4R+MpbTQbT9UEdGUrfsOc4Ez7tVmNlFzaA9IZegGDkMZFIbM2wdbdUsPiCo0AgC7sY6yX1ZBsylGa0UZ1pIivIeOBUBu8MNcmNdUbjfWYzee9uhJmnmNrOXFZw076AwGDRrCuHFO0fvXZ59i/bofm8oyMzPw9/Pn5vm3Of/Ocn0x6RUZiUQiAcDbW88dd9yCzeacKs3JzeHAgX0sX/4VMTGxDBsy3EVAdtS+o3z88VKQti3M2tTJ3leAUH8/Fl01A4C/f/wln63d0FSWW1zK3hOpfPnC/5EQGcHYpP5uBVhqTh4/bt/DrDHDuf3qmU0C9IbLJzJj9DAsNhsPvvFvCstck5tHhQY2XX+9l4b5z/yjaZo8u7CYvSdS+fqlp4gLD2VEv97uBWioc5vJpPhoHl/6Iau37W4qK9i5F5PFwpKHFyOTSkmKj+GXPQc7bfxeGhWzx40E4MVlX/DVL1talB/PyKbeZGZY3wSq61w/v47aNyKTnf4OOTohdZLD7mg4r6TNNjm5WZSUFBIQ4PRI79/v+l0RCASC9tClAlQikTCgr3PK02Qy0r/fkKYyjVpDdFQ84WFRbN76E6WlRZ3evjI4HHCKtebisxFzSSGmzFMog8OQ+7kG5KtCnALQmHmyhfhspO7YAbyTR4BUhjIoxKMAtVaUNYnP5tSfPIZu4DAAFL7+LgK0cdrfXlfbQnw2nbe6ssviNjuD2bPnAHDw4P4W4rOR/Qf2NQnQbDdT8NGR0U3/fuXVF5vEYyN2u529e3cRExOLj8G30+07SoWHsIru4orxI5HLpGQVFLUQX43YHQ4On8okITICnVbj8TxLv1rF9JFDSY6PYdSAROpMZh6+4VoAnnv/Uw7+lubWLibk9B7lf1v2uUuMpt3hYNfRFOLCQ/HV6dyeo9EDuvNoSgvx2ci2w8eb/q1RtfTodXT8ceGhyBvE37ZDx13KAT5Z8wufrPnFbVlH7c8nbDYrH3/yNr16xVBbW01hUd7ZjQQCgaAVunQVfFhYJDpvZ/C8RCJh85a1rPh+OatWf86Ro3ux2+0oFApGjZyETNb5WlimcT5UPMVXAlRsWUvR1x9RtXODS5lErW7V3mG3Y20QjdJWYv2sVe63vrPV1jR5IyRy1+kwa7lzwYHcNwBNXCKSNnrTzheSk5wvH1u2bHRbLsHpgbHZbOTk5LiUR0U7d3wpLCrgZOpvbs8hlzu/N1VVrvFzHbW/0BnS2xl3+OveQx7rGLydwq+k3PP2jNmFxazcuA2A2383g1fuX4hCLuPTnzawYuN2j3Yx4U5vWUFZOb9luo9RVjRc/8raOrflUQ0xoL/s8TyGRsqqWs6kdHT8Rsvp6e4rxg1H1s7fX0ftzzcsVjNp6SlCfAoEgk6hSz2gUb3iAKipqeLXjT9gabghWzBz/MRBqqsrGT1qMlqNF5G9YknPcC8SzpnGhUN2zytcW0PSYO+webZv2lGotYeLp12HHA4k2AEZuJkNM6b/hteAIci8vPEZMwX9yAlYK8uxVVVgrSzDXJCHuTgf3Cye6GmUShXhEb0A+C01xW2d8Ainhzk/Pxerm0wCUZFOAfnbCffeI4BevaIAyMlx9TB31P5CJ65XGAA3zJjE3KmXua2jUjrjCzMLils91zvfrmbOZaMY3te5mHDn0RO88l/3MYuNxDRMnx9P97xaOjLE6eHMKnRtP9CgR6dxvgQey3AfOy6TSnhh2RfOOuktP8OOjv9kVh6ncvOJCw/l3uvncOsV00nNyiGzoIjfsvPYfug4p3LzXew6y14gEAguZrpMgEokEoKDnQIjJfVwk/hsTk5uBmXlxfj5BhIcHN75AvQCx24xU/rjN+iHj0cVEYNEJkfhF4iiMVwg2Tm9X7FlXZO39HyhV2QU0gZRnpmR4bZOZFS0s9xN/Kez3CkO0zPcT/ECREU17IvtZhFTR+07isHXH5mkbV6vemMddWfJpNAeVEolwb4GABQyGQpZ60nH0/NaF0I19fUUV1QSFuAPwD+/XIXV1vo2kI3T56dyPaf6iQkLaWjftU5j/CdAhodz1JvMbqfXO2P8doeDu19aytML5zEmqR86jZrBfeJbrORfs20PT737MRar60tmR+0b6ar3y/PwvVUgEFxCdJkAVas1TdOb5eXuUxwBlJU6BahW6z4G7FLHXldDxcY1SJRqlAFByPQGZHoDqqAw5L7+yA1++E65kpIVyz3mI+0JYhrEZX19PUVF7sVDdEOdbA8CtFekU0CmpZ1yW+7l5UVAQAAAGemudTpq31Hm33RXj6Vhar4AaNLdj1Na6T7PZluQSCT8/e7bCAvwx2KzoZDJuGXWFB5+07Owh9PT56dy3E/Z6jRqAg3ORYJpbjyBjQK2vLrG4xS9x7Y7afz5pWXc/fJSfHRe9I3uRUxYKAm9Qhmb3I9Qfz9mjhlGen4B73zjPha7o/YA9mY5SmWKju9eJFc4X4pslnObGRIIBILOoMuCkmTNPA5SSSurLaXOMsc5TpO3SuM5ped2027sk6QV74lE2qDhW0mC3Rk4zEZMeVnUnThE9a5NlKz6jMptPwMg02hRRUR3afvtJTwiEoD8gjwcHlwt0VHOGL1MNwuQggKDm1K/5OW5jx/s3duZV9XhcJB2hoDsqP2FTmSQ00tebzJ3SHwC3Hf9lUwYMpCaeiP3v/o2DoeDqcMH0Te6l0ebYD8DWrUKgJxi9y+giVFOe4fDwakcNwK0wQOa4cY7ejY6c/wAlTW17Dhygv+t/ZVn3/+UKx/+K4dOZgAwdmC/LrVvTJsEoPJStFKzbSi9nPHmlk5I6SQQCATnSpd5QOvr67Hb7UilUvz8Aiktcx9jFhjgfMjUuFll3lFsDaltZD4Gj3UM46ajDA7DmJPhshDJUV8PGi/kevcrpCVSCXK9c5GVzdg+D01nUH/qBPphY5Eo1c4dns4jDAbnNbdZ3E8t9u8/kIBAp0jIcjP93ZhAHsDq4Rzjx08EIC39FFVVLb8/HbXvDJb88/lOP2db8fPxBvAo/tvK5SOHsuiqGTgcDv787sdsPXiMDfsOMWloMvfPncNdLy91a9c4tQ5g9eBpmzg0CYCTufluPZzRoU4PaHqe++wSrdFZ4/eE2WLhaFoGSfHRWM/h5bM99hajFWOVEbVejU+4noKUjoXb+IQ5r01VO5Pa67z1aFTOhZ1mi4nKSs8L1wQCgeBsdJkH1GazUlzs9Gr06T0QlUrtUicuLhGfBnGXk9v5CerNDas1FQZ/VGGRLuXKgGBUUXFItV5uUyiZCp2eM3VUHDIvb5dybeKgJu+qpbDzFxP4Tb+agCvnoR8+3m25VKtDonB6mc5MLO9Cs3g9iVLVaX30RG2tM54xJjauaZq7EZlMxj33PNj0d1a262cf1SyF0rDhI1zK42Ljueaa6wH4YdXKTre/0Kmsdgo6rVrF0MR4l3KVUsljN1/Pc4vnMybJvQeuT1QEzy2+GYD3Vv7E+oadkP79rTOl1tjk/gzpE+fWNiY0uOnfIwf0cSlPiAjj91Od3+uVHlbSRzecIz2//QK0o+O/65rZfPPS07z2wB1uz69RKRk/aAAAh0+md7r9mZSmO8VeSL+gs9ZtDe9AL3QBXs5zZrRPQF591Y3ctuABblvwAP37DT67gUAgELRCl66CP3psH4GBYWg0XkyZNIdjx/dTXl6CXC4nKjKBuDjng6m4pIB8N3kyO4ox8yTW5JHIvfUYJsyg9sg+TAU5YHegDAnHa8BQJFIp1upKjOmpLvZ1Jw6h7d0fiVyB38zrqDm4C2tpERKlEnVkLNreAwEwF+ZhKev8PKbW8hK0iUnIDX5IlErqT53AVleLRCZHbvBDlzQcJBIcdgem3Nb3ZbZUlDrDBKRS9CPGU3tkH45mCx9stdUtEtd3lEOHnWJFLpfz+htv89bSN8nOyiAsohcLbr0da7O24+N747A7KC097dlpTKG0e/dOFi1ajEwmZ/OWjeBwMHToMBYtuguVSk12dhZff/2FS/sdtb/Q2XH0BGaLBaVCwRsPLeaV5V9zIDUNKc590RdcOY3YsBAKysp58aPPXex9vXUseXgxaqWSjfuPsPSr75vKjqZnsvXgUcYm9+eB31/FLc++5mLfuAXnjiMnuPva2chkMjbsOwQOGN4vgbuvvQKVUunM0bluk4u9XCYjLNC54Cm9lUVMXTX+ipo64iNCiY8I5eV7b+OrX7ZQWF6JUiEnPiKUW2dPJSIoAJPZzJdnJJjvDPszydqfR3hyiHMP9xg/StLL2n1NAOLHRwNgrDa1a195pVJFSENeZZvNzqFDe86pfYFAIGikSwVoaVkxe/dtZuiQcXh56Rg+zNWTV15Ryo6drjugdAp2OxUb1+A75QpkGi90g0aiY2TLKnW1VGxYfTqdUjNsNVVUblmPYfw0ZBotPqMmutapqqBiy9ou6X71/h0o/INQBIagiU0bvl6eAAAgAElEQVREE5votl7Nvq1uE+U3x2E2UXN0H7qBw1CFRaEKi2pRXrVrM3UpZ8+12FZ279rBgYP7GZQ8mPi4BF577V9NZceOH+GZZ57kq6++Qy5X8PprS6mvr2fy5NFNdRpXp584fpT6ulruvPMe7rzznhZtFBbm8/Cf7sPsZhvRjtpf6FTW1PLK8q95YsEf8PHS8tydN7vUScnM4YHX3nXZg10hl/Hag3cQ6u9HZn4hT7z1octU9jsr1jA2uT+D+8QzftAANjfbohNOT8EfTcukzmjivuuv5L7rr2xRJ7+0jHteeRuzmwwZUSFBTXkzz8kD2oHxA3y7YSvXTBxNn6gIZowexozRw1zqmMxmHn/rI7LdpJDqqP2ZFKeWUplXjU+YN8lX92PTWzuwGD2vnHdHYLw/vYY6U1Od3JyB3d728ITIXjFNWS1+O3mUmtqu2b1OIBBcOsi8dX7PdGUDFZVl5OSkIZVJUShVyOVyrDYbFeWlpKQcYt+B7Vgs5rOf6ByxG+swpqWAw45UqUKiUILDjq26kvqTx6jcuh5bKzdTa2U5xsyTSORypEo1UrkCh82KtbyEuhOHqNz+Kw4P21pqYnoj1xuwVpRizHK/YliXNAwkUkzZ6a6plOx2jGkp2I11SBQq539SKQ6HA0d9Hab8bKp2bMSYebJN18JckIvdWI9Mp0eiVDWtEgYw5WZ53MnpXNnw63o0Gi3BwaEoFHLy8nL5+uvP+fvfn6WiopzCwkL69xuA1suLjPQ0vl1xOq/knYvvReelY+3a1Xz44XtotVoCAgNRqVTk5eWycuU3PPPMkxQXu/c8d9T+YuBIWiYHUk/h661D76VFJpdRVF7B4ZMZLP1qFS9/8hWVta6pn568dR5TRwyitt7Ior+9SaGbJO2FpeUM7ZtAeKA/8RGhLttM3vf7Oeg0GtZs28O/V6xBq1YR5GtApVSQV1TK179u5Ym3PqLIzRaeAEMS45kxaigWq5VX//sN5xLJea7jB7DabKzashOrzYbBW4e3Ro1MJsNkNpNZUMSabXv4v7c/4lCq++nzjtq7ozKvil5DwlHplPhH+1JwvAibpW3xp4Hxfgy/YRAyhYyKvCoOfnOsXWmYBiWPIDzcGca0fv13VP4/e/cd2HZxN378rS3Z8t57xnbsJM7eATIZCVBGaWkhlEKhrC7aX9un42lLW562lDJLS0sH0JZCIIWyCSEhgywnznaceMUz3kO2JVnj94dsJ44lWx6SnfB5/WXr7r53lm3po7vP3dfDzTWEEMJbiriYTDkNTkwqBoOBDz/ciUKh4IH772JfwcjuOz3W9mJsDDotu577HQqFgq/88nF2H3V/IwIxcon5scy+aToKhQJLp5WTW8qoOliLxeT+Q3xofDBpi5JImh2PQqGgq6WbbX/YjbljZB/6b7/tAaKj42hsque5vzw2Hj+KEOJTzqdL8EKMRlJySv/sbHnF0GdN+qK9GJuUuJj+59/d+Z5i9KoO1mHttjHnpunoArVMW5tNaEIwBS8fdlv/0vsX9n/dUNJMwb8PeQxWPdHrDURFuVIqDhzYPfrBCyHEOSQAFZNO3w52k8lEY+PIj5wZa3sxNmm9G5A6urppaB3/460+7eqLG9n0yHayLksjZV7CsPXb6zo4saWMmsN1jCaXITk5HYVCgdVq5eix/aMYsRBCDCYBqJh0knsDyIoK7/PjxrO9GJvU3jsgjeb8TuGdHnMPR98t5vgHJzGEeb7b1keP7xzxeZ/nS0l23TDi2LFCLJaLb8OeEGJiSA6oEEIIIYTwK58dRC+EEEIIIYQ7EoAKIYQQQgi/kgBUCCGEEEL4lQSgQgghhBDCryQAFUIIIYQQfiUBqBBCCCGE8CsJQIUQQgghhF9JACqEEEIIIfzKp3dCmpqTz7S8OcPW6zC18e57r/pyKEIIIYQQYpLw6QyoQqHw5eWFEEIIIcQFyKczoAqFK75ta29hz96tHuvZ7XZfDkMIIYQQQkwiPg5AXTOgNpuN1tZmX3YlhBBCCCEuED5dglcqXZd3OmSGUwghhBBCuPglB9Tpy06EEEIIIcQFxS85oE6HA7VaTe7UWSQlpqHXB9DTY6WhsY5jxwtpa5PleSGEEEKITwvfBqDKs7vgly1ZQ2RkbP/3Op2exIRU4uOS2L7zA86cqfHlUIQQQgghxCTh0wBU2bvCHxUVR2eXib37Pqa1rQW93kBifAppadkolSrmz72Et9/dgN1u8+VwhBBCCCHEJODTALStvYXauiocdjsFB3ZgsZj7y+rqqjB1mpg+bQ56fQAJ8cmcriz15XCEEEIIIcQkoIiLyZywPUJKpZJr1n0RjUbDqZJjHCjcNVFDEUIIIYQQfjKh94J3OBx0mNoA0OkMEzkUIYQQQgjhJxMagALYeqwAqJQTPhQhhBBCCOEHEx71qTVaAOxyWL0QQgghxKeCTzchpaZOQaFQ0traREtL46BypVKB0RgMQFdXly+HIoQQQgghJgmfBqCZGVMJC42ko6ONTZtfx2YbeMzSlMxpaHtnQM/UV/lyKEIIIYQQYpJQBRnDf+Kri1usZpIS09Hp9MTHJtFjs4JCQUhIGNlTpjM1ZwagoKmpniNHC3w1DCGEEEIIMYn4/BimvNxZ5E6dCSjclre1t7Bt+3t0d8sSvBBCCCHEp4FfzgGNiIhmSkYukZEx6HQG7A477e2tVFWVUVJaJHdAEkIIIYT4FJnQg+iFEEIIIcSnz4QfwySEEEIIIT5dJAAVQgghhBB+JQGoEEIIIYTwKwlAhRBCCCGEX0kAKoQQQggh/EoCUCGEEEII4VcSgAohhBBCCL+SAFQIIYQQQviVBKBCCCGEEMKvJAAVQgghhBB+JQGoEEIIIYTwKwlAhRBCCCGEX6knquNlS9cQG5NIW3sLmz58HYfDMVFD+VTQxiUSvupaAOpffg6HxeyXfvVGIz/Y8JLbMofdQUdzEyX7C9n60ss019Z6vI5SpWTmiuXMWL6cuMx09IFGujvaqTh6jO2vbqTy2PER999jMdNUXcuhLVv5ZOMb2HqsA8qT83L5ym9/7eVPetbPr/8slq7uEbebbJ74xnzWLk4atl5BUSM3/Xirx/LMhCC+vG4Ki6fHEBOux9rjoLSmnXc+qebF90rostiHvP5EtxdCCDH+JiQATU7OIDYmEafTyb592yT4vIhFJSV6LFOqlIRERTH78tXkLl3MX777fWpPlQ6qFxQWxhd/+iMSsrIGPB4YGkruksVMXbSQ//zucfZ/8OGI+tfo9MSmpxGbnkb2/Hn89Xs/wG6z9ZdHJMR78yMO0NHSclEEn+Nl3ZIkfnPfXLTqs4stWrWSGRnhzMgI54blqdz60MfUN7v/QDTR7YUQQviG3wNQnVbHzPwFAJw8dZTmlkZ/D0H4UWRvAGg1W3j63vsHlAWGhjJt6RIWXXct+sBArr7/Pp79xoMD6qjUatb/4mfEpqdh7+lh1xtvcrKgAEtnFwnZWaxafwt6o5F1D9xL0e69dLW3e9W/QqkkIi6eS2++ieTcqaRMy2PhtVez49WN/XWObttOyf7CAdczhoZyz1OPAfDao48NKj83gL3Q/eyvh/jtS8fclkWH6vjerTOYOSWchlaL2zqpccb+4K+xzcyTrxzncGkLQQEaVs+P5wur0slMCOJ3X5vPF3/y8aRrL4QQwnf8HoDOnLkInVaPqbODI0f3+7t74WfRSa4l3MaqSpprBi6xN9fUUnnsOGqdjvlrryQpJ5ugiHA6mpr76yy4Zh2x6Wk47A7+/oMfU3bocH9Z1YliaopPctdjv0Wj1ZE1by6FH272uv+mqmpKCw/yreefIygsjNwliwcEoNZuM9bugTNjEfFx/V9XHjtOe+PF+wGqsc1MY9vgx/Mzw3j6wUVEhOh4d1c1Dz611237L12ViVatpMti54b/+Yiqhq7+su2H6qmq7+J7t0xnYW4U09PDOFzaMqnaCyGE8B2/BqBxsUkkJ6UDUFCwA7vdP7NFSr2BwKn56BJTURmDQaHAbmrHUllO57EDw+ZDqoNDCcydhTYuEVVAIA67A3tHC+aKUrqKDuG09bhtF7ZiHbqEFEyH99F5aA8BU2diyMxFFWjE2WPFUn0a06E92E0dQ/SuwJCehT4jB01YJEqtDqcTHN0mLFUVdB7dj71zcPuAqfkEz13q9orRN90x6DFLZRktW94e8nkYjb4ZyIbTVR7rFO/ew/y1VwIQFDYwAJ1z+RoADmzaNCD47FNZdILuDhOGICPGsNAR92/rsVK6v5D8lcsxhoUN+/NEJbsCWrvNPmTO6sXqkpmxPP3gQgJ0Kp7ZeILfvnQEp9N93QW5kQC8tbNyQPDX5y9vnuQbN+Wi16qYnxs5KACc6PbnW7pkFXNnL6Krq5M339lATc3pIesLIYTwzG8BqEatYfbsxQCUlRdT31Djl37VYZGErbwalSFg4OMh4ahDwtFnZNOy6b/YWpvcttcnZxC6bDUoVf2PKZUqlOHRaMKjMWTk0PzBf3B0dQ45juCFKzBk5PR/r1CpMWTkoEtMpfm917C1uX/zC7lkDYaUzAGPKRSgCgwiIHsahswcWja/ibWuesj+J0pUYm8AWFnpsY5aq+n/urPt7JSbIchIdEoyAMd3fOKxvUrjat/VNni6zqv+dVoATC3Dz4BF9c6oNtfV4rD7Nnf5aw/8EIM+YPiKwJ692/hoyzs+Hc91lyTz8FfnAk6+/dReNn48dAAWEawHoLTa/Qcsu8PJ6TMmspJCiAjRTbr254qKimXJ4hUA6PQGLl99LX/9+5NDthFCCOGZ3wLQadPnEmAIpNvczcHDe/zTqVJJ6KVXojIE4LTb6Dy6H0ttFTjsaGMTCcybg8oQSNjyq2j870uDZjJVxmBClq4CpQqHuRvTwd30NDag1GrRpWQQMCUPdXAooUvX0Pz+Rg+DAE1YJOqIKFo/fg9LbSVKvQFDaiaB0+ej1OkJXngZze8Nbq9LTOsPPq21lXQeO4jd1AZKJeqwCIz5C1AHhRB62VU0bnxhwEyuuayYnvqzM3SaiGiCF1wKQPMHb+DsGZi357S6z+MbC5VaRVica8m6cYgAMHv+fADaGhpoa2jofzw2NbX/65rSwZuTAEKiotDqXcFDQ9XAINyb/lVqFRkz8wEoOVDots65InsD2sbTnn+ei9FNK9P45V2zaGi18MDvdrOvaPjUA5VKAUBPb6BuNKi574apFJ9u6w9erT2uMpVSMenanyvgvA+whgDvPhgIIYRwzy8BaEREDJnprtm//Qd20mO1DtNifOiTM1AHBQO4gr+q8v6ynsZ6euqqCbv8elTGYAxpWXSdPDqgfUDODBQqNU67jaZ3NmA3nd3gYqmrwt7ZQdCsRWhj4tFExNDTdMbtOHSJqTR/8AbWOlfQYrdaMB3aB0oVxulz0UbHowoKwd4xcAZPF+cKdhzmLpo3vwnnnBZga23G1lhP0JwlAKhDw7GeOTur7DB34zCf3Y2t0GrPtm1p8MsxTOFx8ShVrt3HnpbA02ZMJ3+la2Zp3zvvDSiL6p39NHd10dHofoY6KuXsMUEN5wWF3vS/5su3ozcacdgdHN4y/EaUqOThZ1THy/PPPw1K747qtXT7duf93JwIFAoFkSE6nvn2Qo6UtvKfbRX8d3sVDk9r8Oe57pIU7romC4fDyYcFdbR3jux1YCLbV1WfprHxDJGRMQAcOOCnD9FCCHGR8nkAqlSqmDtnCaCgsrqMmpqK/rL4uGQWL3IFH6/95wUcjvE9j08bkwC4grVzg88+1sYzWCpK0MbEow6PGlSui3UFG+aKUwOCzz5dxwoJyp8PShXa6FiPAaittbk/+DxX96ljGKfPBUATFjEoAO1b9nd0dQ4IPvuv29Hmk7zN8RLZmy/p7A1Qws/ZwBMUHk7m7NksvfE6lColDVVVbN8wcBY4OtkVgDZUeA72YlJSAOhoasbcOTANwlP/SqWS8Lh45l11OTmLFgKwfcOGYYNKjU5HcKQrr7Ch0vcpD60e0jImklKpIDxYxyUzY7hkZgw3XJbKV3+906uzNEOMmv5rBAeoRxxATmR7u93G8y88Q1JSGp2dHZyp908KkRBCXKx8HoBOzZlJcFAoVquVwsJdAwsVChQK392MSWUwAHjMrwRo3f6+xzKFXj9ke6fDga2jDXVIOMohcvVs7a1uH7d3mnA6nCiUChRq7aByW+8RVeqwSAwZOZjLinFeQGemRiW6PgAoFAoeePb3HuudKSvjhR//DNt5aQB9G34aTnvONeyrU++mjrf973h1I5v+/qLH8v7rJSWiULiWaodKKbgY/erFwzz9ahFKpYK4cAM3XJbCZy5JZsn0aH5+1xy+9eTFPyPYY7NSWnZioochhBAXBZ8GoCEh4eRkTwfg4MHdmM1+PqC7b+PQKGdWFb3tnXbP7Z19O/mHWir1tNvf6USBA1CBmxQ0c1kxgdNmowoMImTxSoIXXIqtrQV7eyu2tmasdTVYG2rxuA15gkV6OATe6XRi6eykrrycw1s+puC9D7D3DD5JoG8JfqiZyehk1wzo+cvvQ/Xfp2jXbrb84yWqT54csp676zVWet7VfzFqarPQ1Ob6gFBW08HOI/XUNHVx73U5XLssiWc2FnGyavAqwbls9rN/pz32kf/NTnR7IYQQ48enAej0aXNQKpXUN9RSftq7N3lxlqPHStO7rxE8bxm6xDQUKjWa8Cg0fekC+a7l/dbtH/TPlk4mfTvGd258nXf++KcRtdUbjQT1HotUP8QSfF9OZv3pisFlbvpXqdV8/+V/oQswUHuqxOvg89zrdTQ1Y+4afKzPeAsNi0Dl5QpBt7mLrmFOYhhvT79axK2XZxAUoGHVvLhhA9CthXXcsW4KRRVt1LeM/MPoRLcXQggxfnwagGq1riXsrq5OjMbgQeUGvcGX3V8UHF0mWre+g0KrRxsZjSo4FFVwKLroeNRhEahDwwlbeTWN/3nR43mkEyWydwm8sWrky9V9xy8BNLgJLgGCIyPRBwYCUF/uZgbUTf92m42TBQVMW7aU3KVL2PziP70eU39KgJ+W39ffcs+kOobpfGarnROn25ibE0lyjHHY+sfL25h355uj7m+i2wshhBg/ftkFn5qSSep5Z1n6Rd/S+zlneI6Es7e9QuW5vULZ+xT6ODfTaTVjqTkNvYdfdwCGjBxCFq9EZQhAl5iKuXzyzDIHhYf1B4eNQxxC70nffdhtViut9Q1u68RlpPV/ff4M6FD9F32yi2nLlhKTmkJkYgKNVd5tKOo7gqmh6uJffg8K1LAwzzXT/snhekzd7tNIDDrX37/CTQqJvXeZW6PyPIur6b1Hu90xeEl8otsLIYTwHb/fitOf7L1H06hCBt8hp0/o0jVoY+IxV5XTvnvLgDJndzcYAlEHu79DjkKpQB0c4urL7Psl2fN1lxQRPHcJCq3edYenSaRvuRpGF7AZjK4ZNZvV2r+L/Xw5CxcArg1I3R0mr/s/sWcfDrsDpUpJ3rKlbP3Xv4cdj0KpJLI3KB5NQD0aTzz5c7/0445WreQP314EwHee3sdrWwfPQgfoVKTFBwFQ3TB4+b+p3UxEiK6/zvlUSgUpsa7fc3P74B3pE93+fMagYAw616qNtcdCW5v7zYVCCCGG59MAdPNH/x2yPD4+hSWLVvqsf2t9DQFZeWhCI9DFJ7tmEM+hjYxBl5KBQql0e4SS5Uw16vBI9CkZmA7uGXTLy4Ccmf2zqz1nxv+2jOFrrkOp02Otq6J977ZB5coAIwqN6xD28w+WH+Scu/YotDrw8TmgfRt2zCYTppaRv1F3trra6I1GErKyqC4uHlCeMi2PWatXA3Dg/U0j6t9sMlF++DDpM/PJW7LYqwA0LCam/45L/lqCn0hNbRYOnGxm1pRw7r0um/f3VA+aBf36TbkE6Fx//1v2D/7/2XusiaykENYuTuTJDcepaRz4Ie22KzPRa13t9xwbnMM80e3Pd921XyQ+zvXBZtv2D9j5yUfDthFCCOHeRT0Daq44hS1/AeqgYEIvvYLOI/ux1FWBw4k2NoHAaXNQKJXYOtowlw1evu4qOkRAVh4KtYbwK2/EdHAPtqZ6FFot+uR0ArJcO/ytZ2roaa4f9/HbWhoJyJmBOjQchVZLd0kR9q5OFCo16tBwjDPmgUKB0+HEUj30bRF7WptcaQJKJcHzl9F5ZD9O29mAwt7ZMeDg+rHqm4Ec7XmZpwoOYLNaUWu1rP/FT9n0t79TdaIYfUAgU+bOZtFnrkWlVnGmvIJPXh/8QWe4/o9/sov0mfnEZWYQHhdLc23d0D9P8tkd8A2fkh3wj/7rKM//aClp8UG89vAKnn71OEWn2wkJ0HDD8lRuvMx1AsFH++vc3kf9b++c5KaVqQTq1bz68+U89soxjpS2EGTQsGZBArdeng7AJ0cbOFTSPOnan0ur1RHbe66w3e7g0KF93j+RQgghBrmoA1AcDlq3vkPYynWoDIEYZy7AyIKBVbo6ad3y9tnjlM5hN7XTtn0ToctWozIEELLwssF12luHPEt0LDoO7EITEY0mKhZDeg6G9By39Uz7d7g9KP9cTqsF09H9GKfPRRefgi4+ZUB5+55tdJ04NG5jH2u+ZGdbG2//8Vmuvv8+AoKCuOaB+wfVqTlVwov/+1O3RzgN13/RJ7tZe8/dAOQuXcL2V14dcjx9Aa2120x74+Q7ccAXdh6p58fPHeB/b59FRnwQjz4wf1CdwpPNPPiU+zNAS2tMfPeZffzqnrlEh+v55d2zB9U5WdnONx+fnO3PlZyUhrL3qLXiU0cxdbq/v7wQQgjvXNwBKK5ZxKY3/03g1Hx0iamognpzNk0dWCpL6TxWOORtKc2nS2j8bxOBebPQxiahCgjE6bBja2vGXFFC14kjPtt97rT10Pz+RgxTctGnZqEOjUCp0eB0OnGau7E21tF1/BBWL+/KYircjaOrk4Ds6aiCQ1F4eZvH0YhM6t2BPobl6r1vvUtjZTWLb7ie5KnZ6AONmLs6qT1VwqEtWync9CEOu/vNX8P131pfT11pGbHpaUxbNnwA2rek31j96Zj97PPP98soONHMneumsHh6NBHBerotPRSdbueN7afZsLmi/17r7ry+rZLj5W3ccXUWi6ZFER2qx2pzUFLdztufVPPie6V0WzyckzsJ2vdJTkrv/7rwwK4hagohhPCGIi4mU7Z/CiHEEG6/7QGio+NobKrnub88NtHDEUKIC57vpsCEEOIioNcbiIqKBeDAgd0TPBohhLg4SAAqhBBDSE5OR6FQYLVaOXps/0QPRwghLgoSgAohxBBSkl35n8eOFWKxDHPcmRBCCK9IDqgQQgghhPArmQEVQgghhBB+JQGoEEIIIYTwKwlAhRBCCCGEX0kAKoQQQggh/EoCUCGEEEII4VcSgAohhBBCCL+SAFQIIYQQQviVBKBCCCGEEMKv1L68+MIFl5GUmD5svabGM2ze+pYvhyKEEEIIISYJmQEVQgghhBB+5dMZ0MKDuzlydL/bMr3OwIwZ84kIj6Lb3O3LYQghhBBCiEnEpwGo2dwNDA4uw8MiWbRoBXqdgaqqcvbs+9iXwxBCCCGEEJOITwNQd2JjE1m0YAVqtZqiEwc5fKTA30MQQgghhBATyK8BaEpKJnNnLwVgz76Pqag45c/uhRBCCCHEJOC3ADQtLZu5sxfTbTaza/dHNDbW+atrIYQQQggxifgtAI2MiAYU6HV6Fi9cQUtLExWVp6isLMXpdPprGEIIIYQQYoL5PQdUoVCg0+mJjU0gNjaBtJQp7PhkEzabzd9DEUIIIYQQE0ARF5Ppl+lHnc6ARqMBhYIAfSCpqVNISc4A4PTpEnbv3eqPYQghhBBCiAmmCjKG/8QfHdntNqxWC1arhc6uDqprKlAqlURFxhISEk5VdTkWi9kfQxFCCCGEEBNoQu+EdLzoID09PQDExyVP5FCEEEIIIYSfTGgAarfbaGtrAsBoDJrIoQghhBBCCD/x2SYkjVZLVGQcAA31NfTYetzWU6k1ACh8NRAhhBBCCDGp+CwAVSpULFm0EoC9+z6m3M2h82q1miBjCACdXSZfDUUIIYQQQkwiPluCt1i6aWpuAGBqdj6a3pnOc+VOnY1a7YqBa+uqfDUUIYQQQggxifh0F3xnp4nUlAy0Oj0JCalYe6yAguCgEPJyZ5GZMRVwBZ/FxYd9NQwhhBBCCDGJ+Pwc0Iz0HGbmL0KpdJ/l2dTcwPbt7/UGp0IIIYQQ4mLnl4PoQ0LCyZoyjZjoOHQ6A3Z7D61tLZyuLKG87CQOp8PXQxBCCCGEEJOE3+6EJIQQQgghBEzwOaBCCCGEEOLTRwJQIYQQQgjhVxKACiGEEEIIv5IAVAghhBBC+JUEoEIIIYQQwq8kABVCCCGEEH4lAagQQgghhPArCUCFEEIIIYRfSQAqxARRKmBmqpPLpsm9IC5ESgXMDLNyWazFY52b07qINdj9OKpPl1Ctg/gAO0a1/A8JcaFRT/QAhPg0mpUO917hICPWyaaDCrYcUUz0kMQIzArv4d7sDtKDbHxYq2dLnc5tvTunmPhypokPag38+WQgzRb5zD9WAWon69M7WRVvJkzruo3zk8eD+E+lYYJHJoQYCQlAxaikxMWg1agprarF7nBM9HAuKLctd7L+MgcKBfTY4XSjBJ8XkvUZnazP6EQB9DgUVHR6fhktaVeTEWzj8vhu5kVY+MnBEI62avw32IuMSuHkN3NayQnpmeihCCHGSO4FL0bsx3d8gRtXLAXgze17+J9n/jaxA7qA3LnKwRcucf3LvV2g4E8fKGnrmuBBCa/dMcXEF9Jcv7C3q/X8udhIW8/Qs5q5oT18M7eDdKMNs13Bt/aGcaJdPvuPxmUxFn6U3wbAy+UBbKgw0GxRIW9iQlx4/PIqGBkRQ2bGVCIjY9DpDNjtdtrbW6isLqOkpAiHQ3KkfAyB9uEAACAASURBVGHF3Hwe++bdbssOnizl1p88MuJrBhp03LB8Sf/3iVERox7faDz2zbtZMTef93YV8J0nn/Nr32O1OMfZH3w+866SV3YOP/OpNxr5wYaX3JY57A46mpso2V/I1pdeprm21uN1lColM1csZ8by5cRlpqMPNNLd0U7F0WNsf3UjlceOj7j/HouZpupaDm3Zyicb38DWYx1QnpyXy1d+++thf8bz/fz6z2Lp6h5xO19bFGXpDz7/UGzklfIAr9oda9Xwtd1hPDynjemhVn42s43bd4bTZZOZ75HK7p35rOtW8cdi4wSPRggxFj5PSJqVv5Dll60lKSkdgyEQpVKJRqMhIiKamTMWsGL5OjQa9/lTYmzS4mI8lpXV1I3qmmZLD3uOFeNwOqlpaOaJl98Y7fBGZUpSPADFlTV+7XesNCr4+jpXqsJHhxVeBZ8AUUmJHsuUKiUhUVHMvnw19zz1GHGZ6W7rBYWFcdfvHuG6B79JxuyZBAQHo1QpCQwNJXfJYr7yyK+YvXrliPvX6PTEpqex5stf4ksPP4RKPfDzbERCvBc/4UAdLS2TMvjUKJ18fWoHAB/V6bwOPvt02xX8pDCYjh4lkXo769M7fTHMi56y99+m1Sq5tEJc6Hw6A5qdNZ3MzFwAmpobOHnqKKaOdnR6PSnJmSQnpRMWGsGc2YvZtfsjXw7lU+mtHXvZdeTEgMd+/937CAsyUlp9ZlTXtDscfOWXj4/H8EbMoNOSEB0JwMnT1RMyhtG6dJqTqGCwO+CP73v/5hnZGwBazRaevvf+AWWBoaFMW7qERdddiz4wkKvvv49nv/HggDoqtZr1v/gZselp2Ht62PXGm5wsKMDS2UVCdhar1t+C3mhk3QP3UrR7L13t7V71r1AqiYiL59KbbyI5dyop0/JYeO3V7Hh1Y3+do9u2U7K/cMD1jKGh3PPUYwC89uhjg8rtNpvXz40/XRJjIUrvwO5U8Gxx0Kiu0WpV8q8yA3dldbI2sZu/lwTSbZdZ0JHomzUO1MiiuxAXOp8FoEqlkpzsfADOnKnh4+3vDiivq6uix2olIyOHpMQ0Dh7aTXe3JMONp7rmFuqaW/q/12u1hBoDASit9rxcO1llJsahVLjegE5VXVgzoCumu94w955SUN/mfbvopCQAGqsqaa4Z+Dtrrqml8thx1Dod89deSVJONkER4XQ0NffXWXDNOmLT03DYHfz9Bz+m7NDh/rKqE8XUFJ/krsd+i0arI2veXAo/3Ox1/01V1ZQWHuRbzz9HUFgYuUsWDwhArd1mrN3mAW0i4uP6v648dpz2xkbvn4wJtCLOddTS3iYt9ebRz769V2PgjildBKidLIiyetw9PxmsXnU1p0qKKCs7OdFD6dfR4/r/N6pl46MQFzqfBaChIRFotVoAiooPua1TUlZERkYOAGFhkXR3n/bJWLRaHZ/73Be54sq1JCUm0drSysfbt/D7px9jzZqr+O53f8ihQ4XcffeXBrV97He/Z8HCxTz91O94+ZWXuOmmm7niynUkxCdgNpvZuXMbzzzzBI0e3kjH2n48pcXHoOgN4Eq9XIJXKZXs+dvjaFSqQWWtpk4uufs7w15DrVJyzSWLuGrxPLKSEwgODMBms1FZ38iOg8f48xvv0dphGtTuwS9cz21rV7m95tu/+9mgx/7x7kf86oVX3NafMSWdz6+6hNk5GUSFhWK19lBac4a3d+7h5U0f02Nzn4f82q9+RGZiHA/95Z+8uX0Pt61dxZWL55EQGU5bZzeb9uznqQ1v0tHp+cOTQgHTkl0BaEGJx2pu9c1ANpyu8linePce5q+9EoCgsIEB6JzL1wBwYNOmAcFnn8qiE3R3mDAEGTGGhY64f1uPldL9heSvXI4xLGzYnycq2RXQ2m32IXNWJxMFMC3Uld9a0Di2HeytViUlHSqygm1MD5vcAWhsbCKzZy2iqqqcbds/4HRl2UQPiU6bK/iXcz+FuPD5LADtMLXz0da3AWhubnBbx2I5m+ulUvlmKMHBwTzxxB/Jzp7a/1hUdDQ3XH8TAYYAmpqbADh9utxt+5TUVADqG+p54ok/kJ8/q79Mrzdw1VXXMGPGTG5b/zm6ugfnro21/XjKSHTNPll7eqhpaPKqTXx0hNvgE6CiZvhl/KAAA7//f/eRP2VgfqJWoyEjIY6MhDiuWDiHm3/8KxpaBk4NpiXEejXG/vHUDh6PQqHgwS9cz/qrBuY4agwqpmekMD0jhWX5edz766dxOAe+qSkVCpJjXEv+Le0m/vyDbzI9I6W/PCpUw81rLiMvPZXbfvqIx+Oogg1g1Lu+LjszstmzqMTeALCy0mMdtfZsUNTZdvY5NAQZiU5JBuD4jk88tldpXO272gZPzXrVv871QdPU0uKxTv/1emdUm+tqcdgvjFmsYI2jP+ApM439CKVSk4asYBsJPj6g/msP/BCD3rtc1T17t/HRlncGPFZWVkxsTDyJianc/PmvUFFRwrbt71Nd4/lvwdf6UhY0SidKBTgkDhXiguWzALSnx0Jj49CzbIEBZ3cx+mr5/Uc/eojs7KnYbDb+9a8X2Lp1MyZTBwsXLuHOO75K0QnX7t+KivJBbXU6PTExrqBt9eor0Gg0fOfbX6O8vJTomFjWr7+DBQsWkZiYzLprruPlf/9zXNuPt/R4V0BXXlM/KNjypKm1nZt/+KsBj/3ojpvJTUum3E3Ad77/d8uN5E9Jp8dm489vvMfOg8doNpkw6vUsm5nHV69fR3R4KLevXc2vX9wwoO2j/3iNZza8dfZat97ArOxMdhw8ylOvvDmor9P1gz/o3HP9WtZftRKH08nrWz/hjW27qGtqIT4ygi9fvZol+XksnpHLVUvm8eb2PQPaxkWGo+0Nzq69ZBFdZjO3P/QoJdV1xEaE8eAXrmNBXg4zMlNZMTefD/YccPscGM85H7u924lrTm14KrWKsDjX30/jEAFg9vz5ALQ1NNDWcPY5iO398ANQU1rqtm1IVBRavWsWrqFqYF6tN/2r1CoyZrpSbUoOFLqtc67I3oC28fTEBTEjZTwn37BjHHaud1hd1wia5HmM23d8yKFDBSxevJzp0+aQkpJBSso9lJSeYNv2Dzhzxv9pMAG9S+/tPUoJPoW4wE3oYXSRka43N5vNRkvL+C9Bz5w5m6VLLwXgpz/7IZs+OJuHWlFRTkR4BLeu/7Lr+9MVg9onJSf3L1kHBQVz1123Ybe7Zi2qqqsoLNzPiy9uIC0tnbmz5w0KIMfafryl9QagpTXeL312mS0cLRv43ISHuDZhlA0TgAYadKxdugCAh//+Mhs2bx9Qfry8km6LlblTp9DhZufz+WkCIUGuDyxHSk8PGpM7cRHh3HntFQD83/Ov8NL7W/rLqhuaKCg6ySu//D5TkhNZMiNvUACaGn/2FAG1SsldDz+Bszdwb+0w8a3H/8zmp36JTqtldnamxwBUe84Esn0Em07C4+JRqlwzpp6WwNNmTCd/5QoA9r3z3oCyqN7ZT3NXFx2N7me8o1KS+r9uOC8o9Kb/NV++Hb3RiMPu4PCWj4f7kYhKHn5GdbLRKs9GOuMxads373nudX3h+eefBqV3M+4WD6sv7R2tvPveRnbv3srixSvJnZpPRno26WlZFBcfY/vOTTQ2jm5D40iolU7SjXZuTHGN891qvc/7FEL41oQFoGq1mqzeHfLlp09it4//7te1a68B4ODBAwOCzz4HCvf3B6CVbpbgU5NT+79+5LcP9wePfRwOBwUFe0hLSyckdHD+21jbj7f03iX4kjFsQNJrtcT05gpW1NUPWTcjIQ51bwCz85D7cyZfeGczL7yz2W3ZuZQKBUm9O+Ar6rx7w1u3bAFqlZLTdfUDgs8+DqeTwyUVTElOxBgw+DZ+KbHR/V8//Pwr/cFnn47OLkpr6piamoyhdxl6PEX25kv29Rt+zgaeoPBwMmfPZumN16FUKWmoqmL7ho0D2kcnuwLQhgrPwV5MiiuloKOpGXPnwKOBPPWvVCoJj4tn3lWXk7NoIQDbN2wYNqjU6HQER7p+hw2VF9YpBhei1rbhUyK81dLazFtvv8KuXVtYumQl2dnTyc7OIysrl+NFh9i69T3aO1rHrT+Apxa0MPW8Ox619Sh5rSKA504GjmtfQgj/m7AAdFb+QvSGAHp6LBQdH37pbjTyZ7jyLbdv3+q2XNG7FGq326mqGjzDk5KaBsCZ+jpOnSx2ew1179mH7e2D8+fG2n48adQqEqNcb/6l1aM7AxQgOS6qf1a3fJgcUHPP2TePdUvn8dwb74/6tp3xURFoep8rd7me7szOcuWdflTgfhMcQGjvrGpjy+A3z9T+GeM6TnsItvt+f41tHV6NaSSiEhMAVx7rA8/+3mO9M2VlvPDjn2GzWga27w0gG0573tzXV6feTR1v+9/x6kY2/f1Fj+X910tK7P/bGSqlQExeTc0NvP7fl4jatYVFCy5jSlYuuVPzqa4+zf4DnvOMx0ubVUl1twqbU46vEuJCNyEB6NScmaSmZgFO9hXsoNs8/ptvtFodCYmuN9fikyfc1knozUerra3GZht8b+GUZFcAWVzkfvYOICnJNYNUVTX4DXWs7cdTUnQUGrVrLXi0h9ADpMW6gjK7wzHsDOip0zWUVNeSkRDH/Z+9hi+tW8PJ01VU1NVTXFnDJ4eOez0bmxJ3djayvM79prbzZfQeWv+FK5Zz06pL3NbR9W7gqXBzzbTePosrPO9AT4iM6G0//suQkR4OgXc6nVg6O6krL+fwlo8peO8D7D2D/377luCHmpmMTnb9/Z2//D5U/32Kdu1myz9eovqkd8f0nHu9xkrPz6mY/Boa6jh67AABAQGkpGT6pI+fFAb3p6+oFU6yQ2zcnWXigZwOnE54vXLwqoUQ4sLh9wA0L3cOuVNdmxYOHS6gqrrcJ/0kJaeg7M1/qih330dySqqr3E3+p6vc9eZcVu5+AwdASooryHS3iWms7cdTesLZwLG8dujAcSgpcVEA1DQ0YbMPvYvX4XRy76+e5kd33MziGbkYDXpmZWcyK/vsG9Y7O/fxwz8+T88wB5D3LYe3dJiGPPKoj+6cVAGNSuVxJ3+fMjd5sSm9d5Iq8zDTGxseRkDvBp7yIYL60Wb69e0Y37nxdd75459G1FZvNBLUeyxS/RBL8H05mfVu/gfc9a9Sq/n+y/9CF2Cg9lSJ18HnudfraGrG3HXhnPnrq0xNL/cBjlpoWAQqhXc5oN3mLrq6vLs7U0ZGDkuXrCQ2JqG/bVPT+H8Aa7QM/J893akmVOvgq1kmbkzpkgBUiAuc3wJQpULJnDlLSe39tHz4SAEnPJwPOh7SeoPL7u5u6uvdBwepvXUqPQSgSb2zQ6Wl7g9vDAwMJLI3p628bHCdsbYfT2kJrvy9qjMNwwaOQ0mNcwWyw81+9qltaubeXz9NiDGQqalJpMXHMSUpjiX5ucRFhHPl4rmU1dbxh9feHvI6fcGgN0c/ueqfTRVYfu/3aGprH6bFQOfmunrabJWWcHaT0lBBvbXnbKShG8EpPpG9S+CNo5gd7zt+CaDBw993cGQk+kBXLl19uZsZUDf92202ThYUMG3ZUnKXLmHzi95vnOtPCbjAlt+t52wc047DHSD1vZuPzA7fLiOvv+WeMR3DdL7MjByWnBN4mi1m9u3bzt59O7Cel/7hK2e6XUFpjMGOAt99OBBC+J5fAlCtVsfiRSuJiozF4XBScGA75eW+vbtGQqLrDbi2rmbQ5pE+qSmuHMEKNxuQoqNiCDC4XrxratxvmMjKch2i73Q6KT0vgBxr+/GWfk4+41j0BYLD5X+er83Uya4jRew6UgS4zgH9yw+/yYzMVJZMzx02AO27r723gW9ytGumtttiHXHwCa4l//5cVw8BaGrfEUWtbW538fdp7z4baIQGencMU1B4WH9w2DjEIfSe9N2H3Wa10urmeCqAuIy0/q/PnwEdqv+iT3YxbdlSYlJTiExMoLHKuw1FfUcwNbjJt57M2nvORp1hWjtjfdkM1Z49SuhCkJmRw5LFK4iN7b0tq9VKwf6d7N67DYsP0qeGola4XsslA1SIC5/PA1BjUAjLFq/GaAymx9bDJ7s2c+aM73fAhoa6Zq/sPe6XdvPyphMZ5QpSTrtZ/u47QB7A5uEay5ZdBkBpWQnt591De6zt3UlJziBv2iy6uzrZvedjr5fMANIThl5O9lZqrOs5Kx9jzqO1p4ejpeXMyEzF5sXGpL4cUG/OHoWzR0V5+vAxnNTYmP72noLtvhnQ8mGCYpMZGtohKhimxDvZVTz822ffcjWMLmAzGF2bq2xWq8fnIGeh64is+tOn6T7vTlRD9X9izz4cdgdKlZK8ZUvZ+q9/DzsehVJJZG9QPJqAGmBq9nTCI1x/B01N9RSdGHxnJ18w2RQ0WJRE6RxMCbGxq3Fsdy/KDHK9HpSbhk4LGasnnvz5mNqnpk7h0mWr+wNPm62HAwd2s2vP1hG99oynvnvAd9sUMvspxAXOpx/Bo6PiWLV8HUZjMN3dXXy05S2/BJ8Anb1HyqSlZ/Qvc/dRqVTcd983+r8/XTl4iTLlnCOU5s6bP6g8Iz2T66//LABvvfn6uLc/X1h4JJ+98Xam581m/rxlXHftF4dtc66o0BAAbGM4yDA8OIigQNes7nAzoPdcv5bXfvUjHv36XW7LDToty2ZOA+DwqaFv8adQKIjuXQ5vavdut3lbhyvHMECvY07O4E0SOq2W7976WR766noWz8gdVJ4a7wp0zrS0YrZa3faRNoLZ4MMVrqBzSY53b5t9G3bMJhMmNzv0h9PZ6mqjNxpJyMoaVJ4yLY9Zq1cDcOD9TSPq32wyUX7YFfzlLVns1XjCYmL677g02iX4S5atYemSlSxdshK1Zux3JBqJwy2uY7YWR41tqTk50EZioH3ANSerZUtXERubiMNhZ/+BXfzxT4+wecvbExZ8AgSqXK9fphGcpyuEmJx8NgMaGGBk2dLLUSqVtLW3UHhwNzidhAS7P+/SYrVgNo/fxoRDh11HO6nVan732DP8/unHqTxdTnxiErd/6SvYztn0kpmZhdPhpKnp7GH4fUco7d27mzvv/CoqlZpt27eC08mcOXO588570On0VFae5tVXXx7U/1jbny8xPgWV6uznhYSEFJRKFQ6Hd/mcraYuIkNDuO6yxRSfrqK6fuDB5FX1DbSds7knKiyE6NCB9wbP7N1VDq4AMi8txWP7VlMXmYlxZCbG8ev7v8yGzds509KGVqMmMzGOL61dRWJ0JBarlVfOO6D+fE6nE7PFSqBBz2dXXkJtYzOmLnN/eW1TM83nBaa7jhZh7elBq9Hw2Le+yiMvvkrhyVKUuO4Lf/vVq0mPj6WuuYWH/zZ4Bq8v17Ws2nNw2ZfW4M2pAu8XKlgx3UlWPMxMdVJYPvQbaN8M5GjPyzxVcACb1Ypaq2X9L37Kpr/9naoTxegDApkydzaLPnMtKrWKM+UVfPL6f0fc//FPdpE+M5+4zAzC42Jprh36Oejb7OS65shnQI3GIELDXCcOWMzdFBX5Z/azz/s1elbEmskKtjEzzErhKIPHm1JdS9bNFiX7mvwbRI+Uw27n0OF97NixedzP+BytvhnQzh4JQIW40PksAFWrNf270EOCw7h02RVD1j9RfIRDh/cMWWck9u7ZReHBA8zMn0VmxhQeffSp/rJjx4/wk5/8gA0b3kCt1vC7R5+mu7ubFSsW9dfp251edPwo3V2d3H33fdx9930D+jhzppYHv/2A2wT8sbY/X2vrwICxw9TmdfAJsHHLDr5zy41EhQbzyNfuHFT+lV8+we6jRf3f33P9Wm5csdTj9Z789r1Dtt+4ZQfXX7aI7JRErlg0lysWzR10DYvVyvd+/zcqzwx/rNJ/d+zh86suYXpGCn/6n68PKPvu03/hnZ37BjzWZurkkRdf5X9u/zwhgQE8dPetg655oqKKrz/6R7rMbn5/vbv9yz0EVoEGHVFhIb11hs9L3XdKQUmtgow4J9+81sl9f1RgMnuuP9Z8yc62Nt7+47Ncff99BAQFcc0D9w+qU3OqhBf/96duj3Aarv+iT3az9p67AchduoTtr7w65Hj6Alprt5n2xpHf9Swp6Wy+6pFjB9wem+ZLBU1aStrVZATb+Eaeift3hWEa4W0550RYuTzeFYC+XBGAfZKfZfnqay9gtvg3x3M4ht6sBavjwsifFUJ4NqG34vQlp9PJtx+8n7vvvp/ly1cTEhJMXV0dH3zwLi+++Fe6u7t5+OGHuOerDxAZFUVV5cCDuPuOUKo7U8vzL/yFuxvqueTS5YSHhVNXV8tHH33ICy/8lY4O97mbY21/vsqqcnbv3Ub+jHmYuzp5572Nwzc6xwvvbMbhdHLTqktIjIrsPxO0T9l5gda5t6H0xvntzVYr63/6CF9at5pV82eREhOFVqPBYrVS1dDErsNFvPDuh9Q0NHt1/V8//zKNLa18duUlRIWFoFScffOu8BAAvrTpYyrO1HPrlSuZlp5CYICBxtY2yqrP8Ma2Xby/e7/HEwFSYodeXk/tPQ8VvMtLdTjh0TcUPH6nk6QIJw/fYueH/1TR5mHSPzKpdwf6GHaM733rXRorq1l8w/UkT81GH2jE3NVJ7akSDm3ZSuGmD3F4SMkYrv/W+nrqSsuITU9j2rLhA9C+Jf3G6tEF1MmJ6f1fHzy0b4iavuFwwqPHg3h8XitJATZ+ObuVHx0Ioc3LjUSzI6z8b34bSgUUt6t5rWLyHyE02YJPgPbemc+4ADtapROrj08SEEL4jiIuJlNyuc9jMBj48MOdrjvA3H8X+wpGNjM71vbi4rVyhpPv3+BAqYDWTvjHxwo+PKSkdeLS6i4Id97xTSLCo6iuqeTFfzwzYeNYGWfme9PaXb8/q5J/lgXwYa2eVqv7QDQr2Ma1Sd2sie9GqYDabhVf3xNKk8W3G5AuVrkhPTy5wHWL0V2NOjaUB9BkUdBkVcmyvBAXGFnHcCMpOeXsETwVng+R91V7cfH68JCC77+opL1bQWgg3Helk3uvGP3GsE+DgAAjEeGulIiDByf2w9yHtXr+50Ao7T1KQrUO7s02cW+2yWP9ZxY2c0WCK/g80Kzh/t1hEnyOwbE2DW9X6wFYGGnhkbkt/HVJM6tjh8hnEUJMShKAutG3g91kMtE4iny1sbYXF7e9JxXc8jslL21XDpkHKlySe/M/LRYLRSd8d/MKb+1t1HLrtgj+XR7gVR5oqUnNQ4dC+M6+MI8zpcJ7jx4N5jdHgzjWqqFrhHm4QojJ46LNAR2L5N4AsqJi6OOBfNVeXPxMZnj2fQV/+VBFrPuDIUSvvg1Ix44V0uNmw9REMNkUPFts5C+nAok1eJ7BvnNnOGUmeZkdT07g3WoD71ZP/jxaIYRnkgMqhBBCCCH8StaDhBBCCCGEX0kAKoQQQggh/EoCUCGEEEII4VcSgAohhBBCCL+SAFQIMSoKhYLM1FhmTksbvrIQ4qITEGAkLDQcnU4/0UOZdKKCITbUiUE7cfu8Vy6bTnioccL6H46cDyKEGLEp6fF85op5xMeGUXCwlMIjcuSYEJNZXu5M1q29CYfDwW9++8NRX0er1bF08Ury8mYSEOAKbj7Y9F/2H/hkvIZ6UfjJ5x1MTXTidEJJnYJ/71Dw4SH/nlu7bvUc1q6azd7CEt76oIB20+S6va7MgAohRuTy5TO557bVxMeGYbPbOdPYNmT9qakhHH7hM5S8fAOPf32+n0bpXqhRy4yMcIICNRM6jguVPH+fbkqlks/ddAfz5i3tDz7F0BQKyIxz8oMbHdy4eOSzoWN5/ayubUahUDB/ViYP3nsNqcnRI+7fl1RBxvCfTPQghBAXhrWrZrPmsnwUCgW7Cop59oVNFJ2qHrJNY6uFk1XtrF2USHZKCNX1XRyvGDpo9YWpqSG889s13Hp5Ol9Yk867u6ppM1n9Po4LlTx/F66oyBimTs0nJiYep9NJV7cJk6kdq3Vkv7+crGnMnbsEgN17tvH6G/9ky5Z3qa2r9MWwL2hvFyj4x8dKth9XMCXeSWQw5CU5eWWnEscI4tCxvH7u3HeCE6eqSU6MIjI8iNnT0jhxqob2jq5R/lTjy29L8MFBoSycfxkhoeEA1NVVs23He/7qXlyAViRm8NjStW7LDjbWcuumV/w8opFZMTefx755t9uygydLufUnj/h5RGOTl5PEqktmAPD6u3vZsvOo12037a3hN/88wndvmc7/3jGTfSeaqKjzfA91gCXTo3n+R8sAmHvHf2npGFuwszAvigCd6z7swQEa5mZHDDuG8TLeP8tEmMjnT4yOVqtj7ZU3kpWV1/+YUqnk8tWfYdWKa9izZyvbdmzC6fQuIoqJTQSgra2VLVvfGba+3mjkBxteclvmsDvoaG6iZH8hW196mebaWo/XUaqUzFyxnBnLlxOXmY4+0Eh3RzsVR4+x/dWNVB47PuL+eyxmmqprObRlK59sfANbz8D/yeS8XL7y218P+zOe7+fXfxZLl2up22aHk7UK/vCuksfucBCgg8QIKKsf2TVH8/rZp7yygSf+9BZ33bqa9JQY7vjCCv7vyY2YLRN/Vzm/LMFnpOewauU1vcGn3HhJeCctyPM9KsvaW/w4ktFJi4vxWFZWU+fHkYydWqXixnULAThwuHREwWefZ98o5uXN5QTq1Tz29Xlo1P7Nh9q0t4ZT1R04HE6OlbWypfDC+h1MNHn+LjzXXfvF/uCzoaGOw0f2c6L4CGZzNyqVkkWLlrNiufsP+e4ola6QobPLu+AnKinR87VUSkKioph9+Wrueeox4jLT3dYLCgvjrt89wnUPfpOM2TMJCA5GqVISGBpK7pLFfOWRXzF79coR96/R6YlNT2PNl7/Elx5+CJV64HxcREK8Fz/hQB0tLf3B57nazplwVIwy6hrL66fFauOvL31EV7eVEh6jlAAAIABJREFUkOAALl8+c3SDGGc+nQHVaHTMn7uU+PgUAMorTgIKUlMyfdmtuEi8VXGCXWcGLu38/tJrCNMZKG1vnqBRee+tHXvZdeTEgMd+/937CAsyUlp9ZoJGNTr501IIDQ7E7nDy3/f3j/o63/9DAd//Q8E4jsx7lfVdXP7N9yek74uBPH8XlpSUTFJTXe+1Wz9+j127t/aX6fUGbrjuVhITU5kzexH7C3fR0tw47DWtVnNve+92vUf2BoBWs4Wn771/QFlgaCjTli5h0XXXog8M5Or77+PZbzw4oI5KrWb9L35GbHoa9p4edr3xJicLCrB0dpGQncWq9begNxpZ98C9FO3eS1d7u1f9K5RKIuLiufTmm0jOnUrKtDwWXns1O17d2F/n6LbtlOwvHHA9Y2go9zz1GACvPfrYoHK7zeb2eQjQnf260+zx6RrWWF4/TZ1mPvz4EFdfPpeFc7J4d/MBLFb34/UXnwagUVGxxMenYLVa2b9/B5XVZcybu8yXXYqLSF1XB3VdHf3f61UaQnuP+7gQAtC65hbqms/O1Oq1WkKNgQCUVntebpqMZk93zU6cOFVNS5ssuwox2aWmuP5nTR3tA4JPALO5mzfffpm7v/Id13FqGTnsbd4+7DXNZtfsnk7rXQAanZQEQGNVJc01A1/zmmtqqTx2HLVOx/y1V5KUk01QRDgdTWdf2xdcs47Y9DQcdgd//8GPKTt0uL+s6kQxNcUnueux36LR6siaN5fCDzd73X9TVTWlhQf51vPPERQWRu6SxQMCUGu3GWv3wGgxIj6u/+vKY8dpbxw+aAcIPOfpMlm8auITewpPcdXqOeh1GqZmJU346SU+zwE9c6aaPQXbMHdPjqTXiRIfEMwXsvJZEp9CQmAQChSUtbfwZkUR/yo+SI/DMWT7vPAYPjdlBvOiE4g2BGK1OyjvaOad08X8s/ggNg/tX7vyi2SGRPDQvs28WV7EbTmzuTIlm4TAINosVjZVneSpw7vosHr+r1ArFVyTlstVKdlkhUYSrNFhc9qpNLWzo6aCPx/fS6tl6I91ox3/udKCw1DgWnYYaQA6IzKOz2dOZ3ZUPFEGI1a7ndL2Zt6uOMHLpw4N+/yPh7T4GBSK3vGPcAk+Ly2Fz625lHlTpxAdFoK1x0Z53Rne2bmPf763BZvd7rGt0aDn1qtWsmbBbJKiI+no6mbvsWIe//fr1Le0suevj6NSKvn8D/+PY2WnB7VXKCAtOQqAEyVDbziabD7+/ZUkRAa4Lcv94n+w9Hh+3sD1s39mWTLXX5ZCbmoowQEaHE6ob+nmo4I6/vj6CaobB7+23b42kx/elu/2mvueu3rQY5v21nD3b9wfY5OdEsId66awMC+K6FA9VpuDiloTH+yr4W9vl9De6T6f9M/fW8Ly2bE8/VoRT7xyjC+vncKNK1JJjAqgo6uHjwvP8MQrx6is9/zaPJbnbzz616iU3L42k89ckkxqnJGOrh72n2jiyVeLOFbW2j++rz++hzd3+GYjTEZ8EHdcPYXF02OICddj7XFQXtvBu7uref6dEjrN7meRxuPnHwuDwfVh19TZ7ra8ra2VHTs3o9VqvZr9BLCYRzcD2nC6ymOd4t17mL/2SgCCwgYGoHMuXwPAgU2bBgSffSqLTtDdYcIQZMQYFjri/m09Vkr3F5K/cjnGMM8pX32ikl0Brd1mHzJn9XzG3hlQpxO6xzADOlamTjM1dc0kxUeQkRI9ogB06ZJVzJ29iK6uTt58ZwM1NYPfK0bKpwFoQ0MtNTUVvuzigrAmaQoPLViN4bwck5ywKHLColgWl8q9W1/3GAR9bcYi7sid2x98AWiUKvLCY8gLj2FJbAr3bn0Du3Nge6VCQXJQCAAtlm7+vPwGpkeczUuMMqi5eUo+eeEx3LZpw6D2AEEaHb+/9BryI+MGPK5VqMkIDicjOJwrkqdw8wf/pqG7c1zHf76MENcGNqvDRk1nx5B1+yhQ8ODMpazPmTXgcY1SyfSIGKZHxLAsLoV7P34Dh5eJ+KOVkeh6Dq09PdQ0NHnd7ms3XcMd11zeH7wCaNRq8tJSyEtLYcmMPO799VPY3fz9JEZH8uz3v0ZidGT/YxEhGq5YNJdpGak8+PifUPXmdZXXuk8LCDDoMOhdr6C1Z1q9HvfF4PFvLGDtooF5ZEogPjKAL16ezo0rUrjjlzv45GiDT/q/4dIUfnH3nAH5Xhq1kty0UHLTQvns8lRu+dm2YTck/OLuOdx4WUr/97oQFddfmsKKOXF87kdbOFXt3f/TaI2mf41awV/+ZwmLp0UPaLdmfgLL8mO49aHhZ+zG6sqFCTz6tflo1WcT97RqJdPSw5iWHsb1l6Zyy88+5kzz0OcrTsTz3zdbGR4ejU6nw2IZPMmwY+eHI7qm1ea6hkqlRqlU4hjmg3tUYm8AWOn5w4Fae/ZIr862s7u7DUFGolOSATi+w/MZoyqNq31X2+Cd4V71r9MCYGoZfl9BVO+ManNdLQ6795MWfT+i1c6IdsD7Qu2ZFpLiI4gMD/a6TVRULEsWrwBApzdw+epr+evfnxzzWHwagPb0XHg7Pcfb7Kh4/m/RFaiVCkrbW3ju2F5OtjURotXzuczprErKZEFMEuuzZ/Pc8X2D2t+ZO487c+cBsKO2gpdPHaa68/+3d+eBTdb3H8DfeXI0SZOeSdv0Sk/aUiiU+wY5FFAEBd2mqOAP51CRn+7ntt/mnPPYnNPpPLe56RSG/gAHqAhM7rMIFGg5et930zNJk6Y5fn88Sdo0SZu0TQvl8/qHluTJ8+UpTT7P5/v5fr7tiJUGYmP6dCQHyTAzIhZ3xaViT+k1h2MVYikEDPsjXhk3Fh1GA9Yf2oni9mZEiKX46cQ5mB4eg4zQCCyMTsB3lUVO5//ZpLmYIFOgy2zC36+dx+nacjQb9JDwBJgbqcRP0mcgTCzB+tTJeP3i8SEdf28JAewdall7q8fB4sZx0/FwaibMFgv2lF7DV6XXUdehQaR/AB5Nm4zZCiVmKZRYrkzBN2V5Hr3mQCVERgAAymoaPB7/hpVLsWHlUgDAqctXsf3QSVSrVIgNk2PjvcuRHBuNmeNTcdec6dhz3PFNms/j4b3nnkB0mAxdRiO27j+CQ+cvo0WtxpiYKDz7o3vwyJ2LAQANza3o0LvOgotE3QVMHboRnD8agMdeO+0QPExPl+N/Hxrv0bGLpijswefJnAZ8/E0hqhq0YBgO0uIC8d/3p0MZ4Y8Pn5uJ2zbtd1jZ/tXJSpy/3n2TMSEpGL/dwN4EPfTyCai1jitQXWUxU2ID8bufTAaPy0FpjRof7MpHXkUbJEIe5kwIx4YVyYiUifH+szOw4ucH4e6/VJoyEOMTg/H0W2dxMrcewVI/rJgdjadWj0WQRIBXH5+EH7xwzOWxg7l+gz3/+uXJ9uDzUmEz3vvyOkqq1ZAFi7B6fix+sXYcuIzvFrLFhvvjzU1TIeAxaGrrxNs7riKnqBUBYj7umBGJB5ckICFSgreenoYHXnR9/Qbz7x+ssvIiTJ82DwKBAEtvvwdf790Bs7nvjH9/BNapd52+o9/gk8vjIljB3nSr+ggAU6axvS3bGhvR1th9IxcRF2f/uqakxOWxgXI5BNab48Yqx9kZT87P5XGROJGdqSi+eMnlc3qSWQNaVYV32fYWa26GzwUEPGAkSy9t7+GinoWp/RCLHGdBRGLXsyLeop2QfOyXkxeAx3BwWVWL9Ye/dJhqPltfiffm3Y15kXFYmTDWKQCNEEuxcdx0AMC2gst4Lbv7TaqgVYVTteX45s51kIvEWBAV7xTAxQV0TynwGAY/PrIbFmsXgtZOPZ499S0Or/wv+HF5mCSPdApA/fl83KlMAwD8/sIx7Cy+4vD49ZYG6IxGTAmLgrrLOTAZ7Ph7iw9gM6CeTr8rxFJ78Pta9nF8UXjZ/li1th0XGqux444fITlIhtkRSp8HoPHWALSkxrOpm4iQYGxcza5Q3XbgKF77bLv9sYLyapzKuYZv/vQS5EEBWDBpvFMAuua22UiIjIDZYsEzb/0Nxy91//wq6xpRXFWD3X/8DQCgtNZ9SQCfy7V/bTbdXF0s8iscsyIRMpHHx84ez84WqNr02PD7U+jqkfEorGrH5cJm/PJhti3VmJgAnL3WPY3Z1NaJprbu34mAHo3br5e1etSG6ZFlieBxOVC16bH6+SNo03QHrd9fV6Gwsh1vb56GtLhAzBgrd5uFXThZgYdePoHTuWzvlzZNF97dmQc+j4sn703FlFQZlBESl1nUwVy/wZ7/voXsFq+FVe344QvH7Ne/vF6LC3kq/HrdBExJlcFXHl6aBD8+F3qDCWueP4KK+u4ZntNXGlCr0uG5B8Zh+lgZMhJDkFPs+n1pMNd/MMrLilFeUQxlbCJSUzMQHhGN778/jut5l11mQ/vC5TKQyxSYOmUOACA3t/+FMCGKSDBc9ubF3RR4fMZ4TFjEZtbO73Nsyyi3Zj/1HR1Qq1zPGMmVMfavG3sFhZ6c//ZH10MokcBsMiP3qHMCxel8sf1nVF25XMpBswYIkQAbl5rx2VEGrVq4vWn0JduNQ8/39f5UVVdApaqHTMa+J168+P2QjIUCUB/KCA3HmCD2DfKlc4dd1jnuLc9DapAMAsa5N8OqhDTwGQatnXq8eemE0+M6oxFn6ytwV1wqgv2cPxiU0u6amN9nH7MHnzZqQydK2puRFhwGEdd5Z5PEgBDwrBmG07Wu6z225F/ElvyLLh8b7Ph7S7BOwRe3eRaA3hWfCh7DQYW61SH4tDFbLMhtqkdykAwSgcCj1xyMBOsUfLGHC5BWLZgJPpeLVrUGb2770ulxXacBZ6/k4a450xAc4LwryfI5bGbh5OWrDsGnTVltA1QtbQgLCUJJzc21Kn842DJ/Dc16h+DTprxe67ZucyhMSgkFAHx7usoh+LT5+lQlXnosEwFiPjKSQtwGoIWV7fbgp6fth0rx5L2pAIBUZYDPenoO5Px+fC4SIiXW55W5vP5bDhRj3XLfdVSZmc7WPe89U+UQfNr845sCbL5/LAQ8BlNSQ90GoCN1/S2wYPeebbhv9SOIjIxFcFAI7rh9FRYtvBN5+VdwOutIn7WfD63diEhFjMPf6XQdOH/hNI4d778bgsxaL2nrMRrSYwGPNCQESZMmYc6ae8BwGTRWVeHkzl0Ox4fFsgFoY7n7YC9cyZY1qJuaodc6/ozcnZ9hGIQoIjF1+R1Incm2lju5c2e/QSXfzw8BMvbzvLHSu1p4gxH4xRYG/7PSjBVTLVg5zTET/c5eBrvPDm9bOm+YTEZ8tuVDxMTEQ6tVo76hZkhelwJQH5osjwIAVKpbUdjm+g5uX3kB9pUX9Hn80ZpSt/WhjLUusN3gXNlsy4CWtLegQu26do/HsHdBKr1zIby+x8KWu+JT8I9rF/qt0xzK8ffEZxhE+7P1rJ5mQCfJ2D5uR6pdT98AsK+qV7mpXx0qfB4X0XL2zauk2rMFSJNT2Q/XoxevoMvoeuqMsd4gtGscf362GlEAOJad4/YcAj77FlBKAaiTvHL2dyZVGYg1C5TYc7ICXcbhS1mESNkpsqpG94tUquq1GBsfhCCp+xuo0lrX9YU1Kh2MJgt4XA4kQt9trTmQ80vE3R9NFQ2ufzcrXQSFQyk0iL3+JW7qM7uMFpTXaZAcHYDQQPfTmSN5/fV6Hf71+d+QOXEGpk2bgwBpEHg8PsalZ2Js2gR8f+4Ejh33fEOYjg4tWlubPZrKl0ez7/8cDgeb/vaB2+fVl5ZiywsvwdhrIaxtwU9jhfvFLrbnNLh4jqfnP/XlLhz8dKvbx+2vFxNtr8Pvq6TAnaom4EoFA6nIAkXwzTWTBABdRgNKSvP7f6IXKAD1oaRANuC43jqwBQq27Glei/ttE2KtWc4KtXMBtq2Re0Ef54/yZwuRy9XOBdhFbU0obm9GYkAInho/E+tSJ6OwVYVydSsK2lQ4U1uB4j6CwcGOv6cYSSD41iyxp03obYuWHhgzEfcnZbh8jp91GqLcTYA+VGLC5ODz2HN52oR+jHW6J6/M/RtwbASbpamod/wZxynCwbNOPxVWus64Sv3FCJKyWaaym6wx/nDYfbICP16VgiiZGH94Ygp+uyETxdVqlNWqUVjVjrNXVTif1+SzxWtcLvth98uHM+xT/e70VQqp63R982e2WKxj54Djw+TLQM7P9PgLd4s9TD5ezcG3ZsD7WunfaWAf43HdX8CRvv5msxkXsk8j++IZxMclY/z4yUgZMw4Mw2DG9Png8Xg4dHiv03G7d28D13qDyuUwiFBEY+GCZVi86C5YzGZkX8rq87wyN03gLRYLOrVa1JWVIffocVw48B1MXc4ZftsUfF+ZybBY9ia79/R7X+e3ycs6i6P/+gLVhYV9Ps/V66kq3a/qd+fVBy3IjLcgu5iD13cxaNJw7AuS2n17L3XDogDUh+ID2QBwILv2BPCF9mnpvo6PswaZpS4CSNsUvLvjI8RSiHnsnXeZi+eYLRY8cXQPfj31NsyKUELCFyBTHolMuXWHiEw2g/v82e/Q1euOeCjG35Nt+t1kMaOsn+cCgB+Xh3AxG1zxGcYevLpT6uO+oglRbP2nyWxGWW3/+7AF+IsRbA0OS92sTgeAOAX7ur0zmEpF98phdwGvrSa1r+cAcCrduFVoOoy4//mjeGH9RCyaooBQwEV6fBDS47tLWwor27H5ne+RPwJ7249mPWN6jpvomvFl1DYKWSwWlJQWoKS0ALLQMNy7ai2CQ2SYMnk28vJyUF3jGMSpNY7/p5uaGyEW+2PhguWYOmV2vwGobcX46V17sO+vH3k1VqFEAqm1LVJDH1PwtprMhgrnbjuuzs/l8fC/2z+Hn1iE2qJij4PPnq+nbmqGvsO71lnJCjb4BIBXdrL1nyPN0+1XfYkCUB+yBVcDaZpuC14B9wGcXOQPCV9gfY7jOYRcvj0Ac3d8fED3B2mZmwxgbYcaTxz7CoECIdJC5IiXhiA5KBSzFUooxFIsU45BqboZf7niWJQ82PE7j5UNQKvUbR71DFVKg+xtn27b/Xc0uSgxGE7xUWz9UVV9Y589O7uf3yM4rHIdHMqDAyERsSUEpb0WNsmC2HIFi8WCdq3rf/uCzHEA2FrShhb3AVRXjwwQn+954fpoUNeswxNvnkGAvwATkoORGClFnEKCqSkypMYFIjkmAP/85Rws3nzAbT/IwXrl08v4ZK9zh4rRTKPrzohFyfxdPic6bGhW4t6KVE0N+GL7x3jssWfB4/KQnj7ZKQB1pb2N/ZwICGR7Mvd1cyqzToGrqryfrra1XwKARhfBJQAEyGQQ+rP/NxrKXGRAXZzfZDSi8MIFjJs7B2PnzMbhrds8HpO9JGAA0+8x1rVyBiNGPPjkW7PaXV0juwsSMEx7wd+KQoRie3DV3/SyK3ESNjg0mI2od7PvblowO/1qgQXFvWpMlQGB9gDMXcYwTsoGdSq91uUq9p7aDHpk1VXi88LLeOncYaz4ZgtymtjAaHaE0un5gx1/bwnWsZZ4kP0EYO9/qjMaRzz4BLpbMHnagD4unM1gGrq6UN/i+uYgTdldZF9c5RiAGq1bwnE4HKQonaeiIuUhWLOI3ZWsrLauz7vhnq2XJP6eNaAebdq1Bpy4VI9/fluEF/9xCXf+7CB+/gHbtSIsWIiFkxX9vIL3TNaOA2K/Wy9PoDeY7ItyVs6NcZntXDUv1unvhlKXkb3R9evjpsv2mPEm6w4BAO3qVpSUsDV9cllYP89m2VaVc/rJPktDgu3BoaqPJvTu2PZhNxoMaG1wXUKmSIy3f907A9rX+fPOsJnb8DilPUj1hK0FU2OV9/8e62Wz/zmSpNb3cO0N0FLvBrgco5Mt+AQAg5uC7fmRcTh496PYv2I9pALHIvYgITt93Wk0ub3LXBLDLlIpaFGhrVcBd5yEzUBaYEFZu+sAxpaldJf97IvBbMTVZnba1+hiYdJgx99bgpflDCF+bHZkKKePlbGJWL58DW5bsAxiseusjDsJUWz7Ck8X+wRZV7V3dhndBodLprF9JQsqqtHWK8uZW1xm//rNpzdg9oSxkIpFkAUFYPmsqfjgZ0+hvK7BozHp9Aa0WYuUoiNDPRr/rWDn0XJ7/05fZOOa1ezvRGKU5w2jR5Mvj7JBxcTkEHz4PzOQHh8EkR8PMWFiPH1fGhZkKtCq8V2vaVUre/3jI6UuH+dxOVAq2N9TVdsIbm/jglQaiKc3PY+nNz2PlJR0t8/rtL7vchjPZjaE1kWbhk59n++ttulqYGABm0jCXlejweD2/S91Btvir6GiAjq1Y5Kjr/Pnf3/eXlecPneOR+PhMAxk1qB4IAG11vrxxmUAP9+t9/NIVASbzKlr8O5zXyINgFwWDrksHIGBzrtODQQFoD7SpNfaFyfMiXC+Uw/yE+KZiXMRJpbgYmON01aYrZ3sLhZSgR8yZM7ZlenhMbgrjm3hsaPYucWObQV8fYcGepNzgTfQvUjJVf3nxnHT8e9lD+JPs+90eayIx8NcBXsHmqtyDmAGO/7e5NZt5TyZfgeANuvWoGIeH5NtNas9+HF5+PmkeXh5xhLMUjhncHsLDpHhvjXrMT59EqZNnYt7Vj7o0Ths5NYpcaOHu2e0Wt9QpWIRMpITnB6fnp6Ku+ayb8A7Dju3uMovr8Lh82zrqZhwOT782VM49dGbOPz+a/jdE+vw2beHILLuAOLJoqjicjZYHZfq26zTjWTbi/Ox/80leGH9RJePR4SIIBWznybtWte/YzadXd0/9wB/z1p+ZeezswLLZkZBGe58wyMLFOK1jZPx+pNTkJkc4tFr3kw++qoAlwrZ0pzFUyPx1R8W4cqWlTj63jI8eW8a3tp+1b7QzheyrG2t7pwZhUgX25E+emeyvVXXueue72w2HLRaNTgcBiKhGBnjHXehs+FyeYiJZt/DW1o824rT1ohe30/XEtuCHb1GA42bGZy+aFvZY4QSCaLGjHF6XDkuHZlLlgAALv7noFfn12s0KMtlt/VMnz3Lo/EEh4fbd1wayBR8R4/L5e95//chFy4PhFxm7SZT5l3nk3tWPohH12/Go+s3I31sZv8HeMCncztCoQg8nmO4z+exb748Pg8SSfedvcVihlbrmz50I0Hb1YWsugrMUiixKWM2JHw/HK8tg9FsxviQcKxLm4xIfyma9R14K8d5S7msukoYzRbwGA7en3c33s05jdymekj5AsxRxOHBlIngchhcVtXiy+KrTsfbF/f0kTFMsNZVunpOa6ceSYGhSAoMxeuzlmJn0RXU67QQcLlICgzButRJiJYEoNNkxI5i5z16Bzt+V+ORCf1xT0I6ClpVqO61v3GVptUhi5pVXwmD2QgBw8Pbc1fgjYsncElVCwbsvvDr0yYjISAYdR1q/P780X7PHx2pBLfHh11UlBIMw/V4Z5FWTQdkQYG4Z8EsFFRUobrB8QOrqqHRIYuZdSUPRpMZPC6D9597Au9u34PcojJIxSLMmZCOB5ctBJdhcLmwBF8ePuXynD9//xM8ff/duHveDAT6i9FlNOJSYQk+2r0f568X4lfrfgjAs6zsuUtFmDQ+HjGRoUiKi0BR2fCumk+LC3LaPagno9mM62WOpS7hISKEBTmWDCjDu/ulpicEoatHYFher3XYkSi/vBUPL0tCckwAJGIedh0tR12LHgI+g9TYADy5Og0cDgdGkwUnLvd9DfMr29BlNIPPY/CbRyfgr7vz0aHv/r9TrepAc7vjTein+4qxekEcBDwGO165DW9tv4qcohZwOBxMTArG46tSECkTo7m9Ey//07nP7WAN9voNlsFoxkMvHcem+8bi3vmxkAUK0WW0IKeoCW/vuI7TuQ0QCnxXk/zZ/iI8cHs8RH48fPnqbXh7+zVcKWlhd0KaHoUHb2dvDM9eU+FKifcLTX3JbDbjypVsTJk8CwnxKVi+fA2OHdsPjXUL46DAYCxatAJB1pmlq9f63wUI6N4D3tDZdwBqy0B62y/TpujCRRgNBvAEAjz86m9x8J+foiq/AEKxP5KnTMLMVSvB5XFRX1aOM3u+9vr8189kIWHiBCiSEhGiiEBzHxtxAN2LndjXHHgGFADEQqB5hEKd22azdf/tGh3yiz3/2QgEfogIZ8sVTCYzcnKcd20cCJ8GoBMnTEdMtHP2BgBkoeFYdsca+/eGLgP2fNV/L66bye+zj+PTRasRIhTjsfSpeCx9qsPjNdp2bDrxDRo6nKuS63UavJtzCs9MnINAgR+en3Kb03OyG2uw+cTXLntzKq0LjNzVf/rz+fasoqsM6K6Sa7g3YSxSguVYGjsGS2Od70I7TUb84swBVGqca1wHO35X43kucy7kIjHemL3M6fHHjuzC2fruO9M2gx5vZJ/EL6csQKDADy9PX+x0TH5LIzaf2IsOY9/ZKwBobXUMGNWaNq+2tdt19BSeW7sG8qAAvPH0Bufx/+4dnL3avRNTfXMr3v2/3XjmgXsR6C/G8+t/5HRMdn4RNr/5F5d7wANAp8GAP27diT9u3Ql/kR869N3TWenxSntbqBIPGuPnF9WgurYZUYoQ3LdyFt7+6zfQ6Ydvq90tv57b5+PtHV3IXPeVw989siwRj69McXvMjpcXOHz/1J+ysC+r+035jc+vYnxiMDLHhGL1fCVWz3edKf/D1lyXjcp7Umu78Nc9BXhqdSrmT4zA/IkRDo+/+PElbNlf7PB3+RVteP5v2Xjlx5MQGuiHVx6b5PS6LWoDHv/jmT6D84Ea7PUbCh2dJvxhay7+sDUX/kIedJ0m+8wSn8vY2x/5YoeuinotfvruOfzp6WkICxbid487X//SGjWeeWdodoUZasdPHEBkZAwiFTEYl56JcemZUGvawGW4EIu7bySyL2WhrMyz1eB8Ppu+c9eX2GYw9ZIAuyf8t3/9G1Y89STEUinu3vSU03OYZhByAAALT0lEQVRqioqx9Te/ddnCqb/z5505izs3Pg4AGDtnNk7ucN7ooydbQGvQ6dGu8ixb3FPPrTeFfLb11nAbkxiJaZls2duRk1e8amMWGxMPxtpJpqDoqv1GZrBuver2YVSubsH9//kcj6VNw9zIOMhF/jCYTChub8KhyiJ8UZQDndH9SrRP8rJR3N6MB5InYGxoOCQ8P2i6OnGtuQFfl1/HvvICtz0IldZFQK6CS6B7ARLgOkjVm7rw8KEdWJc6GYtjkqCUBkLA8NBpMqJK246sugpsyb+Imj7+Iw5m/L1tyb8Is8WC+5PHI9o/0KmtUqnaeRX9F0U5KNe04KGUTIwLiYA/XwCVXovSthZ8VXYN/6ks8nhKv7KqDGfPncCEjKnQd2ix78Cu/g/qOf59h9nxL56HaLnMHvzZx+/iDvyTvQdRXF2HB+5YgLEJSkhEImg6OnCttBJfn8zCvtPnPb5+vQvO52aydWHqDp1HjfEtFgt2fHUamzYsR1hoAH68djH+vu0QtB0jX8juK1q9ET968RjuXxiPFXNikRIbAKmIB6MJaG7XI7ugGZ/tK8L31z37QHrr/66isUWHtXckIk4hBZ/X/4fQjiNluFLagkfvTMaMdDnkQUJodEZUNmiwP6sGXxwqcblL0mjUu8uArf4SANqGMPPa076sahRUHMSGu8dg1vgwhAcLYTCaUVzdjn1nqvGv/5T4rPvBYHV1deHzL/6OWTMWYGLmdIiEYkglgfbH29pbcPbsMVy85HkArdOxszTBQSHgcnkwmVz/22Ux1hXoA5iutjm3dz9UldWYtfpexKalQOgvgb5Di9qiYuQcPYZLBw+57RHb3/lbGxpQV1KKiIR4jJvbfwBqm9JXVQ8soI7uUTo/Emt/xiQqsP6Ht4HD4aCypgknsvre9rq32JjuROKli3233/IGRxGedPMt3yOEDFhMhBxfvPwLSMUibD94Aq988rnHx07KSMDa1XPB4XCg0epx8HgOLuSUQKO9sRZhkNHvd49Pwg8WxcNstmDKhq9vmUB8IBiGQUbGFNyxZBXMZjM+/uTPaG5Web1IMyoyBmsf3AgAKC7Jx7lzJ6HRtEPToUGnXueLod+0woMAfyGQEG7BhsVmhAUC1c3AQ28PXyu7mMhQzJ6WimmZSeBwOGhq0eCdv+9Fu9q7n9X6RzYhLEwBVVMD/vHx20M2PsqAEjJKyYMDERbUvVoxQCrGhKR4PLRsEaRiEVo1Wvxll/MOKH3JzilBh64Ta9fMg8RfiFXLpiEmUoatXx4f6uETAgBIjg6w13pyOBxEykW4e3Ys7pjOLi78+lQVBZ/9MJvN0FmbpzMMg5bWpgF1CKmuqcTlnHOYkDEViQkpSExgSzS+O/g1si+eGdIx3+xeuN+MtOjua2w0AX/+ZnjXfT/7kxX2rwtLavHZjmNeJwuEQhHkcrZk6OLFs0M6PgpACRmlNt23Aqvmu17l2djShk1vfghVa7vLx/uSV1iNV9/6NxbPG4+ZU5IHO0xC+vTuM9ORHOO6FdX1sja8+LFnC2jI0DhwYDeqayowMWMqZLJwCAQjuKz7BmcyA20dwOUyDrad4KC4dvhrP2vqW/DdsRxcvlqKgWx+FBubAA6HA4PBgKvXsod0bDQFT8go9dkLP8XElET791qdHqW1dThyIRdffHcMajc7JHmDy2UQEixFo4q2oiS+sf/NJQ4BqEZnRHG1Gt+eqcLWA8XQGzxfDEjIrUQRFozahsF1aFiyeAUmZc7EpUvf48B3u4doZCwKQAkhhBBCyLCiRvSEEEIIIWRYjcoaUKFo6LfF88bmp54f1PF/fu+VIRoJIYQQQsiNhzKghBBCCCFkWFEASgghhBBChtWoDkBDBUaEC40QMgNfZ3XfTAPCAz3bLYcQQgghhPRvVNaA2vxqbCNSpJ2wACjRCPDv6kAcbfD36jXWL+jEI/M7cSiXh38eFaJFO/x9vAghhBBCRpNRnQG14QBIlBjwXEojVkV513i7pJ4LhgMsyTDivf/SIi2aes4RQgghhAzGqA5An72kwMqTSmy+GIkCDbtbw1plC/heTMk/9bEYP/1MjLJGBsH+Frz6Ax2SI2hKnhBCCCFkoBihUDTSY/Apo4WDIo0A/ygJBgCIuBZECr3bN/h6NRfPfirG1UouhAILfr2mAyKBL0ZLCCGEEDL6MZ98sg3h4YqRHofPtXVx7V8zAyjj1Hdx8Mq/RVDrOJBJLVg7t3MIR0cIIYQQcutg4uLi8cfX3waXy+3/2TcxMbd72lxrHFjlQVsHBzvOsKnPpRMNEPJpF1NCCCGEEG8xJpMJyWNSsHDhkpEei0/583oEoKaBl75+l8uH2QKIBMC0JONQDI0QQggh5JbCnMk6BQCYN3fByI7Ex8RcNltpAaAbRADa1sFBSR17fHqMdyvis84ew18+egOfbv0AtXVVAx4DIYQQQsjNjKmqrAAARCgiR3govuXHsBlQg5kD8yBnzksb2XIFRbDnL9TU1ICz506gs1OP1tZmHDm6b3CDIIQQQgi5STEyeRgAQK/Xj/BQfKvVugiJz7FAMIidkQBAo2dXMUlFnr9Oh07n8L2u1/eEEEIIIbcKZt7c+QCAqqqKER6Kb+W2CdFiYJvKP5bQjCC+CQPd08hoLSflcz0PQBWKKISEyu3fZ4ybNMCzE0IIIYTc3HgCAdug/fSZUyM8FN8ymDn4zdVwPJ2kwtIINZYr1A6P/6UoFF/XSn12fh6Xhx/e9yiqq8shFksQJo/w2bkIIYQQQm5kPABoaWnG2azTIz0Wn6vW8XFNLYSEb0aEcPhXsPN5fMQpk4b9vIQQQgghNxIeAGzf/jkMhtHfWP2FsfWYEKTHpVYh3i6QodnAhdnCTsS3d43qXUkJIYQQQm4YvNbWFuzYsW2kx+FzSRIDJgSxC61ez5M77Iw0YJaBVpESQgghhNy6mI8++gBarXakx+FzUSJ2/3eDmTPo4NOPz/7Z2UU7IRFCCCGEeIvZs+ffIz2GYcGADRZ5QzDTHiRmX6tdT9P2hBBCCCHe4plM3u3mc7PqsO5+xMACP64ZnYPYDSkxnL1mFY3evYZGo0ZnJ1sGwOcLEBAQOOAxEEIIIYTcrHgjPYDhojN112uKuRZ0DjDujpWZERXCNgLNrfTu8u3dtxN19dUAgJkz5mPalLkDGwQhhBBCyE3slplD7jB1132KueYBv8490wwAgBYtB9klnl++rq5O1DfUAgAYhkH62MwBj4EQQggh5GZ2ywSgnebuDKjQix2MesqMM2FJBruYaWeWwN7CyRNV1RWwWNjANykhBf5iyYDGQAghhBBys7tlAlDbKngA0A6g/nNinAm/Wq0DwwGKahnsOcf36vjK6jL71+PHT/H6/IQQQggho8WorgEN8zPCn2eG0r8L6+KaAQB1Oh7qdJ7/s5MUZtyVacDijC4wHKCulcGLO0VeZT8BoKqyDAAQGiJDdJTSq2MJIYQQQkaTUR2A/iKtESnS7h2ejBYO3i8O9eo13lnX3SP1chkXr+0Roa3Du+BTr9dB1dQAABg/frJXxxJCCCGEjDajOgAFAJOFg/YuBlfahdheEYgSrcDr1yhrZPDFKQFO5PFhGUD5aHV1OSwWC/h8AdJSMrx/AUIIIYSQUWRUB6DPXlIM+jU2fuSPctXgSmUrq8oAAKkp4yAQ+A16TIQQQgghN7NRHYAOhcEGnwCwYP5SLJi/dAhGQwghhBBy87tlVsETQgghhJAbA0cRnjSwppiEEEIIIYQMAGVACSGEEELIsKIAlBBCCCGEDCsKQAkhhBBCyLCiAJQQQgghhAwrCkAJIYQQQsiwogCUEEIIIYQMKwpACSGEEELIsKIAlBBCCCGEDKv/BxmCoPd6tNgtAAAAAElFTkSuQmCC;" vertex="1" parent="1">
          <mxGeometry x="120" y="256" width="672" height="294" as="geometry" />
        </mxCell>
      </root>
    </mxGraphModel>
  </diagram>
  <diagram id="JgysoKTolMDtrgseNAae" name="Routing">
    <mxGraphModel dx="2248" dy="697" grid="1" gridSize="10" guides="1" tooltips="1" connect="1" arrows="1" fold="1" page="1" pageScale="1" pageWidth="850" pageHeight="1100" math="0" shadow="0">
      <root>
        <mxCell id="0" />
        <mxCell id="1" parent="0" />
        <mxCell id="l6fjfAdnAK_vOQEOn5jX-1" value="" style="shape=image;verticalLabelPosition=bottom;labelBackgroundColor=default;verticalAlign=top;aspect=fixed;imageAspect=0;image=data:image/png,iVBORw0KGgoAAAANSUhEUgAAAqAAAAFsCAYAAAAT/guXAAAABHNCSVQICAgIfAhkiAAAABl0RVh0U29mdHdhcmUAZ25vbWUtc2NyZWVuc2hvdO8Dvz4AAAAtdEVYdENyZWF0aW9uIFRpbWUARnJpIDAxIEFwciAyMDIyIDA1OjQ2OjA0IFBNICswNzcDpZYAACAASURBVHic7N13eFvV+cDx79Xy3ntvO8tx9l5kh4QVZgKETRhll1IobflRCgVa9iiUUQirhD1CIAGyCQkJ2dsr3o635SXJ0u8P2QqOZMdTipP38zw82Lr36B7dyPe+94z3KBFhyRaEEEIIIYRwEpWrKyCEEEIIIc4sEoAKIYQQQginkgBUCCGEEEI4lQSgQgghhBDCqSQAFUIIIYQQTiUBqBBCCCGEcCoJQIUQQgghhFNJACr6PZUCw+ItTBsiKW1dQaXAsAAD08KbXF0VcYpalFBPuEezq6tx2vLXmYn0bMZbI9dA0X9oXF0BIXpieCLcMtdMUriF1TsV1uxRnF4Hd52aza/Ox8dTy7PL9/Pc8n1Or4OrDA80cktaLYk+Jr4vcmdNsZurqyROQden6Lk2Wc+qIg9eO+xFRZO0ffSUp8bCksQ6ZkY2EqAzA/D8fh8+y/Nwcc2E6BwJQEW/ddVZFpZMM6MoYGyGo2XODz4BZo+JxMdTC8Bn63JdUgdXWJJUx5KkOhTAaFbIrZPLiXAss0ZDkq+JOZENjA5q4qGdfuyt0rq6Wv2WWrHw5MgqBvgZXV0VIbpN7hiiX7p+ppnFU6zdTSu2KfxnlYrqetfUZeHUOAC2HijnaEmdayrhZNel6FmcYD3hKwrcee2QN9VGadUSjt24OZBB/kbuGlRLoreJJ0ZWcffWAA7WyC2oOyaHGmzB54c5nnyU60FFkxrpgBf9SZf/+qPD4rlzyV+Ji0oGYMf+Lfz9lXucVl6cHp65aynTR2Xw7eZt3Pv8610qO2GAxRZ8vrxSxfJNXWv5fOSGESyalUBNvZHhV3/RpbInCg10Z2J6KACfrO1c62dvHt8Vxoc02YLPfx/yZnmOp4trJPqDfVVabv85gMdGVpPub+DhYdVcsymQepNrei76s7SW4LO4Qc0rh7xdXBshuqdLTRazJ57H479/jbioZCyWrj9r9bS8OH2kxEQCcCivsEvltGq4Y4F1vNOPu5UuB5+97fxJsahUCo2GZlb8lOfSujiDVmXhjoG1APxY7CbBp+iShmaFh3b4UmtUEezezJLEM6PHoLepWi57VQbpdRD9V6daQL08fLh18f2MTp8MwJqt36BYFKaOmdupg/S0vDi9eLjpiAoNBuDw0YIulZ06xEKILzSb4ZXvXH/xbe1+X7W1EH29ycW16XtTwpoIcTfTbFF49ZCPq6sj+qEqg4r3sz24MbWO+dENvJXpRUOztIJ2RWursZdWGnJE/9WpO/ig5GGMTp+Mvr6Wp/77F15891HMFnOnD9LT8uL0khwdgUqxXkCP5HetBXR6uvWCu/WIQml1r1etS9ITA0iJ8QXg4052v/d30yOsqZa2lusobXT9A4Don74t9KDZouCpsTA2xODq6nRo1sxzSEhIcXU12qg1Wq+f3hq5j4r+q9NjQHce2MqL7z9KZXUZAIqqa0+sPS3fG3Q6Ny699HLmzptPTHQMVZVVrNuwhpdefIbZs8/mvvseZNeuHSxderVd2Weefomx4ybw4gtP8+HyD7jkkkXMnbeAqMgoGhsb2bRpPS+//BxlZWUOj93T8r3B28OdK8+eweyxI4gJDaa2voGt+w7x7P8+p7Syii1vPotapeKyB//BvuyjDt9jaEoil82cwogBSYQE+GMwGMkqLGHFpi18uHodRpN9rr97Fi/kqvkzHb7fiqcftnvt3ZU/8viy5XavKwoMibUGoNsyu/LJ22posrZUNhl6lpfwwmnW1s/SykY27Sp1+vGdTQGG+FuDhW1lXZvBHB+VzJP3vonJZGTxvTOIDU/k/JmXMyhpOL7efpRWFLP6py/4eu1yzOb2z0tq/BDmTLqAgUlDCfANxmg0kF+ay4Ztq/huwyeYmtsvqygKU0fNZdbEc4mLTMZoMnIodw/vffEKBaU5vPvk96hUau54dDGFpafWcIpT4fyp1WqmjT6bSSNnEheVjJeHN83NJkrKCvl1/898unoZtXWdeyqsMqjIrFWT6msiPcBwSqfvCg+PZsTw8eTn57B+wyqO5mW7ukrUmawPf5L3U/RnnQpA9x35lV/2bOj2uM2elu8Nvr6+PPfcK6SlDbS9FhIayoULL8HTw5PyinIAjh7NcVg+Lj4egNJjpTz33L/JyBhu2+bu7sHZZ5/L0KHDuGrJpdQ3NPR6+Z6KDg3m1ftvJ7ql6xsgyE/L3PGjGJIUzz3P/ge1ynpRyykqsSuvKAr3LF7IkrNntHld66EmPSmO9KQ4JmcM5pYnXsR8wr9zQlR4l+qa6+D4AL4e4O1u/Tm7pPutb1V6Q5v/d4dWo7BgYgwAn60/SrO589/t3ji+K/hqzbYbXra+awFoZEgsAMXlhWQMGMO91/4dnfZ40BEZGsOS824lyD+E/376vF15RVG48txbOeesS9u8rlFrSIkdSErsQIYPGMejr96LxUHvilqt5u6rHmbM0Cm219x07owYOJ7kmIE88cYDqFRqmpubKS3vWqu8M7j6/Hl5ePPA0idJjR/S5nWVRkd0eDzR4fFMHD6DPz59g62R4WSy9FpSfU1E9XGC+ttvexAP986NVd6ydT0/rvmmzWvZ2YcID4skOjqeRZfdQG5uJus3fEdBoeseUlqHLGhVFlQKdOHyI8Qpo1MBaF2DvkcH6Wn53vDnP/+NtLSBmEwm3n9/GWvX/oBeX8u4cRO5/rqbOHBwPwC5uTl2Zd3c3AkLiwBg1qy5aLVa7v397eTkZBEaFs6SJdcxdux4oqNjWXDuBXz4v/d6tXxPaTUaXrj3FqJDgzGaTLyz8ke+/2UnlbW1pMZEcfeiC2wtlKUVVdQ32q9oc/PC+Sw5ewZmi4XP1/7EF+s3U1xeSWRwENeeM4uJGYOZMHQQZ08czVcbtrQp+9S7n/DyR1/bfv/DlRcyPC2ZjTv38sLyr+yOdbT0mMPP4f2b/Mo1DRasbXJdV1Fr/XzVPQgAp42IIMBHB8CnXex+743ju4L3b8ab1XZx5nJkmDVYb2is48ZLfs9n37/Hpu2raTQ0khY/hOsuugtfb3/mTb6Qz75/j6qa8jblL55zLeecdSlmi5k1P69g7daVlFWVEhIQzvkzLmfYwLEMGziGySNnsu6X7+yOv2j+UlvwuWbrN6z5+RvKq0qJjUziqvNv44KZVwJQUl7YYSugq7j6/F11/m2kxg/BZDLy6epl7DiwhZq6ajzcPBkxaBwXz7mWQP9gzpu+yGEA7Eitwfod8jnFxzFu2Pg9u3ZtY8KEs0gfMpK4uCTi4m4mM+sg6zesoqTE+Q8sni1d7zVGlQSfot86I5KwDRs2gkmTpgLwfw8/yOpVK23bcnNzCAoM4sol11p/P2ofTMTExqK0jFn08fHlxhuvornlJpVfkM+OHdt5552PSEhIZNSI0XYBZE/L99RFZ00kMTIcs8XCXU+/yrode2zb8oqPkZlfyGdP/hWA7KJiu/IRQYFcf551wtg/3l7OB9+tsW0rOFbOtgOHWf7o/aTERjNx6GC7ADSrsO17+vlY04bsyTrK3uzOB2869fGfm3swaaGy1hr4Veu7n8T5winW7ve92VUcyqtx+vFdQac6fqdr7uLQs8gQ6/lKiRvEs8v+jw3bVtu2bdrxAwaTgfuufwyVSk1K3CC27l5v2x4cEMbCWdYA8c1PnmPl+o9t20rLi9iXuZN/3vs6sZHJDBswzi6ACg4IY/7UiwH44Ov/8PGqt23bissKKC0v5InfvwFAQUlO1z6Yk7jy/Hm4eTJl1BwAXv/kGVZvaps6LDv/EE2GRgYlDaOuofOz2lvD/N9+r/rC22+/CKrO9Zg0tdP7VFNbxcpvP+Xnn9cyYcIMBg3MICkxjcSEVA4d2seGTaspK3Pcc9ObNCoLid7NXBRnrefKAvc+P6YQfeWMCEDnzz8XgJ07f20TfLb6dcd2WwCa56ALPj423vbzP//1mC14bGU2m9m2bQsJCYn4+Qf0evmeOnvSGAA27NzbJvhslVNUSlllNaGB/mQV2l9EF0wei0at4mhxaZvg01Z/i4XdmbmkxEbj7dnxMnAqRSGmZRhAbnHfX7AdWbWlkKFLPsdo6t4Afn9vHdNGWIcVfLwmx+nH749aW/B2H97WJnhqtfPA8YcWd7e2N9Wpo+agVqspPpbXJnhqZbGYOZy7n9jIZDw9vOy2Tx45G41aQ3lVKZ+sfsdue07BEapqKwjwDaKw1PHYZ1dz5fmLDo9HrbY+/e3cv8VuO8BXaz7kqzUfdv4DOVFVdWWvvVdlVQVfr1jO5s1rmDRxBmlp6aSlDSY1dRD7D+xi7dpvqamt6rXjAbwwtpKBJ6x4VG1U8UmuJ68ftv/3EqK/OCOmsWYMtY633LBhrcPtSktXbnNzM/n5+Xbb4+ITACgpLebI4UMO30OjscbyNTX2g/B7Wr4ntBoNgxOsrSdrt+9qdz+d1nr8bAcB6IjURAB+3NZ+ef+WVs2yyo4vvpEhQWhbPmt7Yz37WrPZQl2jCUM3A8BzJsWg1agwmix8udH++9LXx++PIkKsAdTWXRtOum/1CTfwAYlDrWX3bGy3jI+3PwCVNfbjDwclDQNg296fHI5vBGwTdwpO0QDUlefPYDo+VGTK6NmoVGq7fc405RXH+PzLD3jzrefZv38XzeZmBg3MIDl54MkL94Jqg4qCBjUmi6SvEv3Xad8CqtO5ERVtvXgfOnzQ4T5R0dEAFBUVYDLZd4vGxVoDyEMH9rd7nJgYa5CXn28/ML2n5XsiPiIMjdr6nHE4r8jhPj5enrYAMqfQvgs+qSVp/OK5Z3HJzCl22wHcdNZJKbnFjsdvtoqLCLX9nHOSfU9VrbPf1/5aREWN/XhZ0VaAbxCe7taWmqz8Aw73UalUvP7xMwBk57X9O42JsP79zJtyEbMnnu+wvFZrHY9bdMzBA2Sk9QEqp8Dxw5+bzp1AvxAACkpOvQDU1efvaGEW+cU5RIfHc9nZN3Du9MUcLcyk6FgeuYWZ7DywlfxTdOhCXzt2rJi9+37F09OTuLjkPjnGQzt8bcOPNIqFND8TS1P13DagFosFPs/ruNdJiFPVaR+AxsTGoWoZ/5Obk+Nwn9i4eOt2B+M/rdutAUd2Tla7x4mLs17kHU1i6mn5nvhtwJftILgESIgMb3cfN52OsABr64hWrUar7rj1I7vQcZBrq0+4tT6VtXpq67q2ePupMNY+OcqH9ETrMIlP1p0ZuT9bdff8R4bG2n4uKHF8zpoMjQ67h3VaN1twqFFr0Kg7vmSd+P7ubh4E+AW3bHMcXEaGxtjGaLdXP1dy5fkDaxf931/5PTde8nsyBozB092LAYlDbS2rABu3r+aF9x51+AB/Mn2dHMU/IAi10rnOvobGeurrOzeONSlpAJMmziA8LMpWtry893t1ypraXnOP1mnw15m5KVXPRXH1EoCKfuu0D0ATWoLLhoYGSksdB2DxLfvktROAxsRaA8isLMfJJ728vAgOtt7kcrLt9+lp+Z4I9vcDwGKxUNNOwDdtuDW1SkOTgdLKtkMA4iJCbDfns275I+XVXZtwc6K4iDAAch109Z+MwXj8TuXWtSxAvWZhS+tntd7ID784/j6drgy/mfil68LgnchQaw9Ejb4KfX1tl44Z8Zvg8IY/n0dVbUWXyremLwIoPOa4dyE6PB6Aan0ldQ1dq58zuPL8tSqrLOHRV+7Fx9OX+JhUokPjiY1IYNjAsQQHhDFxxEwKSnJZ/u1/O/2e7i2TjxrNfduNvOSKm3uUhulEyUkDmPibwLOxqZFfftnA1l82YjA4p0ekpMEalIZ5NKNwajycC9FVp30AGhVtvQEVFRe2m4c0Ps7aRZfrYAJSaEgYnh7Wi1dhoeNlI1NTBwDWIC/rhACyp+V7ymSyJj1XFIW0uGgO5LS9CUeGBHLRDOsSqTlFxXbnKDbU2nrS0GTocfAJkNAagBZ3PnF7q5qG4zcqf6/up2HqLpWicP5k6/fpi41HMXZ1Kng/V2M8HnUG6Jrp7OUjMtQatHdngk94sHX4R5OhsVvBU3iIdXhNY1ODXWqiVjHh1t6HU7H7HVx7/k5UW1/D7oO/sPvgLwBoNTr+77bnSYkbRMaAMV0KQP11x1MJ9QfJSQOYOGE64eHW75TBYGDb9k38vHU9TY29n7u5IxrFep2WEaCiPzvtA1B/f2v3cbPR8TrdgwenExxiDbKOOuj+bk0gD2Bq5z0mT54GQFZ2JjU1bYO0npZ3JC42icFDhtNQX8fPW9Z12GW0OzPH9vO/br+eR9/6H7sOZ+Om0zJmUBo3XjCP3OJS/JMTHE5ACvSzrvfdW4sItA4JcJTs/mT0jXCsBkJ8ISXSwuZDzr38ThgaSligtburq7k/e9PAtHQCg6znsby8lAMHdzvluHqTwrEmFSFuZlL8TGwu69zqNa0zuLvTve3nbR3u0N3vn2/L5JomY2O7+4wbOg2AwtLO1c/Z59+V5+9kjCYDmUf3kxI3iGZz1x7Ikn2s18Mcfd9Oanru+Ud6VD4+PoWpk2fZAk+Tycivv/7M5i1rO91d39ta14BvMCnS+in6rdM+AK2rs14gEhKTCA4ObrPUpVqt5tZb77T9fjTP/gIf95sUSqNGj2H/gb1tticlJrNwoTXH4Ndffd7r5U8UEBjMxRddg7plYlFkRAzvvv9qu/sfzM3nh192Mn1UBjFhIbz8h9/ZtpktFh5+/T0Wz5kGOB4jWl1r7bb3dHdj5IBkth040ma7m07HnZeeh7eXB99s+oVNu/a1WxdFUQhtGU9aXtO9rs7duQrT0y1MHGBh2ZpuvUW3LWzJ/ZlZWMvOI72X2qWrpkyejX9AEABff/ORU4+9u1LH9PBGJoQ0sSyzcylgWrvBuzPDXF9n/Z64u3kwKCmDfZk722zXad24fMFSPD292bhtNTsOtE0TVN/Spe7nHUB0WBz5JwRxC6ZdQkRLF3dnWxidff5def4unnst44dNo7Akj3+++Se793fTuTN80HgAjuS2/7d/olgvE9Fe1swDuyt1XfpMzjZ50kzCw6Mxm5vZsXMrP23+Eb3etUM1vNTWYF/fg3zIQrhapwJQf59A3E8YQ+Ohs9583Nzcbd1cYE1nUlpe1Kvle2LX7h2ANc3R08+8zEsvPkve0Rwio2O45uobbF3UAMnJqVjMFsrLjweprSmUtm79meuvvwm1WsP6DWvBYmHkyFFcf/3NuLm5k5d3lI8/ts+D19PyJ4qOjLMFnwBRUXGoVOoO13++78U3uf2Sczl3yjj8vDwxmkzsOJzFfz5byS/7D/Onqy8DHKdg2rz3AAajEZ1WyzN338Q/3/mYHYezUGFdF/6ac2aRGBlOcUUlj/33fx3W3WKx0NhkwMvDnYtnTKGorAJ9/fGWqaLyCipOEph+t8MagKZGwrB4CztynHMB9vbQMHuMdTWrT9a4rvXT29vHFvw0NTZw4IBzWj9bfVfozvTwRlJ9TQwLMLDjJMGDRq0hNNA6ya2wGy14uw/9gtFkQKvRce91j/H25y9wIHs3KhRSE4Zw7vTFRIfFUV5VyusfPW1Xfn/mLswWMypFxZ9u+hdvffY8OQVH8PMNZNqoucRHp1BbX4OPpy8FxScP8Jx9/l19/vR1NcSEJxATnsCdS/7K6p++pLz6GFqNGzHh8Zw3fRFhQZEYjE2s2nTyB+hWl8Rbu6wrmlT8Uu6iAd2dZG5uZtfuX9i48Ydez/HZXa0toHVGCUBF/9WpAPSahbczYfgMh9sGJg7l+T+9b/u9rkHP1ffP69XyPbF1y2Z27PyVYRnDSU5K4amnXrBt27d/Dw899Cc++ugLNBotTz/1Ig0NDUyfPt62T+vs9AP799JQX8fSpbeydOmtbY5RUlLEPb+/zeEA9J6WP1FVVdtxbLX66g6DT4Amg4En3/mIJ9/5CC8PN+obDbYuucEJcWg11i6wrAL7wL9aX8c/3/mYB665DD8vT/629Eq7fQ7m5nPHU684XMLzRF9u3MJlM6eQnhTHfx64o822+158g282/dJh+V+OKGQWKSRFWLjrPAu3vqKgb793tdfMGxeNh5sGs9nCZ+tcN1YwJibB9vOefb92a9ZxT2wr15FZoyHJ18Sdg/X8bnMA+g6W5QwPjrbljexOC15tfQ1vffoC1198N96ePtyy6H67fXIKjvDEa/fT2GQ/Du9YZTGrN33J7InnERwQxj3XHO+O1dfX8sI7f+OPNz7RUr+TB3jOPv+uPn8//PwV08fNJz4qmYkjZjJxxEy7fQzGJp5d9jDFZY7HuJ9oZJCBOZHWY32Y60nzKZ7L8uNPljk8N67k0TJqwWDuH+NnhXDktO+Ct1gs/P6e37F06e8466xZ+Pn5UlxczKpVK3nnnTdpaGjgscf+xs033UZwSAj5eW0v8q0plIpLinh72RssPVbKlKlnERgQSHFxET/++D3Llr1Jba3jsZs9LX+ivPwcft66noyho2msr+Obbz/t0vmoa2gbJE4ePhiA2voGsgocz+r+YPU6cktKuXLeDIYkxuHl6UFZVTXZBSV8sX4z3/28vdPrZz/x9oeUVVZx8YwphAT4oVKO33xyi04+Mclsgae+UHj2egsxQRYeu6KZB99TU921jE5d1jr7/ae9xyiucN3NKDY60fbzzl0dB+t9wWyBp/b78OzoKmI8TTw6ooo//+pHdTsTSSLDrN3HJpORkm72bHy78VOKyvJZMO0SkmMH4uHuRVVNOQUlR1mzdQWbd6zB1Ox4fDXAG588zbHKYmaMnU9wYDjV+kp2HdjCJ6uWERV6vH6lFSfPauDs8+/q89dkaOTBZ2/mvOmLGJsxjYiQaLQaHQZjE6XlRew6uJWv137YqXMHMCLIwF8zqlEpcKhGwye5p34KoVMt+ASoaWn5jPBsRqeyYOjjTAJC9AUlIixZxjC3w8PDg++/34SiKNz2uxv5ZZvjZej6qnxfiwkP4YO//REfTw8+XL2eR958/+SFThEzhlq4/0IzKgWq6uDddQrf71JR1QdzAqJDPFnzwlwUReGeF7a6tAX0+uvuIigwhILCPN5592WX1WNGRCN/HFJjPf8GFe9le/J9kTtVBvtANCwwgrDASLRaHfklOZRUdC2Q6svy501fxBXn3sLRoizuefyqk77XqXL++5tUXxPnxTQwO7IBlQJFDWru2OJPeZOsqtQdg/yMPD/WOg59c5kbH+V4Ut6kUG5QS7e86DdO+xbQnoiJjbPl0MvJbT+JfF+V7y0hAX6EtmQDAPD18SQjOYEr583Ax9ODKn0d//70a5fVrzu+36VQ06DiTxdZ8PeycOs8C2mRZh79uPe7pBZOtf471jWa+Pbnwl5//87y9PQmKNCasWHnTtc+zHxf5E6NUcUD6TX468zckqYnzdfEo7t9bfuMHDie68673baMZKuiY3l8sOpN1m37rsNjOKN8VFg80Lnu7VPp/Pc3L487ngLq1wotj+zyc/iwIjpnX7WWFQXunB3VyLjgJsYFW3u2nt/vw2eSmF70ExKAdqB1Brter28ze95Z5XvLbRefw/lTJzjcdqyymtv+9TJlVT3P8elsWw8rXPG0wuIpFhaM6rucnOe3zH7/ZnMBDU3td/X2tdiW8YdNTU0cOLjLZfVotbVMx5Xrg1icWMf86LbdlHMnXMDSC++x/Z5blIm+QU9CZDIRITHcdun9xEem8PaXLzp878tmX8elc67p8/JRYS05Nk/IARodGkf+CWNCT7Xz399k6TW8m+XF2mI3SR3UC57a68veKi3zoxqJ9zbhqZGzKvoXCUA7ENsSQObmZrukfG+JDw9r83tdQyPZRcX8uG03H6xa2+UlMU8l+kZ49TuFN75XEx7QN8eYfvvKvnnjLmqdALNv3w6MRudOPmqP3qTw6iFv3jjiRbjH8YeA77d8zdwJ5/PD1hV8sfZ4dgStRseMMfO57vzbuWDaIoanjuadFa9wIGcPblodw9LGMn3MfNLiBlFcXsA3Gz/p0/JGlfWBoqyqhEDfoDblH3zpNg7m7LGVPRXPf39x/aZAsvVyu+lNFmBlgQcrC6TFU/RPMgZUCNEntBodRpPB4baRA8ez9MJ7CAkId7i9vrGOR9+4j72ZO1xW/uH/3NMmABVCCNF7JAAVQriEVqPj3KmXMjZ9CgmRyRhNRkoriti8ex1frvvwpOuyu7q8EEKI7pMAVAghhBBCOJVMQxRCCCGEEE4lAagQQgghhHAqCUCFcDFFUUiOD2fYkIST7yyE6LIZk9MJ9Pd2dTWEEL8heTGEcKGUxEjOnzuayPAAtu3MYsce16bsEuJ0tGDWSObPHMHWHZl8vWobNfpTb3lNIc40EoAK4SJzzhrGnGkZKIqCqbmZkrJqV1dJiNNSQVEFURGBjBmezICUKN784Edyjpa6ulpCnNFkFrwQLjB/5ghmThkKwOZth/hq1Tbq6ptcXCshTl/xMSFcfO4EIsMCMBhMvPDGSvIKXbdCnRBnui4HoL4+/owbMw0//0AAiosLWL/x206XTU0ZTGhoFB4eHjSbzdTWVpGfn01m1gFMJtctcyhETy2aNZX7r76UwmMVzL3zwXb3GzwghusXzwDg85VbWbNpb5eO88gNI1g0K4GaeiPDr/7ipPs/d+cY5k+IYfXWQpY++ZPddi93DbvePg+AG/6xkR+2F3epPh3Zvex8PN3UDrdNvfUb8o91vApXT8uL009Xv/+/5abTcOOVs0iMC6O6pp5/PP8pjU2yqpUQrtClSUhJiQOYOePcluCzaw2nMTGJzJp5HgkJaXh5eaNSqdFqtAQGhDA0fQwzpp+Lu4dnl95TiFNJUnQkAFmFRe3uo1GruWjBOAB+3Z3V5eBTCNF9TQYTb37wI/UNBvx8PZlz1jBXV0mIM1anxoBqtW6MGTWJyMg4AHJyDwMK8XHJnTqIt7cvY0ZNRqVS09jYwP79O6ioPIZWpyMyMo6khAH4+vgzdvRU1q77ptsfRghXSomJvamIZAAAIABJREFUACC7sKTdfTKGxOHv60Wz2cKX3213VtVc5tK/rEGtKLbf02J9efyWUU4rL8SJ9HWNfL9uF+fMGcW4kams/OFXmgzS+yaEs3UqAA0JCScyMg6DwcD27RvJK8hm9KjJnT5ISspgVCo1JpOJH378krp6vW1bSUkh9XV6hqaPJjQkgoCAYCorZVyO6H9sLaAF7Xdhj0hPBODgkQIqq/Xt7ne62Jdd1eZ3jVppZ8++KS+EI1t2HOHsWSNxd9MyMDVGsk8I4QKdngVfUlLAlm3raWzo+pirkOBwAPLzs9oEn60OHd7L4EHDUas1hASHn5YBaEpqGm+/9T+MRgNTp44lMTGZJUuuZfiwkfgH+FNUVMTnn3/M//73Ls3Nze2+z5D0DC5ceAnDhg0nODgEg8FITk4W3363gk8+/rDDcbRqtZr5889j9ux5JCen4uPjg8lkpKCggM2bN/L2W69TVV3Vbvme0qhVnDtlPGdPGE1qbBS+Xp6YTCbySsvYuHMfr33xLVW1HQdlQ1MSuWzmFEYMSCIkwB+DwUhWYQkrNm3hw9XrMJocn7tPHv8zydER/O2N9/hqwxaumj+TeRNGExUcSHVdA6u3bOeFj76itq7977dKUThv6nguPGsSqbGRNDYZ2Hk4m6ff/5Sa+np8vaxDSLIKHQegigIJsSEAHMws6Mwpc6ihyfpv3GRo/3vSF9Li/LhuQQrjBocQ6u+OwWQmt0jPql8K+e+KTGrqDE6tT1clRfpw3TkpTEgPIyzQHYPRTE5RLSt/LuDtbzKpa+y4FUzKu7Z8q974/uvrGiksriAmMoikuNAuBaCTJs5k1Ijx1NfX8dU3H1FYeLTb9RDiTNapAPTYsSIKC3O7fRA3N3cAamodp5mxWMzo62rx8w3A3d2928c5lcXFWIcvFBQUMHbcBP7x2L9s5wUgNjaO2267m9CQMJ559km78oqicNttd7No0ZVtXtdotAwaNIRBg4YwYdwk7r7nd5jNZrvy3t7ePP3UiwxJz2jzuk7nRkJCIgkJicycMYdrr7+csmPHeuMjt+Hj6cFLf7iVjJTEtsfXakmKiiApKoK540ay6C+Pc6zS/nuiKAr3LF7IkrNntHld66EmPSmO9KQ4JmcM5pYnXsRsaTs+WaUoxIYFA1BZo+e1P91FelKcbXuIv5ZFs6cxODGeq/7vnzQ7OH8atZpn7l7KlGFDbK+563RMHZHOoMQ4Hn7tHdvr2e0EoJ4ebni4uwFQVNL9QL9Kb2jzf2e4cGocf186Eq3meAukVqNiUII/gxL8ufiseK54eD25xadmq+68cVE8dfsYdJrjw951GhVDEgMYkhjAwqnxXPHwOkoqHOeHlPKuLf9bvfX9LyqpJCYyiOBA306XCQkJZ+KE6QC4uXswZ9Z5vPnW8z2qhxBnqk4FoEZjz/7QVYr1omO2WG/sWo2WgQOHUV1TSW7uEes2c+vT7Om5OFNsXDwAdXV67vvDn1i27L+sXr2ShoZGhqYP5Z7f34+/fwAXXXwZy955k/Lytq3A1113E4sWXYnZbObrrz9nxYovKS0tITw8giuvuIZx4ycydtwEZs+ex8qVX9sd/84772VIegZGo4G3336dzZt/oqqqEi8vbyZMmMS1195ESGgoVyy+2mEA3FN/uOIiMlISMZpMvPbFt2zauY8KvR5vd3cmDxvMTQsXEBrozzXzZ/HEOx/Zlb954XyWnD0Ds8XC52t/4ov1mykuryQyOIhrz5nFxIzBTBg6iLMnjuarDVvalI0IDkSn1QJw3pTx1Dc2cs3fniKzoJjwoADuWXwBYwcPYGhyPNNHZbBqy692x7/3ioVMGTYEi8XCp2s28eWGnymtrCYtLpp7r7iQxXOsN6WqWn27rbgeHm62n+sbup9yqaLWWrbaSQFoWqwfj940Eo1aIbuwlpc+PciBo9V4u2uYlBHG9eekEBnsyYt3j+Oc+1ZjOcUSu8WGefGv20aj06gor27imeV72XWkCl9PLXPGRXL5rEQSI715+vYxLH5orZQ/xcqfqLe+/61/gx6ebifZ8zjPEybKenjKxFkhussliejjYpNJS03HYrFQWJiH0Xj65z+MjY0HYPDgdP761/v57rvjk61Wf19Mo8HAk088g1qtZvCQoaxb+4Nte1hYBFdddT0ATz/9BB999IFtW2FhATt2bOfttz4gKTmVceMm2gWgnp6ezJmzAICnnnqCzz5rG+AdPLifhoYGRgwfSa2+tlc/N4CXhxvzJ40F4LG3PuSjHza02b4/J4+GJgOjBqZQW2/fAhIRFMj1580F4B9vL+eD79bYthUcK2fbgcMsf/R+UmKjmTh0sF0AGh8ZZvtZo1Zx42PPYWmJkqpq9dz97Gv88MKjuOl0jEhLtgtAY8JCuGTmVACeev9T3vp6tW1bXskxio5V8P4j9wHtd78DaNXH0wmZm7sfpVXWWm+81fqupY/x9tIyMN7P7nV3XceXgavmJaFRK5RVN3Lhgz+2Oe6W/WUczqvhmTvGMDDej3GDQvhpb++3oPfEkrnJuGnVNBqauejBHzlaUmfbtmlPKUVlDdy7eAhjBwUzNCmQXZkVUv4UKn+i7n7/T9TaU/Tbv8uTyS84SllZCcHB1mvKr79uOUkJIUR7XBKAanU6wNqtqtNqz4wANM7a5fvLL1vaBJ+ttvx8PD+jxwnDEObNW4BGoyYv72ib4LOV2Wxm7749JCWn4uVtv95xQkISGo31Irt58yaH9fvgg3f44IN3HG7rqaSoCDRqa8v2pl37He6z7JsfWPbNDw63LZg8Fo1axdHi0jbBZyuzxcLuzFxSYqPx9vSw2x4XHmr7+bG3l9uCz1a1dfVkFRYzMD4WDzed/fEnjUGtUpFXcoy3V3xvt31vdi7VdfX4eXmS3cEEpN6yakshQ5d8jtFkP1SgI+MGhfDVEzO7fLwRaUEArNiU7/Cm/+XGPB6+YTi+nlqGJgeecgHo+MHWcbdf/5TfJvhp9fpXh7jjkkHoNCpGDQiyC4CkvGvLn6i73//e0Nxs4u1lLxMTk0BdXS0lpYVOr4MQp4vTs7/7FBQbEw/AunU/nnTfysq2F+CModZcdevXr2m3jL+fPwDlZfY3/ybD8QB/3rz5qLvwxN8bGo3Hg5YFk0ajVnXtazci1Tpu9Mdtu9rdx9/HGniXVdqPrYyPtE6Cyyos5mix4+X3NBrrs1hZtX0L8Ig0a7qxDTv32AWvrSwtrSkdtYD2lmazhbpGEwYn3YADfaxdlB0lfc9vCSz8fewDeFcL8rfWP6vAceu+0WSxjV0N8rPvjpXyri1/Imd//09kNBnIyj4owacQPeSSFtDf3sRbx4WezoKDg/Hy8gLgwIF9DvdRq1X861//AODggbathAlJSQBccskiLrjgYofl3dysF+68PPsZmVmZR8jOziIhIZEbb7yVyy+/miNHDpGXl8uRI4fZsuUnsrOzuvfhOuHI0UIyC4pIiorgdxefy9ULZnP4aD65xaUcyivkp137ySxoP3l7Uow1vdHiuWdxycwpDvdx01nHeOYW2wfgCRHWFtBDufntHiMqOKilvH0Oz9TYKAD25zgu7+vlaQuAO8oB6mqdWQnJEXVL6qMHlgzlgSVDOzyG6hTMkqRtmfjSZGx/1nTrjGpHaZ6kvGvLCyFOTy4JQItL8klNGUJ1dQUN3Ujr1N+0jv8EyM11nO6joaHBYfe6m5s7oSHW8UYajRaNRtvhsXJz7N/fbDZz1123ct99f2Ls2Al4eXmRkTGcjIzhtn1WfbeSvz3ylx5POHPEbLFwy+Mv8ufrFjFh6CC8PdwZnpbM8LTjCxl8s+kXHnzlbYwnpJFy0+kIC7C27mrV6pOO18p2sApRXERYyzbHwWF4YACeLbPTc05owfT18iSgNbgsclw+ISrc9nNHqyBZurh6mBCi77XXqyGE6FsuCUCrqir44qv3XHFol2idAV9VVUlNTU2XysbExqK0rAQzf/4MKirKu1WHkpIi7r77d/j5+pGaNoD4+EQSE5MYP34iYWERzJo9l9yj2bz++ivdev+TKSqv4JYnXsTP24uB8TEkREaQEhPBxIxBRAQFMm/CKLKLivn3JyvalIuLCLF9/rNu+SPl1V07f+6/CWDbDyCPT1LKKSo9Ydvx4DKnnfGdiS1d/I0GA0Vlle3WxfibFiCt1rnDIHrDI2/t5M2vj7i6GkL0Cq3WevszGmUVJCFcwSkBaGs3e2s6JkeObzv9uuTjWlpAc3Nzulw2OioasLaQdjf4/K3qmmq2bv2ZrVt/Bqx5QF966TUGD05n7JjxfRaA2o6vr2PzngNs3nPAenytljcevIuhyfFMTB9kF4DGhlonMDQ0GbocfALERYTaAticdgLQ+AjrEpplVdV2s/Djw6zd97X1DVS3k6Q+uWUFpNyi0g5bU36besnbq//ku21umbHv6eaS59Uea52s4tZB0N+6zeQgO4GUd235vuLT8jdY14OUaEKI7nPKJKSmpkYAfHzsU8AAKIoKb2/fNvueTlpnwLfX/d6RgMBAoO+6bw2GJvbv3wvgMAG7I3GxSZx99kWcNW0enp5ePTu+0cjerBwATA6OH+jnA3S/myw+PMxWPqedLvjWFtAcBxOU/H2t3e+mdlanUikKM8dYJ4l1tAQnQEOjgeoa62Sd6MigTtT+1NCadzEpqvMJu9vT029xd8qXVVnrnxDp43C7Rq0QF9Eyia3a/voj5V1bvq9EhVuvrcWlXVsUwtvHl5DgMEKCw/BrmfwphOg6pwSgZcesN/6Y6EQ8PezTBKUkD0SttrauHDt26k7i6K7WGfDdaQGtbWn18/TwZNiwEXbb3dzcufPOP/DnPz/M2HET7LZfd91NvPvexzz22L8cvr+Hhwfjx08CYO/e3SetT0BgMBdfdA3pg0cwZvRkLjjv8g73v3nhfD55/M88dceNjo/vpmNyy+pCu4/YB+jVtdZWR093N0YOSLbb7qbTcd+VF/O3m5YwYeggu+3xkdYWzJLKKhoNjse3JrSMEXUUoLa2iAb4eJMSE2W3/cYL5hERZL2RdTT+s1VmrjXIHTIg9qT7niq2H7S2vM8bH0VcmP0DR7CfO/+4eSRP3DqK4SmBHb6XvuF4d2dsuP214GS6U35zS1qo+eOjiAy2Txx+7fwU2wo9W/fb9zJIedeW7wthIX6EBFsbRLJyunbPueC8y7n2mju49po7GDxo+MkLCCEcUvt4Bz50sp3c3T1wd/dEp3Oz/RcZHouvrz+NTQ2UlZXYXtdqtXYTWfT6ahITB6BWq4mNTsBksqbl8fXxJzVlCAMHDENRFEqPFXHg4M4++aCuotFoue22u1CpVCz/8D2Hs9Q7Ul5exiWXLkat1jBlyllUVlbQ2NRIgH8AkyZN5S9/eYRJk6bg6+fHyy8+YzeJJzk5hbPPPof4+ETi4+KpqalGo9USEhLGqJGjuf/+v5KQkERTUyOP/v0hamo77uZOSRpIWupg2+8+Pn78tHltuy2UKTHRnDdlLIlR4SREhlGtr0Oj0RAa6M/YwWk8dMPlJEVF0GQw8Nf/vEvNCd3cZdU1XDH3LNRqNWeNyqCiupZGg5FAH2+mjhjK32++iqnD0/H38eKZDz6zWwv+oumTSY2NYveRXL7a8LPDOt556fl4ebjz9cYt7DohCK5vMrB49jQAJmUMpqisAlOzmeRo64z+9KR4tBo1nu5ufLh6fYez+QEMRhOjMpLw8/EkM7uYiqq+X7py3rgoUmP8yCqs5atN9jP5dRoVN18wAIAvN+SRXdS2TvnH6rl0RgJajYoFE2PQNxqxWCAs0IPZoyN58nejGDc4hPBAD55evg+Dsf2W9Gq9gSvnJuGuU5OREkhxRQNebhrCAjxs/zUazO3OmO5O+ZxiPYtmJeCu07BgQowtiE2O8uH6c1K56fw0FEXh531lvPzpAbtjSnnXlu8L58weRXREEDX6Bj75enOnV+/S6dyYOX0BiqLQ3Gzm6xXLMfTBxE0hzgRKRFjySf/0xo2dRkx04sl2A8BgNPD5F/YJzWNjkxg9cjKqdnJAVtdUsm79tzQ2nl6z4hMSEnnvvU8AuPiiBeQXtJ8KqD0XLryE39/7QLvbDx86yB/uu4viYvu8dO7uHrz6yn9JSU1rt3xTUyN//esDrF3rOBH8b8VEx7N40fHWzJraKl7+9xPt7u+u07Hsod+TFhfd/vENBv740n/5fusOh9svmzmFB665rN3yB3PzueOpVygss289ee9vf2BIYjzvf7eGx9760G67l4cbP732NAC3PvkS63fssdvn4aVLOH/KOLvXK2v13PL4i7z7tz+gUhQuvO8RDud3nBtQURTuuekcoiICKS2v4ZlXvqKhsW9vYM/dOYb5E2I6lYbphn9s5Ift9kMJLj4rnkduHNFumpzKWgM3PrHJ1lrakUtnJPDoUvvW/Fa/e2oz32wu6NXyjtYi/63swlouf3h9l9Yyl/LOK9+bUpMiuWnJLBRF4fOVW1mzaW+nyyYnDeDChUsA2H9wN1988X5fVVOI016nWkCjo+Px8w3o1Bs2m5s5eNA+YXh1dSWFhbmoNVp0Oh1qtYbm5maqqss5fGQf27ZvPC1XRMrIGM7MmXMwGg08/8LT3RrLuH//Xnbv3oG/vz8+vr5oNGqOHStl7949/Oc/L/HMs/+kpqbaYVmTycTKb7/GZDLi5x+At5cXarWGpqZG8vKO8t133/B///cn9uxpP8n7b9XUVKHV6QgODkNfW82Kbz6huqb9md+m5ma+2vAzpuZm/H288fFwR61W02QwkFtcyjebfuH+l//LrsPtj4/dk5XLjsOZBPh44+vliVqjprSyit1Hcnjxo694YtlHVNfZr7ACcPfihbhptXy1/mf2ZOXabU+Nieai6dYhCC99/JVdCyxYE9CbmpuJDA7Cw92NY1XVrPxpG3/693/BAotmT6PZbObJdz+2Le/XkYKickYPT8bHy52kuDD2HDjaZoZ8b+tpCyjAvpwqvt9WiLtOjZ+3Dnedmpo6I4fzq3nrm0z+8NJWchyUc2RvdhUHcmuICHQnwEdnyxPZasVP+RzJb39J2O6UP5Jfy8qfCnBrqb+Hm3VpyAO5Vfx3xREeeGW7bYlHR6S8a8v3ltSkCK65bDpajZq8wnI+/Hxjp1s/AYZljCEqyjp8ZvXqL6iu6dr4USHEcZ1qARVC9K4RQxO54sLJKIqCvq6R1et2sW1XFvq6028SnhCuFhMZxMQxAxgzPBlFUSiv1PPca19TU9u1FtdrrrqN0NAIyspLef2NZ/qotkKcGfpnXhUh+rntu7Kob2jiioum4O3lzvnzxhATGcw7H69zddWEOO3cfdM5tp8PZxXx9vK1XX7Yc3f3ICTEmvP3118djycXQnSeBKBCuMiBwwX8/elPmDklnfGjUlxdHSFOa4Ullaxau4ude7O71O3eKjY2EUVRMBgM7N23vfcrKMQZRrrghTgFqNUqAgN8OFbmeCyvEKL7IkIDKCptf6x6Z8yaeQ4jho9nx44tfLvqs16qmRBnLglAhRBCCCGEUzklEb0QQgghhBCtJAAVQgghhBBOJQGoEEIIIYRwKglAhRBCCCGEU50RAWiwWzPhHs14qLs/32rRZAvh/jJfSwghhBCip86IWfAvjK1koJ8RC5BZo+HDXE++L3Lv0nv88HAzZgt8t0PhtVUqKjq36qAQQgghhDjBGdEC2koBkn1NPJBew0Vx9mt+dySzSEGlwNzhFl69pZnBsad93C6EEEII0SfOiBZQAI1iIcG7mTsH1zDA10S9SWHhmmCMZqXT7zEoxsLd55pJDINGg8Jdb6g4WNiHlRZCCCGEOA05NQD18fEjJXkwYaFReHp6YmpupramivyCbDKzDtLcbOrzOgwNMPD06CoArt8USLa+a6uReugs/ONKC+lxFspq4Orn1dQ39UVNhRBCCCFOT07rgk9MSGP2zAtIShyAt7cPKpUanVZHUFAoGUPHMnPGuXh6ePd5PaoMxz+y0vnGT5sGg8JfP1BR26AQ7AtXnWXuxdoJIYQQQpz+nBKAhoVFMnLEBFQqFfUNerb/uokffvySdRtWcvDQbsxmM74+/kycMBNF6dsqeWmON/jWGbt3rKo6eH+d9ef5Iy146M6IUQxCCCGEEL3CKQHo4EEjAQV9XS3frfqMzKwDlFcco6SkkF27t7Jm3TdYLGb8/QOJjo7v07p4aY8Hi/rmbjSBtli5Q0WzGTzdYGxqb9RMCCGEEOLM0OcBqFanIygwGIA9e7dhNBrs9ikvL6GouACAqIjYPq2PV0suUAvQYOp+AFpVB5nF1p+HxkkLqBBCCCFEZ/V5AOrm5oE1ARLU1la3u59eXwOAp5dP39anJQA1mMHcw7gxq8R6+iIDe1orIYQQQogzR58HoEbD8RZPDw/Pdvdr3WZqNvZpfSpbJiFpFdCpehaB1jZYy/u0/7GEEEIIIcQJ+jwAbWpqQF9XC8DAAcNQqey7vb19/IiKtHa917W0hPaVnRVaKppUqBS4OU1PgM5Mdzvim1tyiOrUvVc/IYQQQojTXdeSYHbT4SN7GZ4xjqDAEKZMnsfevdupqi5Ho9ERHh7NkMEjUKmsUVxRcX6f1sVgVrj/V3/uGVTDgugGzo1paLP9+f0+fJbn0ad1EEIIIYQ4kzklAM3M3E9IUDjR0fGEBIczberZtm1GgwGDydpN39jUQHHLZKS+lF+nZm+VDh+thQiP5j4/nhBCCCGEOM4pAajFYmHzlh9JKE0lMTENP99AFEWhsqqc/PwshqaPBuDIkf2YzX0fED4yvIrhgUa2l+t4co8P5Qa1bUJSjcFpufmFEEIIIc5ITglAwRqEZmUfJCv7IACKoqAoMGvmBYBCU1MjRzL39nk9UnxMDA+0TnT6+27fNisjdZtkYRJCCCGE6DSXNfdZLBaSkwbj6+MPwN792zEa+3YGPECMl3W9eYNZ6XHw6daS1L7RKBGoEEIIIURnuSwAdXf3ZNDA4QBUV1eQlXXIKcdtnYSv7n4OepsAL+v/axp64c2EEEIIIc4QLgtAh6aPRqvVArB9x2YsFrNTjlvXsvqRWrHYktJ3V3K4tXxOaY+rJYQQQghxxnBJABocHE5cbBIAOblHKCsrdtqxf7v8ppem+wFoXIiFaOsKo+zKkYlLQgghhBCd5fTISVFUjMgYB4DBaGD3nq1OPX6d6fhH9uxBAHrxRGvZCj38kiljQIUQQgghOsvpAWhS4gD8/K2Lp+/dt53GxoaTlOhdTb/p6XfvZhf8yCQLc4dby/5vg8q2IpIQQgghhDg5pwagbjo3hgw+PvEoM/OAMw8PQLTX8Tyj9aauB44jkiw8dJkZlQKHCuGTzb1ZOyGEEEKI05/T8oACNBma+OyLd515SADC3M14ac0keJu4PkUPQGG9msL6zi/inhoJ540xM2e4BZUCRZUKf3pXkdZPIYQQQogucmoA6ip/zqhmoN/xHKMmi8KzB3y69B7/vul4y+n2LHhkuYqqul6rohBCCCHEGeOMCEABmi1QbVCxq0rLe1leZNZ2/aNnlcA7a1Ws3atgkXlHQgghhBDdokSEJUso1QkJoZAt+T6FEEIIIXpMElh2kgSfQgghhBC9QwJQIYQQQgjhVBKACiGEEEIIp5IAVAghhBBCOJUEoEIIIYQQwqkkABVCCCGEEE4lAagQQgghhHAqCUCFEEIIIYRTSQAqhBBCCCGcyqlLcfr6BpCSPIjQ0Eg8PbxoNjdTW1tNfn42mVn7MZlMzqyOEEIIIYRwAactxZmYkMbwYeNRqRw3uurralm/fiX6ulpnVEcIIYQQQriIUwLQAP8gZkw/F0VRqK6qYMfuLVRWlqPVaomKjGXI4FFoNBoqq8pZ/f3nfV0dIYQQQgjhQk4ZA5qYMABFUTAYDazb+C2lpYUYjU3U1+s5fGQfO3dtAayBalBQqDOqJIQQQgghXMQpAai3jy8AFeWlNDY22G0vKMi2/ezr4++MKgkhhBBCCBdxSgDaZGi0HkytdlyJ37ze2FjvjCoJIYQQQggXcUoAWlyUB0BQYAje3j5222NjkgEwGgyUlR9zRpWEEEIIIYSLOCUAzck9QkFhLmq1hskT5xAeFo1Wq8XDw4sBaRkMGTwCi8XMr7s2YzQ2OaNKQgghhBDCRZyWhklRFOLikklNHoyfX2CbbUfzsjiSuZ/y8hJnVEUIIYQQQriQ01ZC8vbyIT4uBT+/AMxmM9U1ldQ31AEQGhJBVGQsKkUWZhJCCCGEON05ZSUkX98Apk+dj1anIzPzALv2bLGteuTnF8jYMVNJS00nMDCEdetXYjabnVEtIYQQQgjhAk5pcsxIH41Wp6PkWCHbd2xqs+RmdXUFm376HrO5mZDgcBLiU51RJSGEEEII4SJ9HoBqtTrCw6MAyDua5XAfvb6G8grr7PeIiNi+rpIQQgghhHChPg9A3d3cAQXoOMdn6zY3N7e+rpIQQgghhHChPg9ADYbjaZV8fQPa3a91BaSmJknDJIQQQghxOuvzALTJ0ERtbTUAycmD0Gjs5z1FRsTYUjOVlhb2dZWEEEIIIYQLOWUS0v6DOwHw9PBiyqQ5BAWFoVKp0Wl1JMSnMnr0VMDaDZ+dc9AZVRJCCCGEEC7itET0QwaPZOCAobSOBz1RQ2MDGzetorKyzBnVEUIIIYQQLuK0ABQgKCiU5MSBBIeE4e7midlsplZfTVHRUQ4f3ovBaHBWVYQQQgghhIs4NQAVQgghhBBC1r4UQgghhBBOJQGoEEIIIYRwKglAhRBCCCGEU0kAKoQQQgghnEoCUCGEEEII4VQSgAohhBBCCKeSAFQIIYQQQjiVBKBCCCGEEMKpJAAV/Z5KgWHxFqYNkTUVRP+jUmBYgIFp4U2uroo4RS1KqCfco9nV1Tht+evMRHo2462Re4gzaVxdASF6Yngi3DLXTFK4hdU7FdbsUZxmambzAAAgAElEQVReB3edms2vzsfHU8uzy/fz3PJ9Tq+D6J+GBxq5Ja2WRB8T3xe5s6bYzdVVEqeg61P0XJusZ1WRB68d9qKiSdqOespTY2FJYh0zIxsJ0JkBeH6/D5/lebi4ZmcOCUBFv3XVWRaWTDOjKGBshqNlzg8+AWaPicTHUwvAZ+tyXVIH0f8sSapjSVIdCmA0K+TWyeVYOJZZoyHJ18ScyAZGBzXx0E4/9lZpXV2tfkutWHhyZBUD/IyursoZTa54ol+6fqaZxVOs3SUrtin8Z5WK6nrX1GXh1DgAth4o52hJnWsqIfqV61L0LE6wfmFXFLjz2iFvqo3SqiUcu3FzIIP8jdw1qJZEbxNPjKzi7q0BHKyRW3h3TA412ILPD3M8+SjXg4omNdIB71x9/u11d/Ng2ePfdXr/rbvX88TrD/RhjcSp4Jm7ljJ9VAbfbt7Gvc+/3qWyEwZYbMHnyytVLN/UtZbPR24YwaJZCdTUGxl+9RddKnui0EB3JqaHAvDJ2tOv9XP3svPxdFM73Db11m/IP9Y7UX/mhxcCcMezW/hqY16H+/bmv58rjA9psgWf/z7kzfIcTxfXSPQH+6q03P5zAI+NrCbd38DDw6q5ZlMg9SbX9Pz0Z2ktwWdxg5pXDnm7uDZnLnnkFi6REhMJwKG8wi6V06rhjgXW8To/7la6HHz2tvMnxaJSKTQamlnxU8eBkxBalYU7BtYC8GOxmwSfoksamhUe2uFLrVFFsHszSxKlx6U7VC23jSqDhECu5NT2+zc+fpb9WTvsXrcAF8y4nIkjZmIyy0y/052Hm46o0GAADh8t6FLZqUMshPhCsxle+c71F4/W7vdVWwvR15tcXJved+lf1qBWjgf5abG+PH7LKBfWqH+bEtZEiLuZZovCq4d8XF0d0Q9VGVS8n+3Bjal1zI9u4K1MLxqapRW0K1pbjb200unuSk4NQEsrCskpOGL3upeHD6OGTAJg296NzqyScIHk6AhULUHNkfyutYBOT7deMLYeUSit7vWqdUl6YgApMb4AfHwadr8D7MuuavO7Ri03up6YHmFNtbS1XEdpo+sfoET/9G2hB9el1OOpsTA2xHBKZ0+YNfMcjmQeIDv7sKurYlNrtF7HvDVmF9fkzHZKjGCeMX4Bbjp36hpq2bT9hz47jk7nxqWXXs7cefOJiY6hqrKKdRvW8NKLzzB79tncd9+D7Nq1g6VLr7Yr+8zTLzF23ARefOFpPlz+AZdcsoi58xYQFRlFY2Mjmzat5+WXn6OsrMzhsXtavjd4e7hz5dkzmD12BDGhwdTWN7B13yGe/d/nlFZWseXNZ1GrVFz24D/Yl33U4XsMTUnksplTGDEgiZAAfwwGI1mFJazYtIUPV6/DaLJvwb5n8UKumj/T4futePphu9feXfkjjy9bbve6osCQWGsAui2zK5+8rYYma0tlk6Fnre0XTrO2fpZWNrLp/9k77/CoqvwPv9OTSe+9hwAhoYRepYOioCgqqNhQXBVc6+qu/tZdd9W1YN9d17YiuhbALkiTTui9k957b1N/f9xkQphJz0yCnvd5eJjMuefeM3fO3Pu533aOFVq1Rwe7svH1WRxPLePaJ5vn9dO3D+HOObEAzHp4AxdyJJdsoLczu/59FcdSSrnuqV+s9hcT7Mbd1/RjXGIAAd5O6PQm0vOqWL83h5XrUqipt22B9XJTc+CDawCYuvxn6nVGHlowkElDA/D1cKKgrJ4Ne3N4e+1pKqrtlxV67aRwFs+OJS7MjQa9ieMpZbyz5jT7z5R0aj899f05GhmQ4KkD4GBx5zKYI0NiefnxjzAY9Cx6fBrhgdFcO/0W4mOG4e7qQWFpPpv2fMeP277C1IYXKS4ygVkTrmNgzGC83H3R63VkF2aw8+BGNuxci8HYel+ZTMYVI2YzY/xcIoJj0Rv0nMs4wWffvUtOYTqfvrwZuVzBQ88vIrewb4Wj9IXzp1AomDzyKiYMn05ESCwuzq4YjQYKinM5fHovX2/6hKqajj1Vl+vkpFQpiHM3kOjVtwVoYGAoScPGkp2dzo6dG8nMSuvtIVFjkB7+RN3P3sXuArS+oY5Fj00DwGC0vkHKZHJmjr8WgK371qE36OwyDnd3d95881369x9oec/P35/r59+I1llLSal0E8zMTLfZPyIyEoDCokLefPPfDBkyzNLm5OTMVVfNZfDgody++CZq6+p6vH93CfX35T9PLSe00fUN4OOhYvbYESTERPLoG++hkEs/yvS8Aqv+MpmMRxfNZ/FV01q8r3JWkBgTQWJMBBOHDOL+l97BZG75o44KCezUWDNsHB/A3RlcnaTXaQVdtx6VV+ta/N8VVEoZV48PA+CbHZkYTdYXsuzCWkwmMyG+LeP8IgJdSMutIirYjYggV4sADfV3ASAz3zqu68oxIaxYPgq1svlzq5VyEqK9SIj2Yv4Vkdz61+0UlLY9d3w8NLy2fBShfs1jCvXTctfV/ZicFMT1f/qFypqe/w0+cUsCS+f1t/ztrIGJQwIYM8ifJS/upLbB2Gqy06X0xPfXG7irTJYbXlp15wRosF84APkluQwZMIrH7/o7alWz6Aj2D2PxvAfw8fTjv1+/ZdVfJpNx29wHuGbKTS3eVyqU9AsfSL/wgQwbMIbn//M4ZrO1VUihUPDI7X9l1OBJlvc0aieSBo4lNmwgL334R+RyBUajkcKSznk1HEFvnz8XZ1f+uPRl4iITWrwvV6oJDYwkNDCS8cOm8eRr91BW0TEjRGq1ijh3AyF2LlC/fNnTODt1LFZ53/4d/LJ1XYv30tLOERgQTGhoJAtvvoeMjBR27NxATm7vPaQ0hSyo5GbkMrBx+RY4AIdYQNsSlUkDRxPgIyWkbNz1rd3G8Mwzz9G//0AMBgP/+98nbNu2herqKsaMGc+Su+/jzNnTAGRkpFv11WicCAgIAmDGjNmoVCoef2w56emp+AcEsnjx3YwePZbQ0HCunnsdX37xWY/27y4qpZK3H7+fUH9f9AYDq9b/wuYDRymrqiIuLIRHFl5nsVAWlpZTW2+9Isvv5s9h8VXTMJnNfLttD9/tSCa/pIxgXx/uumYG44cMYtzgeK4aP5Ifdu5r0XfFp2v51+ofLX8/cdv1DOsfy66jJ3n7qx+sjpVZWGTzc7heVB+4ss6MZFPqPKVV0uer6IaAmZwUhJebGoCvW3G/6wwmCsvrCfR2xlmjtFjuIoPcOJlWRlSwG1FBbkAeAKH+0kU+45JSTuEBLry6bCRqpZySigZe/+okxy6U465VMWtMMLfMiCY62JXXlo9i0bPb2hz30rlx1DUYeGBFMuczKwnwceb22TFMHxlMdLArTyxK4On3DnX5vNhiWD9vi/jMLKjh1c9PcjKtHC83NTdNi+LxRQnUNxg6LEB74vvrDVwvijer6mTmcnCA9LBTV1/DvTc+xjebP2P3oU3U6+rpH5nA3Tc8jLurJ1dOvJ5vNn9GeWVLq/KCWXdxzZSbMJlNbN37E9v2r6e4vBA/r0CunXYLQweOZujAUUwcPp3tB6yrliycs9QiPrfuX8fWvesoKS8kPDiG269dxnXTbwOgoCS3TStgb9Hb5+/2a5cRF5mAwaDn602fcOTMPiprKnDWaEmKH8OCWXfh7enLvKkLbQpgW1TppDnk1sfjGHfu2syxYwcZN24KiQnDiYiIISLid6SknmXHzo0UFDj+gUXb6Hqv1MuF+OxFet0FP3uiVH7lVMoRcgptu327y9ChSUyYcAUAf/nr02zauN7SlpGRjo+3D7ctvkv6O9NaTISFhyNrjFl0c3Pn3ntvx9h4kc3OyebIkUOsWrWaqKhoRiSNtBKQ3e3fXW6YMp7o4EBMZjMPv/Yfth85YWnLyi8iJTuXb17+MwBpeflW/YN8vFkybzYAL678is83bLW05RSVcPDMeb56/in6hYcyfvAgKwGamttynx5uUtmLE6mZnEzreOyk+iJ9YuxG0H1ZlSRcuuNuvn6S5H4/mVbOuazKVrfLLKgh0NuZYB9nUnKrUMhlhPlr2XIwl7oGAxEBLpZtm6ySWZcI0MWzY9GoFNTrjNzw9C8tao3uPlFIXnEdjy9KYHS8L4NjvDmWUtrqeBJivJj5+w0Wd31KbhW7jxfy3z9NYOKQAOZNCufZDw9jMPbcVfmm6VEAVNcZuPGZrRSV1wOQBhw6W8JLD4wgIdqrw/vrie+vN1DLm8+psZOhZ8F+0nzrFxHPG5/8hZ0HN1nadh/Zgs6g4w9LXkAuV9AvIp79x3dY2n29Apg/QxKIH619k/U71ljaCkvyOJVylFce/4Dw4FiGDhhjJaB8vQKYc8UCAD7/8T3WbFxpacsvzqGwJJeXHvsQgJyC9M59MAfRm+fPWaNl0ohZAHyw9nU27W5ZOiwt+xwNunriY4ZSU9fxrPYmmX/xvLIHK1e+A/KOeZwaWvHeVVaVs/7nr9m7dxvjxk0jfuAQYqL7Ex0Vx7lzp9i5exPFxbY9Xz2JUm4m2tXIDRHSONfnONn9mILW6VUBGugXypABowDYYEfr55w5cwE4evRwC/HZxOEjhywCNMuGCz4yPNLy+pVXX7CIxyZMJhMHD+4jKioaD0/rG2l3+3eXqyZI53jn0ZMtxGcT6XmFFJdV4O/tSWqu9UXg6omjUSrkZOYXthCflvGbzRxPyaBfeCiu2raXMZPLZIQ1hgFk5Nv/gmOLjftyGbz4W/SGrgWge7qqmZwkhRWs2Zre5raZBTWMGuhLsL+WlNwqQvy0qJRycotrKSyrJzKouQZdiF+jC76gusU+xg7yA+DHPdk2C91/8MM5HroxHrVSzogBPm0K0E/W244V/XjdBSYOCUCrURAZ2BwW0BMMjfUG4Kc92Rbx2XL857m+sZpAR+ju93c50mTBO37+YAvx1MTRM80PfU6aljfVK0bMQqFQkF+U1UI8NWE2mzifcZrw4Fi0zi5W7ROHz0SpUFJSXsjaTaus2tNzLlBeVYqXuw+5djIidJfePH+hgZEoFNLT89HT+6zaAX7Y+iU/bP2y4x/IgZRXlPXYvsrKS/nxp69ITt7KhPHT6N8/kf79BxEXF8/pM8fYtu1nKqvK299RJ3h7dBkDL1nxqEIvZ22Glg/OW39fAsfRq2mYs8Zfh0wmo7K6nL1Ht9rtOEMGS/GWO3fadk/KGl25RqOR7Oxsq/aISMmCU1CYz4Xz52zuQ6mUtHxlpXUQeXf7dweVUsmgKOnmvu3QsVa3U6uk46fZEKBJcdEA/HKw9f6ejVbN4rK2Lx7Bfj6oGj9ra7Ge9sZoMlNTb0DXRQFzzYQwVEo5eoOZ73dZz5eLyS6UxGSIr3Shi2gUnOl5NaTnVVv+hmYLaMYlMaA+nlKsWmorolBvMJORLx3Hx6PtZITWhGX6Rcd0c1G3uY/O4uUu7a9pjFbHzrX9fmt09/u7HAnykwTU/mM729224pIb+IDowVLfE61XGHFz9QSgrNI6/jA+ZigAB0/usRnfCFgSd+zlxeouvXn+dBeFoE0aORO5vGOhJr9mSkqL+Pb7z/no47c4ffoYRpOR+IFDiI0d2H7nHqBCJyenToHBLKp69Ca9ZgHVqJ2YOvpKAH7Z95PNBKWeQK3WEBIqXXzOnT9rc5uQ0FAA8vJyMBis3XoR4ZKAPHfmdKvHCQuTRF52tnVgdXf7d4fIoACUCuk543xWns1t3Fy0FgGZnmvtgo9pLBq/aPYUbpw+yaodQKOWkioy8m3HbzYREeRveZ3ezrZ9labs922H8yittI6XvZgmi2WIn2QZjgxsEqBVZBbUMHFIAGqlHJ3BRIifFp3BREFZSzeWqjHxqEHfemxdU0Z4e2WS6lrJlM8tquWeF6UbbEoPWj+lMbU9/rY+lwC83H3QOkkPMKnZZ2xuI5fL+WDN6wCkZbW8zoUFSdefKyfdYEn4vBSVSnpIyCuy8QAeLD2ApufYfnjWqJ3w9pCs9DkFfU+A9vb5y8xNJTs/ndDASG6+6h7mTl1EZm4KeUVZZOSmcPTMfrL7aOiCvSkqyufkqcNotVoiImLtcoxnj7hbwreUMjP9PQwsjatm2YAqzGb4Nqttr53AfvSaAJ04fAZaZzfMZrNVTExPEhYegbwxfiUjPd3mNuERkVK7jfhPqV0SHGnpqa0eJyJCukjZSmLqbv/ucLHgS7MhLgGiggNb3UajVhPgJT3dqxQKVIq2n97Tcm2LXMt4AqXxlFVVU1XTuWUc+0KseGyIG4mN8Yprt7cfv9qU0d5kAY0KckNvMJNdVEtaXhVyuYzwABdScqsI9tWSWViDuRc+aIPeyJZDtueHoGfo6tca7B9ueZ1TYHvONejqbbqH1SqNRRwqFUqUirYv+Zfu30njjJeHb2ObbXEZ7B9miXFvbXy9SW+eP5Bc9H9/9zHuvfExhgwYhdbJhQHRgy2WVYBdhzbx9mfP2zSAtIe9rxeeXj4oZB1zltbV11Jb27E41piYAUwYP43AgBBL35KSnveKFTe0vGdl1ijxVJu4L66aGyJqhQDtRXpNgM6eMB+AY2cPkF/cudVwOkNUo7isq6ujsND2DTaycZusVgRoWLgkIFNTbRefdHFxwddXukinp1lv093+3cHX0wMAs9lMZSuCb/IwqTRIXYOOwrKWIQARQX6Wm8uU+5+kpKL1hJuOEBEUAECGDVd/e+j0zVdaTeeq2PQY8xutnxXVerYcaF+wZRZeYgENciGrsAajyWxxtUcEuVJVZ0CllNsswST4daC7KHFO3Yngp2B/yYNTWV1OdW3nrNNBF4nDe56ZR3lV6/HBNo/t1yzecotse2dCAyMBqKguo6auZ63nPUFvnr8missKeP7dx3HTuhMZFkeofyThQVEMHTgaX68AxidNJ6cgg69+/m+H9+nUmHxUb7KvG3nxrb/rVhmmS4mNGcD4i4RnfUM9Bw7sZP+BXeh0bXuUeoqCOkmUBjgbkdE3jBu/RXpFgA6MHkxEiGRu37jnG7seKyRUuoDm5edibuVRMTJCcjFl2EhA8vcLQOss/fhyc20L5bi4AYAk8lIvEZDd7d9dDAbJ5SqTyegfEcqZ9JY3kWA/b26YNhGA9Lx8q3MU7i89/dc16LotPgGimgRovnXh9vaorGu+0Hq6dL0MU1eRy2RcO1GaT9/tykTfgVTmkooGauoNhDTGd0YGulpc3OmNMZGRga6UN2Z0ZxVYx0M2JdtoVK1bn5vaejJ7vacwGNsef1uf69dEpb5ZdXqpjXT08hvsLz30dCXBJ9BXCp9p0NV3STwF+knhSfUNdValiZoIC5S8N33R/Q69e/4upaq2kuNnD3D87AEAVEo1f1n2Fv0i4hkyYFSnBKinurmU0OVAbMwAxo+bSmCgNKd0Oh0HD+1m7/4dNNT3fO3rtlDKpOukiADtXXpFgM6eKFk/yyqKOdBGYHdP4OkpuY+Netuxb4MGJeLrJ4msTBvu76YC8gCGVvYxceJkAFLTUqisbCnSutvfFhHhMQxKGEZdbQ17921v0+VxPCXd8vrV5Ut4/uMvOHY+DY1axaj4/tx73ZVk5BfiGRtlMwHJ20Nar7o18d5ZmkICbBW7b4/qeiiqBD936BdsJvmcYy8f4wb7E+AtWTJbq/1pi+zCGvqFuqNWygnxc2HTgTzL+wajmYgAV0t2+KU1QAGKyxvw83QiKtj22uFKhcySzFRcYZ1l3pN0ZRaUVerw9Wh9/BdXAnAEA/sn4u0jzcOSkkLOnD3ukONWG2QUNcjx05jo52Egubhjq9c0ZXB3xb3t4SqFi3T19+vemFzToG99Xo0ZPBmA3MKOjc/R5783z1976A06UjJP0y8iHqOpc0l1sW7S/SS92r4PcG++9bdu9Y+M7McVE2dYhKfBoOfw4b0k79vWYXd9T9O0BnydQSasn72Iwx+dvNx9GDVYqsm5OflHq5JEPU1NjTTBo6JjLG7uJhQKBQ888HvL35lZ1heoiItKKI0YOcqqPSY6lvnzpRp5P/5gXUqqu/0vxcvblwU33EnioCRGjZzIdfNuaXP7sxnZbDlwFICwAD/+9cSD7HrvVba88yLP338HK3/ajLNGCqC3FSNaUSW57bVOGoYPsA4S16jV/OG2BTx332LGDY5vcywymQz/xnjSksquueqOZ0iic/wAx1825jfW/kzJreLohY6XJskqqEEulzG0nzdKhYy0POmzG4xmcopqCQ3QEtgobDNtZIonn5SSteaMDSHY19oVdtecfpYVkvaf7tyylp2luq75ISo8sGPC8WiKdK6uGhtqEfAX07QsqaOYNHEmE8ZPY8L4aShVjo3lOF4m/dbG+XXc1djkBu9Khnl1jTTXnDTOxMcMsWpXqzTced1yHrjljwwdYH19qm10qXu4ehEaYF0q6+rJNxLU6OLuqIXR0ee/N8/fgtl3seLJlTx2599t7l+jdmJY/FgALmSc6vC4wl0MhLpI986mOdVXmThhOoGBoZhMRg4dTubd915hy9afek18ArgoJLFf3Y160oLu43AL6Ixxc1EqlJjMJjYnf2/34x07fgSQyhy99vq/+Oc7b5CVmU5waBh33nGPxUUNEBsbh9lkpqSkuZRGUwml/fv3smTJfSgUSnbs3AZmM8OHj2DJkt+h0TiRlZXJmjXWddy62/9SQoMjUCianxtCQiKQyxVtrl/8h3c+YvmNc5k7aQweLlr0BgNHzqfy3jfrOXD6PH+642bAdgmm5JNn0On1qFUqXn/kPl5ZtYYj51ORI60Lf+c1M4gODiS/tIwX/vtFm2M3m83UN+hwcXZiwbRJ5BWXUl3bbFnJKymltB1huuGIjKmJZuKCYWikmSPpjrmAuDormTlKWs1q7dbOWVKaMuGHD/ABWpYdysivJtzfhUxfaZvMQus43ZXrL7BoZhTOGiVr/j6F1788xYnUMmklpNEh3DJTCiHZe6qYE6k9V7PPFmm5VZRX6/B0VfPs3UN5+bMT5Be3dJ9lFNS0WM7z801p3DA5Aq1GwVd/m8wrn53geGo5ni4qbpwWxcAIDwrL6vH3sn9RaFdXNzy9pO+hob6OM2ccY/1sYkOuE1MD64lzNzDUS8eRdsSDUqHE31tKEsztggXv+LkD6A06VEo1j9/9Aiu/fZszaceRIyMuKoG5UxcRGhBBSXkhH6x+zar/6ZRjmMwm5DI5f7rvVT7+5i3Scy7g4e7N5BGziQztR1VtJW5ad3Ly2xd4jj7/vX3+qmsqCQuMIiwwit8v/jOb9nxPSUURKqWGsMBI5k1dSIBPMDp9Axt3d7wW9o2R0m+utEHOgZJeCojvICajkWPHD7Br15Yer/HZVZosoDV6IUB7E4cKUIVCwfSxUlH4w6eSKS6zfx3I/fuSOXL0MEOHDCM2ph8rVrxtaTt1+gTPPvsnVq/+DqVSxWsr3qGuro6pU8datmnKTj9z+iR1tTUsXfoAS5c+0OIYBQV5PPrYMpsB1N3tfynl5S0tXFXVFW2KT4AGnY6XV63m5VWrcXHWUFuvs7iUBkVFoFJKLpzUHOsM9orqGl5ZtYY/3nkzHi5anlt6m9U2ZzOyeWjFuzaX8LyU73ft4+bpk0iMieC9Pz7Uou0P73zIut0H2ux/4IKMlDwZMUFmHp5n5oF3ZVTb1+sMwJVjQnHWKDGZzHyzvXOWlKZEpElDpRthWl5LATp6kC/xkR6YzWayC62tApkFNTz61n5WLB+Fv5cTzy9NstomLbeKh9+0XeS6JzGazLz06QmeX5pETLAb/35srNU2D65IZl1yc7zz4XMlvPfdOe6ZG0eIr5bXljdbigxGM3e/uMvmZ7IHYWFRltcnTh3uUtZxdzhYoialUkmMu4HfD6rmwWQvqttYljPQN9RSN7IrFryq2ko+/vptlix4BFetG/cvfMpqm/ScC7z0/lPUN1jH4RWV5bNp9/fMHD8PX68AHr2z2R1bXVvF26ue48l7X2ocX/sCz9Hnv7fP35a9PzB1zBwiQ2IZnzSd8UnTrbbR6Rt445O/djgZd7iPjlnB0rG+zNBi7OO1LNes/cTmuelNnBujFnSmyyN+9teKQwXo6MQrLCU9Nu6yb/JRE2azmccefZClSx9kypQZeHi4k5+fz8aN61m16iPq6up44YXn+N19y/D18yM7q+VFqqmEUn5BHis/+ZClRYVMumIK3l7e5Ofn8csvm/nkk4+oqrIdu9nd/peSlZ3O3v07GDJ4JPW1Naz7+etOnY+aupYiceKwQQBU1daRmmM7q/vzTdvJKCjktiunkRAdgYvWmeLyCtJyCvhuRzIb9h7q8PrPL638kuKychZMm4SflwdyWfPFMyOv/cQkkxlWfCfjjSVmwnzMvHCrkac/U1DRuYpOnaYp+33PySLySzt3MW3KbB810Je6BkOLOp9peVVoVAqGD/ClsLSeep3t87guOYdzmZtYMjeOcYn+BHg5oTOYSMmpZN2eHD7dkGpzhSN78MXmNMqqdCy5Opb4KE+cNe1fRl5cdZwzmRUsnh1L/3B3dHojJ1LLeWfNGZJPOa4ebHhotOX10WNtP+zYA5MZVpx2442R5YRpDTyfVM4zhz2oaCWRJDhAch8bDHoKStoucdYaP+/6mrzibK6efCOx4QNxdnKhvLKEnIJMtu7/ieQjW9usw/zh2tcoKstn2ug5+HoHUlFdxrEz+1i78RNC/JvHV1jaflUIR5//3j5/Dbp6nn7jd8ybupDRQyYT5BeKSqlGp2+gsCSPY2f38+O2Lzt07gCSfHT8eUgFchmcq1SyNqPvlxDqa+IToLLR8hmkNaKWm9HZuZKAwDayoIBYEYPbCs7OzmzevBuZTMayB+/lwMHOWZi629/ehAX68flzT+KmdebLTTv420f/6+0hdZhpg808db0JuQzKa+DT7TI2H5NTboewolA/LVvfno1MJuPRt/d32gIq6DssufthfLz9yMnNYtWn/+q1cUwLqufJhEpp/urkfJamZXOeE876hRcAACAASURBVOU6ayEa4B1EgHcwKpWa7IJ0Cko7J6Ts2X/e1IXcOvd+MvNSefQft7e7r75y/i834twNzAurY2ZwHXIZ5NUpeGifJyUNv40KEj1NvIeet0ZL4UrJxRpWp2spaZBRolMIt7wD6dW14Ps6YeERlhpw6RmtF5G3V/+ews/LA//GagAA7m5ahsRGcduV03DTOlNeXcO/v/6x18bXFTYfk1FZJ+dPN5jxdDHzwJVm+gebeH5Nz7tU5l8hfY819QZ+3pvb4/sXOAat1hUfb6nixdGjvfswuDnPiUq9nD8mVuKpNnF//2r6uxt4/ri7ZZvhA8dy97zllmUkm8gryuLzjR+x/eCGNo/hiP4hAZFAx9zbfen8X278a0xzCajDpSr+dszD5sOKoGOcqlDxU44TV4XUM8a3gTG+kmfwrdNufCMK0zsMIUDboCmDvbq6muJi6zV+7d2/p1i24BquvWKczbaisgqWvfovisu7X+PT0ew/L+PW12QsmmTm6hH2Wxf82sbs93XJOdQ1OMbNLeh5whvjDxsaGjhz9lgvjwb2F6u5bYcPi6JrmBPa0k05e9x1LL3+UcvfGXkpVNdVExUcS5BfGMtueorI4H6s/P4dm/u+eebd3DTrTrv3D2nMjM+9pAZoqH8E2ZfEhPa183+5kVqt5NNUF7bla0TpoB5gxUl3TparmBNST6SrAa1SnFVHIwRoG4Q3CsiMjLRe6d9TRAYGtPi7pq6etLx8fjl4nM83buv0kph9iep6+M8GGR9uVhDoZZ9jTF2+3j47FjiUpgSYU6eOoNc7NvmoNaoNMv5zzpUPL7gQ6Nz8ELV534/MHnctW/b/xHfbmqtLqJRqpo2aw93XLue6yQsZFjeSVT+9y5n0E2hUaob2H83UUXPoHxFPfkkO63attWt/vVx6ICsuL8Db3adF/6f/uYyz6Scsffvi+b9cWLLbm7RqcbvuSczA+hxn1ucIi2dvIWJABQKBoA+iUqrRG3Q224YPHMvS6x/FzyvQZnttfQ3Pf/gHTqYc6bX+f33v0RYCVCAQCC5GCFCBQCC4DFEp1cy94iZGJ04iKjgWvUFPYWkeyce38/32L9tdl723+wsEgt82QoAKBAKBQCAQCByKSKMTCAQCgUAgEDgUIUAFAoFAIBAIBA5FCFCBoJeRyWTERgYyNCGq/Y0FAsFvjmkTE/H2dO3tYQgEPYrCzdX72d4ehEDwW6VfdDB3LZzKtImJGA0mjp1ufz1tgeDXhJNawYEPruHxRQmAjL0OXJr1cmH5kquYNGYg3l5uZGYX0aAT9YgFlz+isJhA0EvMmjKUWZOHIJPJMBiNFBRX9PaQBAKHM3NUMG5aFQDfbBcPYLbIySslJMibUcNiGdAvhI8+/4X0zMLeHpZA0C2EBVQg6AXmTE9iZqP4TD54jv98sokzF3J6e1gCgcN56rbBRAS6sv9MCR/8cL63h9Mn2X3gLGcv5BAe6oevtxtJCVGcvZBLZdXlu4iIQNBrFlAvT1+mTb0GmUxGesZ59h/Y0VtDEQh6hIUzruCpO24it6iU2b9/utXtBg0IY/qkwQB8u34/W3ef7NRx/nZPEgtnRFFZq2fYHd91a8wd4f0nxzMlKZBvd2TxyFvdW8M7NtSdN5aPYkCkBwDbjxRw5/M7e2KYVkxNCuS9J8ez5WAe9/xjt+X9RxcO4v7rBgAw78ktnEgtA8DNRcWRj+ZSWaNj2J3f22VMneX4J9ei1Shstl3xwDqyi3pGgKR8eT0AD72xjx92ZfXIPjuCv7cT4xP9AVi7zbb183Kdf63R1d9velYRb773I/feNoPoiADuXjSVF9/6mvoGsaqU4PKk15KQhg0bi0wmo76uliPH9vbWMASCHiMmNBiA1Ny8VrdRKhTccPUYAA4fT+20+LycWTQzim9fnMqASA/MZvuXHy4oqwfAx8Opxfvh/i5k5FdjNJkJ89da3vdt3K6gtN7uYxNIXDshHLlcRr3OyE977Ct8HT3/7EGDzsBHn/9CbZ0OD3cts6YM7e0hCQRdplcsoNFR/fHx9gPg4OFd6HW2l5sTCC4n+oUFAZCWW9DqNkMSIvB0d8FoMvP9hkOOGlqv4u6i5uX7hzN9pCTQ12zLQAbMvyLCrsctKm8SoJoW74cFuHImo5JAH2dC/V0s7/u6q4Fm4doXuOn/tqKQySx/9w935x/3j+jFEfUsTXNg4/5cqmvtk1jTW/PPXlTX1LN5+zGumTWCMcPjWL/lsEhKElyWONwCqlapSUgYDkBGxgVy8xzn7hEI7InFApqT3+o2SYnRAJy9kENZRbVDxtURnDVK7p0bxzXjw3p836MH+TJ9ZDAV1XqWrdjLE+8cwNQJA9Szdw1l4tCATh+3pKIBo8mMT6OwbCI8wIXKWh31DSZC/C6ygHpKFtD80rpOH8tenEor53hqmeVfSk7fXN6yK/MnMdqLfmHugCQK7UVvzT97su/IBYwmM04aFQPjev43KxA4AodbQBMTRqJRO1FfX8uRo8mOPnyv0S+uPys//gK9XscVV4wmOjqWxYvvYtjQ4Xh6eZKXl8e3367hiy8+xWg0trqfhMQhXD//RoYOHYavrx86nZ709FR+3vATa9d8icHQ+pOwQqFgzpx5zJx5JbGxcbi5uWEw6MnJySE5eRcrP/6A8opye3x8AJQKOXMnjeWqcSOJCw/B3UWLwWAgq7CYXUdP8f53P1Ne1bYoG9wvmpunTyJpQAx+Xp7odHpScwv4afc+vty0Hb3B9rlb+49niA0N4rkPP+OHnfu4fc50rhw3khBfbypq6ti07xBvr/6BqprWY+rkMhnzrhjL9VMmEBceTH2DjqPn03jtf19TWVuLu4skZlJzbQtQmQyiwiXL/9mUricc1TVI33GDrvV50lHUSjkLZ0Rx//wB+Ho48eyHR1rd1mw2o1TIuGtOP26YGkmon5aqWj3bjxTw5lenyCps/dztOFrAE/86QGGje/sio167JMZ4cdvsGPafKeG1z0+w91Rxh/oZTWZKKhrw93JCq1FQ22DExUmJl5ua0soGSivrCfW7yALa6IIvLLMtQGOC3bj7mn6MSwwgwNsJnd5Eel4V6/fmsHJdCjX1tn97Xm5qDnxwDQBTl/9Mvc7IQwsGMmloAL4eThSU1bNhbw5vrz1NRbX94vmunRTO4tmxxIW50aA3cTyljHfWnGb/mZIu77Mz8+dSrp8sWSALy+rZfaz9jO7Lbf61Rk/8fqtr6snNLyUs2IeYCH+OnEjrcN8J46czImkstbU1/LBuNbm5mV0eh0DQHRwqQL08fYmKigPg4OE96PS/Hdd7RJh0sc3JyWH0mHG8+MKraDTNsWnh4REsW/YI/n4BvP7Gy1b9ZTIZy5Y9wsKFt7V4X6lUER+fQHx8AuPGTOCRRx/EZDJZ9Xd1deW1Fe+QkDikxftqtYaoqGiioqKZPm0Wdy25heKinq/D56Z15p9PPMCQftEtj69SERMSRExIELPHDGfh//2DojLrckQymYxHF81n8VXTWryvclaQGBNBYkwEE4cM4v6X3sF0SXyXXCYjPMAXgLLKat7/08MkxjS73/w8VSycOZlB0ZHc/pdXMNo4f0qFgtcfWcqkoQmW95zUaq5ISiQ+OoK/vr/K8n5aKwJU66zB2UlyB+cVdF3ol1frWvzfFVRKGTdMieTB6wcS6O0MSELgbEbrpaB0BhN/XzqcGyY3nzuNh4L5V0QwdXgQNz2zlQs2LHTJJ4rYtD+XrobdbTuSz6AoT0YO8OGzZ69g1/FCXvv8JIfPl7bbt6i8Hn8vJ3w9ncgsqCE0QBKceSV15JfVE3qRBbQpVrTQRgzolWNCWLF8FGpls9NIrZSTEO1FQrQX86+I5Na/bqegHeupj4eG15aPanHcUD8td13dj8lJQVz/p1+orOn56+ITtySwdF5/y9/OGpg4JIAxg/xZ8uJOahuMrSY72aIr8+fS/lc3Wku/2ZGJsQMmyctx/tmiJ36/AHkFZYQF++Dr7d7hPn5+gYwfNxUAjZMzs2bM46OP3+rWOASCruJQATps6GhkMhlZWank5v626r2FR0QCUFNTzR+e+BOffPJfNm1aT11dPYMTB/PoY0/h6enFDQtu5pNVH1FS0vIp++6772PhwtswmUz8+OO3/PTT9xQWFhAYGMRtt97JmLHjGT1mHDNnXsn69T9aHf/3v3+chMQh6PU6Vq78gOTkPZSXl+Hi4sq4cRO466778PP359ZFd9gUwN3liVtvYEi/aPQGA+9/9zO7j56itLoaVycnJg4dxH3zr8bf25M758zgpVWrrfr/bv4cFl81DZPZzLfb9vDdjmTyS8oI9vXhrmtmMH7IIMYNjueq8SP5YWfLTNkgX2/UKqnO4LxJY6mtr+fO51aQkpNPoI8Xjy66jtGDBjA4NpKpI4awcd9hq+M/fut8Jg1NwGw28/XW3Xy/cy+FZRX0jwjl8VuvZ9Es6aJeXlXdqhXX2bk5FrG2rqHL57K0Supb0YUbmEIu49qJ4SxbEG9JwCksq+fdb8/yv41pNOhbt8oE+2rpH+7O8tf2svN4AV5uGq4ZH8qD18fj6arm70uTuOn/tln1q6rtnlXvza9Os/qXDB68fgDXT45kfKI/4xP9+eVQPiu+OMmptNbFfGFZPYOiwMddQ2ZBDeGNAjSnsIbc4loGx3hZtvVtjBXNv8QCGh7gwqvLRqJWyimpaOD1r05y7EI57loVs8YEc8uMaKKDXXlt+SgWPWv9+S9m6dw46hoMPLAimfOZlQT4OHP77BimjwwmOtiVJxYl8PR7PRsbPKyft0V8ZhbU8OrnJzmZVo6Xm5qbpkXx+KIE6hsMHRKg3Zk/FzM5KQgvNyk04usOut8vx/lni+78fi+m6RrirNW0s2UzWmdti7+dtdpWthQI7I/DBGhYWDQ+PgHU1dVQWVXOlbMWoNW60KBroKAgh9NnDlNd3Tfjm3qC8PBIAAYNSuTPf36KDRvWWdo2bc6nXqfj5ZdeR6FQMChhMNu3bbG0BwQEcfvtSwB47bWXWL36c0tbbm4OR44cYuXHnxMTG8eYMeOtBKhWq2XWrKsBWLHiJb75pqXAO3v2NHV1dSQNG06VHb4DF2cNcyaMBuCFj79k9ZaWZU9Op2dR16BjxMB+VNVaW5CCfLxZMm82AC+u/IrPN2y1tOUUlXDwzHm+ev4p+oWHMn7wICsBGhncHL+lVMi594U3LVmw5VXVPPLG+2x5+3k0ajVJ/WOtBGhYgB83Tr8CgBX/+5qPf9xkacsqKCKvqJT//e0PQOvudwCVovkGbzJ2PQu3rEq6cXXGXSuTwZxxYTy0IJ7oYGlJv84KhwmD/bntuR3sPl5oOf5bq8+gUip4YP4ARgzwJSLQlYz8no9tzS2u5Y/vHuLdb86ybEE8cyeEMSUpkMnDAvh5by6vf3mK89mVVv2a3OnejeIyvDHpKKuwltyiOotLvqxKZxGghZdYMRfPjkWjUlCvM3LD07+QWVBjadt9opC84joeX5TA6HhfBsd4cyyldctYQowXM3+/weKuT8mtYvfxQv77pwlMHBLAvEnhPPvhYQzdmB+XctN0aYnX6joDNz6z1ZKclQYcOlvCSw+MICHaq4099Mz8uZjrJ0lWzJNp5ZzLsv7ebHE5zj9bdOX3a4smT9fF15X2yM7JpLi4AF9f6Zp4+HD3yloJBN3BIQJUJpORMHAYAA0N9QyKT7K0OTs5ExkRS0hwBDt2/UxJya9zdYfwCOmCe+DAvhbis4l9e/dYXjs7tSwbc+WVV6NUKsjKymwhPpswmUycPHWCmNg4XFyt1wuOiopBqZQuUsnJu63aAT7/fBWff77KZlt3iQkJQqmQXJe7j522uc0n67bwybotNtuunjgapUJOZn5hC/HZhMls5nhKBv3CQ3HVOlu1RwT6W16/sPIrqxIsVTW1pObmMzAyHGeN+tLuXD1hFAq5nKyCIlb+tNmq/WRaBhU1tXi4aElrIwGpp9i4L5fBi79Fb7AOFbDF5GGBPHFLAv3DpdqHhWX1/Oe7s3y2oXPC4XxWpeXmfzFfbk7jgflSXc0BEe52EQBNZBTU8Njb+/nX2jM8dONArhobyuwxIcwcFcwPu7N5+bMT5BY3xwJeWooprFGA5hTVkFssCclQPxdJgHpKAvTSMkxjB0lxuz/uyW4hPpv44IdzPHRjPGqlnBEDfNoUoJ+stx0r+vG6C0wcEoBWoyAy0NWmK7mrDI31BuCnPdkW8dly/Oe5vo2M8J6aP014uqqZnBQIwJqt6R3udznOP1t09vfbkxiNBlZ+8i/CwqKoqamioDDX4WMQCJpwSBZ8cHA4rm7SxUsmk7Fj5wa++X4VP/z0BSdOHsRkMqFSqRgzegoKxa9zddDwsEgAtm//pd1ty8pa3sCGDJZqve3YsbXVPp4engCUFFvHbzbomt29V145B0Unnph7gnp985P+1RNGopB3btolxUlxo78cPNbqNp5ukvAuLrN2h0UGSze71Nx8MvNtP+AoldK8K66wvvEn9Y8FYOfRE63WDzQ3WiPasoD2FEaTmZp6A7oO3sCW3TCQ/uEeZBfV8tx/jzL5wfV89OOFTouHtDzboii3uM5isXN1UnVqn10lJbeK5a/vY87jm/l+VxZ6o4m5E8KYNiKoxXZF5ZI106/RuhkWoKW0soHaBqNFKIQ2upJ9PJwwmcwUV7QUaT6NwjS1FVGoN5gtoufSkk+X0pqwTM9vFrZuLtYPQd3Bq7EKQGvCLD23bcHWU/OniWsmhKFSytEbzHy/K7vD/S7H+WeLzv5+exq9QUdq2lkhPgW9jkPUXkRYDADV1ZX8su1H9I2CRI+O02eOUlVVwdgxU9E6uxAeFk1a+jlHDMth+Pr64uIiWV7OnDllcxuFQs6rr74IwNkzLa2EUTHS+bvxxoVcd90Cm/01GunGl5VlndGYmnKBtLRUoqKiuffeB7jllju4cOEcWVkZXLhwnn379pCWltq1D9cBLmTmkpKTR0xIEA8umMsdV8/kfGY2GfmFnMvKZc+x06TktF68PSZMKm+0aPYUbpw+yeY2GrV048nItxbgUUGSBfRcRus3uxBfn8b+1jU848JDADidbru/u4vWIoDbqgHam+gNZnYezWf38cIuC4e6Bts3TJPZ3Jj4JetUdnFPcDazgm93ZOLjrmFcor9Ve2GZ9PBlsYAGuFqypZsFqPTb9PV0oqSywcr9rWpMPGrrvDVlNCsVbZ+AulYy5XOLarnnxV0APV5qqcn70Nr4OzIfemL+NNGU/b7tcB6llR2Phb4c559AIGgduwtQmUxGQEAoAGfPH7eIz4vJzkmntKwIby8/AgJCfnUCtCn+EyAjw3a5jLq6OpvudY3GCX8/KV5HqVShVLb9hJ+Rbr1/k8nEww8/wB/+8CdGjx6Hi4sLQ4YMY8iQYZZtNm5Yz3N/+z/0dqhMYDKbuf8f7/DM3QsZNzgeV2cnhvWPZVijZRFg3e4DPP3uSvSXlJHSqNUEeEnWXZVC0W68U5qNVYgiggIa22yLw0BvL7SN2enpl1gw3V20eDWJyzzb/aNCAi2v21oFyUzvrL5y4Ewxg2O8uHl6NDdNi+KnPdm88eVpUnIv75jrqcODeGjBQEv8Ynm1jguXxBMWNcaA+rirkcmkjPNN+yXLT26x1Bbip8VZo0SrUZDWS+ekQW9kyyH7W8+7Qk/On9gQNxIbv6+12y/vRNSOzD9HcLmu6iQQ2F2AOjk5W9ybZWWt15srLZEEqFZrHcN4udOUAV9eXkZlZecuUGHh4cgaH+vnzJlGaWnXavYVFOTxyCMP4uHuQVz/AURGRhMdHcPYseMJCAhixszZZGSm8cEH73Zp/+2RV1LK/S+9g4erCwMjw4gKDqJfWBDjh8QT5OPNleNGkJaXz7/X/tSiX0SQn+XzT7n/SUoqOnf+nC4SsK0LyOYkpfS8wkvamsVleivxndGNLv56nY684rJWx6K/yHKkUjkuDOKFT46z+pcMHr5pEDNHBTFnXBhXjgnlu51ZvLn6tF1j5uzB1KRAHrox3nLjr6zV89EP5/nwx/NU17V8gGmK5/T20ODn5YRGpbCsn16vM1Ja2UConwu+Ho2rIPWhIvR9hZ6cP/MbrZ8V1Xq2HOibgrs9OjP/7IlKJd1X9XqxCpLg8sTuAvTieEN5W/4RudRmNnW/uHZfI6LRApqRkd7pvqEhkvW4rq6uy+LzYioqK9i/fy/79+8FpDqg//zn+wwalMjoUWPtJkAtx6+uIfnEGZJPnJGOr1Lx4dMPMzg2kvGJ8VYCNNxfSgCpa9B1WnwCRAT5WwRseisCNDJIitsqLq+wysKPDJDcalW1dVS0UqQ+tnEFpIy8wjatEReXXnJ1cWp1O3twPruS+1/dQ3yUJ4/cNIgpSYFcOymcq8eH8fX2DN5efdoizPoqU5MCWX5jvMWCVlNv4ON1F/jPd+eoqrGdUVxcUY/ZbMbXQ0OYv/Rwm1XYHG+ZU1xLqJ+2zXXgm5JFNG08NDS19WT2ek9hMLY9/rY+VxM9MX/kMqmEE8B3uzLRG3snBrKrdGX+2RO3xmtITTdKugkEvYndBWhdXR0mkwm5XI63tx8lpbaLnPv5Slak6mrHuzDsTVMGfGvu97bw8pYyWO3lvtXpGjh9+iSDBiXaLMBui4jwGAYlDKOutoa9+7ZTW2udGdzh4+v1nExNZ3BsJAYbx/f2cAO67maKDAyw9E9vxQXfZAFNt5Gg5OkuiRZDK6tTyWUypo+SksTaWoIToK5eR0VlDR7uLoQG+3DqXMcTMHqKU2nlLHlxF8P6efPIzYMYl+jPgimRXDsxgtW/pPPm6lMU9qG10AEmDAngsYWDLDf+ep2RTzek8u9vzrYbQ2gwmimr0uHlpiHEV6qQcPGKOblFdYwf7I9nY01KW6sgFZc34OfpRFSwm81jKBUyIoIak+Aq7HvuuvIrKKvU4evR+vgjgzruderO/Bk32J+AxqL1Ha392RfozvyzJyGB0r0hv7BzdUhd3dxx1kjfg07fQIUdV78TCNrC7lnwRqOBoiIpLq5/XGKL1X+aiIkZgIe79OPOzrl8LkwdpSkDvisW0KpGq5/WWcvQoUlW7RqNE7///RM888xfGT1mnFX73Xffx6efreGFF161uX9nZ2fGjp0AwMmTx9sdj5e3LwtuuJPEQUmMGjmR6+bd0ub2v5s/h7X/eIYVD91r+/gaNRMbVxc6fsFaoFdUSWJB66Rh+IBYq3aNWs0fblvAc/ctZtzgeKv2yGDJgllQVk69znZ8a1RjjKgtgdpkEfVyc6VfWIhV+73XXUmQj3QjaCv+s4mUDEnkJgwIb3dbe3L4fCm3PbeDRc9u48CZYlRKGQtnRDFrtPVn7G0ebrQ66Q0mPvk5hSnL1vP8ymMdvvkXldXh4qwi2FfKds+5yFKXW1yLq7OSQB/phmxrHfjkk9JD85yxIZZ9XMxdc/pZVkjaf7r7Xoq2uNjFGx7YMeF4NEUKC7lqbKhFAF7MnXOsf1ft0ZX5M7+x9mdKbhVHL7QeqtLX6O78swcBfh74+UqVZVLTO5f4eN28W7jrzoe4686HGBQ/rP0OAoGdcEgW/MlTh/DzC8bZ2YVpU+Zy6vRhysqKUSqVRIT3IyZGWqWjqDifvPwsRwzJYSiVKoKCGl20NhKE2mP//r3odA2o1Rr+8Y/XefPNVzl2/AhymYyEhCHceusdREZGUVCYz6uvvGDVv7KyguioGKKjYnjury/yzbdrKCwqRK3WEB0VzS233E5ISCgNDfV88/VX7Y4nNDgChaL5uSUkJAK5XIGpldCJ8upaYkODiA0N4qUH72L1lp0UlFWgVimJDQ3ijjnTCfX3pUGn46tLCtQDJJ88g06vR61S8foj9/HKqjUcOZ+KHGld+DuvmUF0cCD5pWW88N8vrPpHBkmW9bSc1i/STTGctpbQPHjmguX1m4/ex8urVnM+Kxc/T3eunzKB8EA/Sioq8fFw71AG/P4jF0hKjCIs2IfYyEAupPduHNzeU8Xc9H/bmDg0gEdushbwPYGvhxMuzi0vNU3lcpydlERcJKRMJpPVmt4Go4kvt6Tz1urT7dZYtEV+aT1x4R4E+TpjNpvJaeGCl15HNo7Blgt+5foLLJoZhbNGyZq/T+H1L09xIrVMWglpdAi3zJTKhO09VcyJVPsKq7TcKsqrdXi6qnn27qG8/NkJ8otbiuaMgpoWy3l+vimNGyZHoNUo+Opvk3nlsxMcTy3H00XFjdOiGBjhQWGZtGRpZ+no/HF1VjJzlBTqsnarY40MvT3/7MGU8dJDe2V1HWdTcjrcT63WEBggPSQYjSaOHTtgl/EJBB3BIQK0pLSIg4d2MDxpAi4urowcMdFqm7LyEpL3tl8j83IjLCzMEgfbFRd8RWUFb77xKo89/kfc3d15+um/WG1z/txZnvjDw9TWWVtvvv/+G665+lr6xfVn+ozZTJ8x22qbhoZ6/vznP5Kd075LuLy8pYWnqrqiVfEJ8PXWXcyfPJb+EaHMHjuC2WNHWB9fp+PJf/6XrALr8IyK6hpeWbWGP955Mx4uWp5bepvVNmczsnloxbvU1ltbJCKCpBjS9DzbQs/FWYOfl0fjNtYu+Iy8Ar7Znsy1k8YQ4ufD6w8vtbSVVVVz/z/e4dPnngDoUBH6sxdyyckrJSTImwXzxvH6uz9QV9/zlQc6y44jBew4UoB7D9egBPi/OwczZ1yYzbaRA3zY8uYsy9+VtXqG3fFdi23u+ceebq2PXlTRgEwmY/RAPwrL6lvUX2wSFBOHSFbwgnLr31BmQQ2PvrWfFctH4e/lxPNLrT0RablVPPym/VeVMZrMvPTpCZ5fmkRMsBv/fmys1TYPrkhmXXKzKDl8roT3vjvHPXPjCPHV8tryUZY2g9HM3S/usvmZOkN78+fKMaE4a5SYTGa+2W5dKs6e9Pb862niCb4NfgAAIABJREFUYoIZNUyyWv+y8wRGU8cDM8LDopA31mE+d+Ek1TWXdyUMweWNw6q+p2dcoKSkkLi4BPz9Q9A6azGaTFRWlJGZmUJq+rk2hczlSlMJJr1eR25e1wr/rln7JVnZmdx8860MjE/A1cWFkpJi0tPT+emn79iyZRMGg+0g+Pr6Opbedwe33LKYyVNmEBYahlqtoaGhntzcXPbtS+aLL1aR18GxZWWns3f/DoYMHkl9bQ3rfv66ze3rdToW/+UV7rh6BtNHDSMiwA+1SkWDTkd2UQnJx8/wyfrN5Ba1vnrM55u2k1FQyG1XTiMhOgIXrTPF5RWk5RTw3Y5kNuw91GqMZkRg6+51gMjAi7LcW0lSeu6DT8kpLGLepLEE+HhRUlHJziMnef+79Tip1MhlMowmk80Y0ksxm8189d1uli25Cn8fd+69dTrvf7aZmtq+kUjQl260TXR3TE1xnf3C3Dl4prhFW06R1GZZ5ceGBRRgXXIO5zI3sWRuHOMS/QnwckJnMJGSU8m6PTl8uiHV5gpH9uCLzWmUVelYcnUs8VGeOGvav4y/uOo4ZzIrWDw7lv7h7uj0Rk6klvPOmjMkn7Idl98VWvuumrLf95wsshnm0JfpS7+JuJgg7rx5CjKZjKzcEnYk264r3RrhYdGW10cOJ/f08ASCTiELCojte2mbAsGvnKTB0dx6/URkMhnVNfVs2n6Mg8dSqa7pWwlAAkF3CfXTsvXt2chkMh59e7/DLaC/BsKCfRg/agCjhsUik8koKavmzfd/pLKqc2L+ztuX4e8fRHFJIR98+LqdRisQdIxf57qXAkEf59CxVGrrGrj1hkm4ujhx7ZWjCAv2ZdWa7b09NIGgR5l/RQQymYyaegM/7xXLP3aFR+67xvL6fGoeK7/a1umHVScnZ/z8JI/P4cN7e3R8AkFXEAJUIOglzpzP4e+vrWX6pETGjujX28MRCOzCtY3Z7+uSc6hrEEXTu0puQRkbtx3j6Mk0ulKVLjw8GplMhk6n4+SpQz0/QIGgkwgXvEDQB1Ao5Hh7uVFUXNHbQxEIBH2MIH8v8gq7V2FhxvRrSBo2liNH9vHzxm96aGQCQdcRAlQgEAgEAoFA4FDsXoheIBAIBAKBQCC4GCFABQKBQCAQCAQORQhQgUAgEAgEAoFDEQJUIBAIBAKBQOBQfhMC1FdjJNDZiLOi6/lWCyeaCfQU+VoCgUAgEAgE3eU3kQX/9ugyBnroMQMplUq+zNCyOc+pU/vY8lcjJjNsOCLj/Y1ySqvtM1aBQCAQCASCXzu/CQtoEzIg1t3AHxMruSGitlN9U/JkyGUwe5iZ/9xvZFD4r163CwQCgUAgENiF34QFFEApMxPlauT3gyoZ4G6g1iBj/lZf9CZZh/cRH2bmkbkmogOgXifj4Q/lnBUrywkEAoFAIBB0CocI0IEDhpAwaHi721VVV7D+5zV2HctgLx2vjSwHYMlub9KqO7caqbPazIu3mUmMMFNcCXe8paC2wR4jFQgEAoFAIPh14hAXvEzWcSujvSnXNX/krgyrTifjz5/LqaqT4esOt08x9eDoBAKBQCAQCH79dM7810VkMkn0VVSWsW//tla3MxqNdh+Li7LZ4Fuj75r+Lq+B/22He2fBnOFm/rvFTJ2u74hsgUAgEAgEgr6MgwSoJM4MBgPl5aWOOGSruKiaBWi1seuicf0ROXfPMKLVwOg42HqiJ0YnEAgEAoFA8OvHIS54uVw6jNlkfwtne7g01gI1A3WGrgvQ8hpIyZdeD474TeRxCQQCgUAgEPQIDo0B7QsyTdMoQHUmMHVzQKkF0ukL9u7uqAQCgUAgEAh+Ozg0BtRsMqFUKokfOIyw0CicnLTo9TqKivM5dfoIFRX2d8+XNSYhqWSglpvRdaIM06VU1UkK1k3bI0MTCAQCgUAg+E3gGAuovFnkTRw/k/5xiWi1rsjlcjQaJ0JDIpk+9RoCAoLtPpajpSpKG+TIZfC7/tV4qU10VYIaG8WrWtFz4xMIBAKBQCD4teMQC6i8Uef6+QVRU1vN/gPbKa8ow8nJmdDgCKKi+iOXKxg1YhI/rV+N0Wiw21h0JhlPHfbk0fhKrg6tY25YXYv2t0678U2Ws92OLxAIBAKBQPBbxyECtKKyjLz8bExGIwcP76Khod7Slp+fTXVNNYkJw3Fy0hISHE5mVqpdx5Ndo+BkuRo3lZkg595PjBIIBAKBQCD4LeEQAXoh5RQXUk612n7u/HEG9B+MSqXCx8ff7gL0b8PKGeat51CJmpdPuFGiU1gSkip1DolKEAgEAoFAIPjN4hAB2h4mk4mq6gq8vXzRaOzr/u7nZmCYtx6Avx93b7EyUpfpC+n9AoFAIBAIBJcJfcbcZ9DrAFDI7TukMBcpvlRnknVbfGoai9rX64UCFQgEAoFAIOgofUaAKlVqAIx2LlbflJCv6IGVM71cpP8r68QynAKBQCAQCAQdxSEu+MjIfshkcsrLSygrK7Zql8tluLq6A1BbW2vXsdQ0rn6kkJnRKMw0dGM5zthAyfKZXtgjQxMIBAKBQCD4TeAQARobMxAvT1+qqirYtOVbDIaWZZb6xSagbrSAFhRm23UsFy+/6aLsugCN8DMT6iu9PpbeZwzJAoFAIBAIBH0ehyin02eOAuDm5sHUK64mPCwaDw9v/P2DSRo6jsGJIwAoKSmkoCDXrmOpMTR/ZK2y67GbC8ZLfUur4UCKiAEVCAQCgUAg6CgOsYDm5GRw6vRh4gcOxcPTm9GjJlttU1FZxp69W+w+lgZT82snRdeE4/AYM7OHSX2/2Cm3rIgkEAgEAoFAIGgfh5VhOnnqMPkFOfSLicfXNwCNxhmjyUhlZTnZ2WmkpJ6x6wpITYS6NCc51Ro6LxyTYsw8e7MJuQzO5cLa5J4cnUAgEAgEAsGvH4fWAS0pKaSkxPEZOwFOJlxUJqJcDSzpVw1Abq2C3NqOL+IeFwzzRpmYNcyMXAZ5ZTL+9KlMWD8FAoFAIBAIOkmfKERvb54ZUsFAD73lb4NZxhtn3Dq1j3/f12w5PZQKf/tKTnlNjw1RIBAIBAKB4DfDb0KAAhjNUKGTc6xcxWepLqRUdf6jpxbAqm1ytp2UYRZ5RwKBQCAQCARdQhYUECukVAeI8oc0Ue9TIBAIBAKBoNuIApYdRIhPgUAgEAgEgp5BCFCBQCAQCAQCgUMRAlQgEAgEAoFA4FCEABUIBAKBQCAQOBQhQAUCgUAgEAgEDkUIUIFAIBAIBAKBQxECVCAQCAQCgUDgUIQAFQgEAoFAIBA4FCFABQKBQCAQCAQOpdeX4pw4YSaBAaFUVJaxafO3mEym3h6SQCAQCAQCgcCO9KoFNDw8hsCAUMxmMwcO7BDiUyAQCAQCgeA3QK8JUI1aw9AhowE4f+EkpWXFvTUUgUAgEAgEAoED6TUBOnToWDRqJ6prqjhx8lBvDUMgEAgEAoFA4GB6RYAGBYYRHhYNwMGDuzAaDb0xDIFAIBAIBAJBL+BwAapSqkhKGgdAWvo5CotyHT0EgUDw/+ydd3hUZfbHP1OTTHrvmVTSIJSE3kKTKiAgFhRFUFawrm111Z+rrr131y7quiA2FEF6lQ6hhkB6D+k9k0nm98dNn5mQZJKZoPfzPD6Ge++Z+973tu897znnFRERERERsSBmF6ADB8WhsrGlpraGhFOHzL17ERERERERERERC2NWAerq6klocAQAx47vp16jMefuRURERERERERE+gFmqwMqlcqIix0LSMjMTiUnJ71lnY93AGNGTwbg+x/X0NjYYK5miYiIiIiIiIiImBmzCdDIiCE42Duh0Wg4ceJA+5USCRKJOCmTiIiIiIiIiMhfAbOoPkdHFyLCBwGQkHCQ2toac+xWRERERERERESkH2IWATpoYCxSqZSCS7mkZVwwxy5FRERERERERET6KWYZglcqrQGorq7Czs5Bb72NtY05miEiIiIiIiIiItIPMFsMKECgOpRAdag5dykiIiIiIiIiItLPEDN/REREREREREREzIpZPKDbd2zodL2Pj5qxo6eYoykiIiIiIiIiIiIWRvSAioiIiIiIiIiImBVRgIqIiIiIiIiIiJgVUYCKiIiIiIiIiIiYFYm3Z6jO0o0QERERERERERH56yB6QEVERERERERERMyKKEBFRERERERERETMiihARUREREREREREzIooQEVERERERERERMyKKEBFRERERERERETMiihARUREREREREREzIooQEVERERERERERMyKKEBFRERERERERETMiihARf7ySCUwJFBH/EBxTgYREXMjlcAQZw3xXnWWbopIP+WGoGq8bBos3Yw/LU7KRnxUDdjJzfsOlJt1byIi/YyhwbBqRiMhXjq2JkjYeVpi9jZYK2Uc+M9s7FUK3lx3jrfWnTV7G0RELMFQl3pWhVcQbK9lW641O/OsLN0kkX7IirBKbgutZEuuDR9fsKW4TvSdmYpKrmNpcBVTfWpxVjYC8PY5e37MtDFbG0QBKvKX5ZZJOpbGNyKRQH0DZBSaX3wCXDXCB3uVAoAfd6dbpA0iIuZmaUgVS0OqkAD1jRLSq8TXkYhhksvlhDhome5Tw3DXOp5KcORMqcLSzbpikUl0vBxbSoRjvUXbId7xIn9JVkxt5MYJwnDDxqMSPtoipazaMm1ZMFENwOHEIjLyqyzTCBERM7I8rJIbg4QbbmO2NR8n2VFWL3q1RAxzxwEXopzquT+qgmA7LS/FlvL3w86cLxclTE8Y76FpEZ9r01R8l25DcZ0McwehmeXs3X/LU4wZOuWy251POcnjb602Q4tErnTeuH8lk+MGs/nAUR56+5Nu2Y6J0LWIz/c3SVm3v3uez2dvH8YN04Ior65n6K0/d8u2Ix4u1owd5AHA97tE76fI5enN688SjHavaxGfHyTZsS5NZeEWiVwJnC1VcM9BZ56PLWOQk4anh5SxbL8L1VrLjFxdyYQ3ic+8GhkfJtlZrB3iJ6fIFUmYvw8ASZk53bJTyODeOUK8y45Tkm6Lz95m/rgApFIJtZoGNv6RadG2iIj0NQqpjnsjKwDYkWclik+RblHTIOGpEw5U1Etxs25gabA4YtQTpE2vvVKNZSWgWTygn33/Fv/d+LHBdc72Ltw8bzVh6ihKKkrM0RyRKxwbKyW+Hm4AXMjI7pbtxIE63B2goRE+/N3y31/Nw+9bDudQWa21cGtERPqWCZ51uFs30qCT8J8ke0s3R+QKpFQj5b+pNtwxoIrZfjV8kWxLTYPoBe0OzV5jW4VlK7+Y5Q1cWlFM3qUsvf/sbOx54LZnCVNHcSBhF29/9Yw5miNyhRPq541UItxAF7O65wGdPEi44Q5flFBQ1utN6xaDgp0J83cAYL04/C7yF2Cyt1Bq6XCRkoJay38AilyZbM6xoUEnQSXXMdJdY+nmdMq0qVcTFBRm6Wa0o6JeeH/ayRst2g6LRfAOiRzJg8uexUppzQ9b1/DfXz9Cp+tbNa5UWnHddUuYMXM2/n7+lJaUsnvvTt579w2uumoWjzzyOCdPnmDlylv1bN94/T1GjhrDu++8ztp137J48Q3MmDkHXx9famtr2b9/D++//xaFhYUG922qval88MhdjImJ4vVvvufr33exZHo8c8aPxN/DjZo6DbtPnOatb3/kUml5p78THaTmuqsmMjwyDA9nRzT1WtLy8vlt/xG+2bwTbYPxWm1ymZS5E0Yza8xwBgT44mCrQqvVkllQyL6Es3z882ZKKyr17B64cQG3zJ5q8Dc3vv603rKvN+3gxTXr9JZLJDAwQLjGjiZ3epidUlMneCrrNKbVpVsYL3g/C0pq2X+ywOA2i6cE8fzKYbz8zWnKqjTctzgKuUzK17+n8Nq3ZxgX48HTK4bi6WLD1sM5PPL+UWqNtCtc7cjyOWGMinbHw8kajbaR9NxKthzJ4fONyZRXGX+QSyQwf3wAC+LVRAU64aBS0KiDgpIadhzN48OfzpNdaDyLy1R7gBGRbiydGUpUoCPebirqNA2k5law7Ugun/92sVMPskImZdnsUOZPCCDQ246K6nqOnS/i7fWJnE0tZfd7M/F1U3Hvm4f4ZZ/hUAhL9l9beuv6MzcSYKCT0EdHC7uXwRzoG8rLD32GVlvPjQ9NIcArmPlTlxAVMhQHO0cKivPY+sfP/LprHY2NxvtlQOBApo+7hsiQGJwd3Kiv15BVkM7eo1v4fe/3nT6/JBIJE+NmMG3sXNQ+odRr60lKP803P39IdkEaX7+8DalUxr3P3UhOQf8Kp+kP/SeTyYgfPotxsVNR+4Zia2NHQ4OW/MIcjp87yA9b11BR1TWvQKlGSnKFjAEOWgY5a/p1+S4vLz+GDR1NVlYae/ZuISMz1dJNokorfPyZu+5nRywiQCcMn86d1/8DgLe/fpbdhzf3+T4dHBx4660PCQ+PbFnm7uHBwgWLUdmoKCouAiAjI82gvTowEICCSwW89dYHDB48tGWdtbUNs2bNJSZmCLcsvY7qmppetzeVQB9PAPJLyvjo0bsZGh7aun+lknnjRzEsLIRr//kc1bWGC0Lfs3guy+dORyJpHe5QyOVEB6mJDlIzNiaaVS+9Q0Oj/leVvcqG9x5ezeCw4HbLlQoFIb7ehPh6M2NULDc8+SKXSto/hIJ8vbp1rOm5+QaXO9iAnbXwd2p+z70vpZWadv/vCQq5hDlj/QH4cU8GDY2dPwh83VTctTCCqlotTnZKVi+I4GJWOY/eHINOp8NKIWXOWH9Scit5c61+HdGFE9X8e2UsCnnbcyclKsiJqCAnrp0UyE1P7yE9T/8DAODN+0Yye7Rfu2VSwMdNxZLpwSyarGb5c/v448ylXreXSOCFO+NY1CTYm1HKpcSEuBAT4sLiKUHc9K/dBqsIKOQSPn1sLGMGerQss3KUcdUIX8YP9uTmZ/YabHNbLN1/bemN688SOCgaW154qZXdE6A+7gEA5BXlMDhiBA/d9m+UilbR4ePhz9J5q3F1cufzH97Ws5dIJNw8dzVXT7qu3XK5TE5YQCRhAZEMjRjFc/95CJ1O//klk8n4+y1PMyJmQssyK6U1wyJHE+ofyUufPoZUKqOhoYGCou6NypgDS/efrY0dj618mQGBA9stl8qV+HkF4ucVyNihU/jH67dTUtY1J0xKpYIBDlp8+7hA/T13P46NdddilQ8d3sOOnb+1W5aamoSXpw9+foHccP3tpKcns2fv72TnWO4jpTlkQSHVIZXAZV4/fYbZBeiUUVez8rqHKK0o5rXPnyQx5aRZ9vvEE88QHh6JVqvlv/9dw65d26msrGDUqLGsWP43Es+fAyA9PU3P1srKGk9PbwCmTZuBQqHgoQfvIS0tBQ9PL5YuXc7IkaPx8wtgztxrWPu/b3rV3lSslEq8XV0AmDk6Drlcwd2vvEdKTj5eLs4snzudMTGR+Hu5c038GL7etEPvN1bMm8GKeTMA2JdwhrXb9pJdWEiAhzt3LphFWIAfowdFMGfcSH7a/Yee/cM3LWJwWDD1Wi0f/7yZ/QlnKa6sxM7amvFDovnbgjl4uDixbPY0Xvrqu3a2r339Pe9/92vrb928kKHhoexLOMM7637R21dGgeGXuF2b+rrlNToEn0z3Ka4QBHqZCQIgfpg3zvZKAH7owvD7iGh3rrp/CzmF1Ty9fChLpgfz8JKBrHrlD45fKG7xlM4b568nQMMDHHnub7HIZRJScyp474fzJGaUYWctZ9xgT1ZcHYaPm4p3/z6Kqx/ZSseBiClx3i3iae/JAj795QJZBVVIpRIiAx25b3E0ai9b3n9oNJPu3kRJhaZX7W+ZGcqieDU6nY6vt6Tw3fZ0cotqcHW0YnKsF6sWROLrpuL1e0aw8J/61+6yWWEt4vPEhWLeWX+OlOwK3JxtWDgxgH/cNBCZ1Pi1YOn+60hvXH+WwK5NvFlFNzOXfTyFj7Wa2iruWPwgP277hv3HtlKrqSU8cCDLF92Pg50TM8cv5Mdt31BaXtTO/trpt3H1pOto1DWy8+BGdh3eRGFpAe7OXsyfsoQhkSMZEjmC8bFT2X3kd7393zB7ZYv43Hn4N3Ye/I2i0gICfEK4Zf7dXDP1ZgDyi3I69QJaCkv33y3z72ZA4EC02np+2LqGE4mHKK8qw8ZKxbCoUVw7/TZcnNyYN/kGgwLYEBUa4Rqyt3Ac4+XYu28bJ08eZcyYSQwaGItaHYJafSfJKefZs3cL+fnm/2BRNQ29l9dLLSY+wQICNCJkEBKJBEd7Zx667d+kZCax++gm9h7dZvDLqTcYMmQY48ZNBOBfTz/O1i2bWtalp6fh6uLKzUtvE/6doS8G/AMCWrx+9vYO3HHHLTQ0PWSysrM4ceIYX331HUFBwcQNG64nIE21NxW1t3vL/h1sbVj61MstXsrM/EscTbzA+hcfJ8TXmxFRA/QEqJeLM3cunA3AN5t38sKXa1vWJaVns+/kWX557WncnRyIHzZIT4Da2lgxe9xIAJ7/Yi3fbW/vcTqXlklNnYa4yDAqqvW9vyk5ee3+7WgvlI04nZLBmdSux04qZa1/N5gQtN4sEMoqe17Ed+EEwZt3JrWUpMzOwx4AMvIqyWkaot2wL4Ml04NpaITjF4oB2Lg/k+dXDsPHTYVEQjsRdMvMEOQyCYVltSx8fEe7dh86V8iFzHLeuHcEkYGOjIpy1/PCjR0keM8Ly2pZ8fw+6hta79MLWeUkXCjmsaUxAAzwd+Dg2cJetQ/0tmP3iXwOnr3EBz+eb1leWFbL+YwyLpXU8uKqOIaEuRDq58DFrPb9ee3koJZ9Xf/krpb9p+dXcTSxkCduHUxchJvRvrd0/3WkN64/S6CUtl6UDd181Pu4C/dLmDqKN9f8i71Ht7as239iOxqthkdWPI9UKiNMHcXhU3ta1rs5e7JgmiAQP/v+LTbtWd+yrqAol7PJCbzy0CcE+IQyJGKUnoByc/Zk9sRrAfj2149Yv+XLlnV5hdkUFOXw0oOfApCdn9a9AzMTluw/GysVE+KmA/DJ92+wdX/70mGpWUnUaWqJChlCVU3Xs9qbZX7b66ov+PLLd0HatRGzOiOjl+UVpWza/AMHD+5izJgpREUOJiQ4nOCgASQlnWXv/q0UFhoeuetN5FIdwXYNLFIL7dyUbd3n++y0PZbasVQixcHOiSGRIxgSOYJJw2fx4iePUqep7fV9zZ49F4CEhOPtxGczx08caxGgmQaG4AMDAlv+fuXV51vEYzONjY0cPXqIoKBgHJ2ce93eVIK8Woew//3F//SGyBt1Og6dOU+IrzfOdvo1webHj0Yhk1FaUcmr36zXW19Tp+Hg6UTmjBuBs4O+fYivN3KZcAPvP3nOYBvX/LadNb9tv+yxSCUS/Jsy4NPz+v6GNcSWQznELP2Jem3PPpic7JTEDxPOyfqdaV2yaY77A6jVCPutqW27TLimFHIpMqkEbUPrQ3lYuCsAG/dnGRQtG/Zl8vTtQ3FQKYgJddETUEq5cO4Kimvbiadm0vOrWPmyvte7t+yf+uSE0XUAvx/O5cWmvwO97doJUCuFjGAf4Zpcuy3N4P7XbE7m1lmhesubsXT/dcTU6+9KpNmDd+rC0XbiqZmExEMtf1tbtX+pToybjkwmI+9SZjvx1IxO18iF9HME+ISisrHVWz8+9irkMjlFpQV8v/UrvfVp2RcprSjG2cGVnIKMbh+bObBk//l5BSKTCV//CecO6a0H+GXnWn7ZudbgOktTWtZ71XlKSov5deM6DhzYybixUwgPH0R4eDQDBkRxLvEku3ZtpryitNf2B/DOyBIiO8x4VFYv5ft0FZ9c0D9f5sTsaYhf/fQ+d//7Bu557kaefve+lq+lQeFxrFz8cJ/sc3CMEG+5d+8ug+slTUOxDQ0NZGVl6a1XBwoelPyCPC5eSDL4G3K5oOXLy/WDqE21N5UgX8EDk1dcQlK64bJFiqb9l1XpJ0LERggv553HT1OvNTy8JG0awiyv1LevrW+9+OeMG46si1+ThvBxd21pq7FYz76moVFHVa0WTQ8FwNXj/FHIpdRrdWzYp3+99TYu9kKsV9Yl40kuWU2xk05NYQFtSUwXHogRakcWxavbxUF2BVPtL0fb5B/rtm5uwE7V+o2dUWDYu5J5mdmnLN1/HTH1+rsS8XYXBNThk5eP1y3r8AKPCBa8y4dP7zNqY2/nBEBJub73OSpkCABHz/xhdJSuOXEnu58KUEv2n0bben9OGH4VUqlMb5u/GkXFl/hpw7d89sXbnDt3kobGBqIiBxMaGnl5416gTCMlu0aGVmfZ8lVm94CWVZZQVil8UeQWZHLqwlEKS/JYMG0p4+Om8cPWNWTm9V6WmFJpha+fcPMlXThvcBtfPyE+Kzc3G61W38OhDhAEZFKiYe8dgL+/MMSRlaUfWGyqvakEeQvetnOpxh+OAV5CjFxGvn785IAAoX8S0zqzdzdqfzEjh+TsXEJ8vbnr2rncOucqLmRkkZ5XQFJmDn+cPEdydm6XjkXt3ZpIkpZ3+YSN/khz9vuu47kUlxtO+OpNZDLhIfPY0piWoV5jGAqF/HFvBnfMD8fXTcWLq+L414qhJGdXkJZbwYWscg6eKeRIYhGNRqpYmGoPEORjz+1XhzFusCceTjZdFnHSNglzjUbGfS+XAGbp/vur4+zgispa8NSkZCUa3EYqlfLJ+jcASM1s/5z39xaevzMnLOKqsfMN2isUwodD7iUDDggfIXEyLduw88BKaY2Lo/D8y87vfwLU0v2XkZNCVl4afl6BXD/rduZOvpGMnGRyL2WSnpNMQuJhsvpp6EJfc+lSHmfOHkelUqFWGx+FMYWnTji0hJ/JJTrCHbWsHFDJ3REV6HTwU6ZN5z/Qh/SLiVTX//4lM8YvRGVtS9zAcb0qQP0D1EibPG7paWkGtwlQBwrrDcR/CusFwZCalmJ0P2q1cJMaSmKhYpMOAAAgAElEQVQy1d5UAn0E0ZacnWd0myAfQaSmdoi3dLBV4dwUc5naiccx0LvZXn+bRp2OVS++yxPLb2BMTBR2NtYMDQ9tl4n/2/4jPP7hl9RrOy/Grm4SyiUVlVQY8NZ2Rn94vYf62jMoWAiz+H73lVH7s7Jay+LHd/LksiFMifPGWikjOsiJ6CCnlm0uZJZz71uHOJ+u78E31X7MIA8+emRMi3ezpEJDdV3768TXzXCWaltNJzGSaNRWpPYFph7/n4We3n8+HgEtf2fnG75n6jS1BoeHlQqrFnEol8mRyzp/5XX8fWsrG5wd3ZrWGRaXPh7+LTH2xtpnSSzZfyAM0f/7wwe5Y/GDDI4YgcralojgmBbPKsC+Y1t555vnDDqALkdff7c5Obsik3Rt1K6mtprq6q7FsYaERDBu7BS8PH1bbIuKen9Ur7Cuvcc5o0qOk7KRvw2oZJG6WhSgmvo6MnKSiQiOwcvNp1d/O6hJXNbU1FBQYFiABTZtk2lEgPoHCAIyJcVw8UhbW1vc3ISHVFqq/jam2puK2ksYgk82UrTdzsYadyehIHpKB09k2xJIqVmG+8/d2RE7GyFuKDXHsCczt6iYVS+9i6OdLZGB/gT5eBPm783YwVF4u7owc0wcqbl5fPD9xs6PxVs4lnQDQvdyaOpbn1RW3asC02ssaPJ+llXWs/2I8Q+CvuDZLxL47NeLPbLNK65h1at/4GCrZHCYMyE+9gR62zE83I2IQEfC/B34/LFxTL13M1W1+h8RPbVXyKS8uno41koZCRdLuP+tQwZLHSWvXWiw3ZU1rS80XzfD8U5+Hl0rsWLJ/vszoGmT+KfsRhSOj4cwglVeWUpldUW39undRhze/sQ8SiuKu2XfXL4IIOeS4dEpP69AQBjdq6rpXvvMgSX7r5nCknye+/Ah7FUOBPoPwM8jkADvIIZEjsTN2ZOxw6aSnZ/Ous2fd/k3rZuSj2ob+/YDculNd5pUhqkjoSERjG0jPGvrajlyZC+Hj+xDo+n7ETGA/BpBlHraNCDBcs6ZPhegKhs7okOFGMzTSUepqTPstbJSCgJG0sveCF8/4QGSm5djtNB9oFoYYkk3kIDk4e6Jyka4+HJyDMdPDhgQAYBOpyOlg4A01d5UPF2cUFk3x7AVGdwmQu3fsv/krPYCMtBT8Dhq6uvJLzEcHB3ZiX1HyiqrOHA6kQOnhaEgpULBp4/fT0xoIGMHRV1WgAY1C9A8w4XbO6O8pvXacrLteRmmniKVSJg/Xrgef96XYTAhpS9oaEpIUlmZfruXV2nYcyKfPSdaPwAWxat5cVUcHs7WTI71ZoORQu49sR86wAUPF+HZ8OgHR43W2TRGraaB9LxK1F52zBvvz1ebk/WGuudPCDBiLdCf+u9Kpry+VXU6Kxvo6uvHx0P4aOtJgk+zQ6NOU9sj8eTlLoQf1dbV6JUmasbfSxi96o/D72DZ/utIRXU5p84f4dT5IwAo5Er+dffbhKmjGBwxolsC1EnZWkroSiA0JIKxYybj5SVcUxqNhqPH9nPw8B7qanu/9ndnyCXCM83SE5j2uQBVyBQ8vPw5AN755t/sOqSfhW6ltG4ZJigo7losYFdxchKGuRrqDXsVoqMH4ebeFL9oYPi7uYA8gNbIb4wfHw9ASmoy5eXtS8CYam8IdUAI0QOHUlNdxcFDuzt1+TcPrQv7N5xAFB8rDIVczM7VS0Jyaspqr6vXGhXw00YIHxhJGdkGk5g6Q1Nfz5mUNGJCA9EaKGDfkeYY0LQeJCBV1sKlcnB3gDAfHQeSzHv7jYnxwNNFGO7oSu3P3qK4og5XRytCfB365Pe/25nOP2+JwcFW2WVvYlft3Z1aM3JTcwx7b7xcOh9CWr8znb9fH82QMBfef3AUb313jpScStwclVwzUU38UG9KKzU42eknEEH/77/uEhk+CBdX4T4qKiog8fypPt8nQKVWwqU6Ke5WjYQ5ajlQ2LXZa5ozuHsyvO1oJ4S79HSWPYem5Jq6euPVWUbFxAOQU9C19pm7/y3Zf5ejXqshOeMcYeoogxOYdEaovfA+Tavs26Smt95+1iT7wMAwJo6f1iI8tdp6jh8/yIFDu7o8XN/bNM8BX6OVWDQ0rc8/HcoqS0hKOwPAwqlLsbHSf8BeN3N5iwf0+NmDvbr/qirhBAcFh7QMczcjk8lYvfq+ln9nZOrfoOo2JZTiho/QWx8SHMqCBUKNuF9/+anX7Tvi7OLGtYuWMSh6GCOGj+eaeUs63b7ZYwgwcmC43vowPx+umzoegJ926ZeCaZ4a015lQ0yHWYwARkZHMGe8UONz3fY9euvvXDCb7198gtfuvcNg+2yslIwfIsyOcepi57G/EokED2fhhVBU3rOhrlPpgugcG2H+225BU+3P5JwKEi72XmmPy3HsvOC5mTnaF7Wn/jC0m6M1L9wZy0ur4xga5qK3/punJrLp1Wk8uWyIwd/3crHBXiXENJRX6cdwmWLfNkkrOthwibKHlwzqNJHoo5+TONFUL3XqcB9+fnEKp9fMY+c7M1m9IJLX155pKRNmCEv3X28zYfxVjBs7hXFjpyBXmDcW5VSJIPLHuHd9qLF5GLwnGeaVVcJzwtrKhqiQwXrrlQorll1zD6uXPMaQCP3nc3XTkLqjnTN+nmq99XPiF+PdNMTdVQ+jufvfkv137YzbeO0fX/Lgsn8b/H0rpTVDo0YDcDFdfwY3YwTYavGzFRwqzddUf2X8uKl4efnR2NjAseMH+PCjV9i+c6PFxCeArUwQ+5Um1MPuDcwSA/rtrx/xxKrX8fbw5/kHPmL975+TnpOKnY0t8SNmMWnkLACOnv2D5EzDWXo95eQpoYagXC7n9Tfe57133yQzIw0fP3+W3Xo72jZJL6GhA9A16igqai0l0VxC6fDhg6xY8TdkMjl79u4CnY7Y2DhWrLgTKytrMjMzWL9ev46ZqfYd8fNRI2vzsvT1VSOVyozO39s8BeeB04msWjgbmUzGzmMnQQfDo8JYtXAOVkolGXkFfLtlt579gdOJaBsakcukvPvQKt5e+xOnLqZhr7Jh3OBolsycjEwqJeFCCuu365fpKK2sJtTPm1A/b1666za+276X/JIylAo5oX7e3Dp7Kn4ebtRpNKzb3nmJEJ1OR22dBlsba66dMoHcwmIqq1s9E7lFxRRfRpj+fkLC5EE6BvjAkEAdJ9LMcwPa2ci5aoQwG9b3O82bqPDFb8ksjA9EKZey7tlJvL72DCcvliCRSBgS6szK+eH4uKkoLq/jmc8T9OzPp5eydGYoYf4O2Knk/LAznbySWpQKKREBDqxeGIlEItQe3ZOg75k2xf5YUjHF5XW4OFjx8qpYnvz4BMeSirBSSolSO3H73AFYWck4l1bKQCMCVaNt5Oand3P3tVEsmBiAm6M19VodJy8W8ca6c+w/VaBXvqk/9V9vYmdnj5OzUNe0rraGxETzeD+b+T3HmsletQxw0DLEWcOJy4gHuUyOh4swipPTAw/eqaQj1Gs1KORKHlr+PF/+9A6JqaeQImFA0EDmTr4RP081RaUFfPLd63r255JP0qhrRCqR8s+/vcoXP75NWvZFHB1ciI+bQaBfGBXV5dirHMjOu7zAM3f/W7r/KqvK8fcKwt8riPuW/h9b/9hAUdklFHIr/L0CmTf5BjxdfdDU17Fl/+UdMM0sDhSGrIvrpBwpslBAfxdpbGjg5Kkj7Nu3vddrfPaUZg9oVf1fQICeunCUj797ldsW3I+vRwD33PSk3jYX0s/yzlfP9Pq+Dx86wImE4wwZPJTQkDBee+2dlnVnz53mqaf+yXff/YxcruD1196lpqaGyZNHt2zTnJ2eeO4MNdVVrFy5mpUrV7fbR35+Lg88eLfBAGJT7TtSWto+Dqmissyo+ITWIfgzKelU19Zx97VXc/e1V7fbJreomNWvvI+mXt/7kl9cytv/+5H7b1yAo62Kx5fdoLfNsfMXuffVDwwOofywcx8L4kcTrvZjxug4ZoyO09umTqPhH+99TqaBEk4d2bDvENdPncCgEDUfPXZvu3WPvPspv+0/0qn9kYsSknMlhHjruH+ejtUfSqjs/bkP9Jg5yg8bKzmNjTp+3G3eWLHzGWU8/p9jPHvHMFwdrXj29mF625RUaFj58h9UGPDAvfLfMwwKcWboAFcWTlSzcKK+Jwjgxa9OGZyL3RT7uvoGHv/oGG/dN4ogH3vWPDm+3frSSg03Pb2bF/4Wa/T4AarrGnjxq1O8+NUpbK3l1NQ1tMSCKmRS5E2llhob9D2plu6/3sTfP6jl79Nnj/co69gUjhYpSS6XE+Kg5b7oSu464ExlJ9Nyern5tdSN7IkHr6K6nC9+eIcV1/4dO5U9q254VG+btOyLvPTxo9TW6cfhXSrJY+v+DVw1dh5uzp48sKx1OLayuoJ3vnqGf9zxUlP7Li/wzN3/lu6/7Qd/YfKo2QT6hjJ22FTGDpuqt42mvo431zxNXqHhHImOxLpqmO4j7GttuooGC9eyvBzrv19jsG8siU3T97am0bLxs2bLgv99308kpp5hbvx1DAyPxdHOmTpNDek5Kew9+js7Dm5E29D72Z86nY4HH7iLlSvvYtKkaTg6OpCXl8eWLZv46qvPqKmp4fnnn+HOv92Nm7s7WZntb9LmEkp5+bl8ueZTVl4qYMLESbg4u5CXl8uOHdtYs+YzKioMx26aat+RzKw0Dh7ew+CY4dRWV/Hb5h863b7ZA5pXVMKnG34nv/hqJscNwcXRnrxLxWw5fJxPN/xOeSexm5/9upXk7DxunB5PVLAaOxsbKqurOZuayYa9B/ht/xGjNQxrNRqW/usVbp0zjakjhqL2dEepUFCn0ZB1qYgDpxJZs2kbOZe6FuD+0pdrKSwp5dopE3B3dmxXQic99/KJSY06eO1nCW+u0OHvquP5mxp4/BsZZd0LXe02zdnvf5y5RF6x+R9G63akcTq1hNtmhzEq2h13J2sqa7RkFlSy6UAO325LMTq1Y1Wtlhue2sXiyUFcPS6A8AAH7G3kaBuguLyWY0nFfPnbRQ6dMzyFpKn2mw/mcP2TO1m1IILYcDdsrGXkFtawNyGfjzacJ7OgeyevY5a52rt19q6yKsPzq1uy/3qTAL/WMJqEk51/rPUFjTp47Zw9bw4vxV+l5blhpTxx3JEyI4kkPp7C8LFWW09+Uc/yAzbv+4HcwizmxC8mNCASG2tbSsuLyM7PYOfhjRw4sbPTd8+n37/OpZI8poycjZuLF2WVJZxMPMT3W9bg69HavoLiy1e1MHf/W7r/6jS1PP7mncybfAMjB8fj7e6HQq5EU19HQVEuJ88f5tdda7vUdwDDXDX83+AypBJIKpfzfbrlSgh1lf4mPgHKmzyf3qoGlFIdmj6uJGAMibdnaH8oj9gvsbGxYdu2/UgkEu6+6w6OHDU8jVhf2ZuKjZWSA5+8jkQi4fbn3uTgGcOF+P+KTInR8ejCRqQSKK2Cr3dL2HZSSmkfOKD83FXsfGcGEomEB945bHYPqEjnPLdyGNdNCaKxUUfcig1X3Bzr3WHF8vtxdXEnOyeTr75+32LtmOJdyz8Glgv3n0bKN6kqtuVaU6rRF6KeLt54uvigUCjJyk8jv5uJqn1pP2/yDdw0dxUZuSk88OItl/0tS/R/f+6/rjLAQcs8/xqu8qlBKoHcGhn3HnKiqE6cVaknRDnW8/ZIIQ/hQKEV36WpKKqTUKSRmXVYvl/UAe2v+AeoW8pCpaUbLyLfV/amovb2bNl/x/qef3W2nZRQXiPln4t0ONnqWD1TR7hPI8+t7/0hiQUTheugqlbL5oOGa7GK9D1hfg4tsZ4SiQQfdxvmjg1g+kih1MyGfYbnev+zoFLZ4eoiVPxISDDvx3BHtuVaU14v5bFB5TgpG1kVXkm4g5bnTrVWGoiNHM3yefe0TCPZTO6lTL7d8hm7j/7e6T7MYe/rGQh0bXjb3P1/JfRfV3l/VOsI2fFiBc+edDT4sSLSNc6WKdiYbc0s31pGudUxyk0I/3v7nD0/mrEwvShAO6E5g72yspLCwu4Pj5lqbypBTcPvFdU1XCrt2hD/X4nDFyTc9LqEGyfomBPXdzU55zdlv/92IJuauj9nkfErgbfvH0mYv+FSSufSynjq0xNmbpF5CWiKP6yrqyPx/EkLtwYOFyq5eY8rNwZXMduv/TDljDHXsHLhAy3/Ts9NprKmkiCfULzd/bn7ukcJ9Anjyw3vGvzt669aznXTl/W5vW9TZnxOhxqgfh5qsjrEhJqz/6+U/jNmb6j/UirlfJ1iy648q34xq92VzmtnHDhTqmC2by2BdlpUcvP3qihAOyGgSUCmp/dsalBT7U0lsGkGJEPTY4oIVNbCf36X8Ok2GV6Gk6hNZvI9+rVvRSxPZY2W5OwKNv6RxVebk6nVGE/m+zPQnABz9uwJ6g0kHFqCSq2E/yTZ8elFW7xsWj8Ctx36lRlj5rP98EZ+3vW/luUKuZIpI2azfP49XBN/A0MHDOerjR+SmHYaK4WSIeEjmTxiNuHqKPKKsvlt3/d9al8vFT4oC0vzcXFwbWf/+Ht3cz7tdIutOfv/Sum/zuzb9t+K/S6kVopypTfRAZuybdiUbbk4WjEGVERERESk36GQK6nXGk4Ki40czcqFD+Du7GVwfXVtFc99+ghnkg17tc1h//RHD7QToOZG7D+R/o4oQEVERERErjgUciVzJ17HyEETCPIJpV5bT0FxLgdO7WbD7rWXnZfd0vaWxtLHf6X3n4jpiAJURERERERERETErIhpZCIiIiIiIiIiImZFFKAiIiIiIiIiIiJmRRSgIiIiJiGRSAgN9GLIwKDLbywiIvKXY8r4Qbg42V1+Q5G/FGJdAxERkR4TFuzD/BnD8fFy5mhCCidOW6bkmIiISP9lzrRYZk8dxuETyfy65Sjllf1vekoR8yMKUBERkR4xfdIQpscPRiKRoG1oIL+wzNJNEhER6Ydk5xbj6+3CiKGhRIT58tm3O0jLKLB0s0QsjJgFLyIi0m1mTx3G1AkxABw4msQvW45SVV1n4VaJiIj0VwL93bl27hh8PJ3RaLS88+kmMnPMP0OgSP/BrALUzdWT0JBI3Nw8sbKyoaGhgfLyEjKzU0lOTqSx8c89E4lIz5jsF8Ib42YbXJdQmMvNW9eZuUXdY3LcYN64f6XBdQkXUrj5qVfM3CLTiI7wZ8WNUwD4adNhdu4/0y37Z28fxg3TgiivrmforT9fdvu37hvB7DH+est1Oh0V1fWcTi1l/c50ftqTga6ff06PHeTBl0+MByBu+QZKKgwXCjc3yWsXAnDvm4f4ZV+mhVsj0p/p7v3bFiulnDtunkaw2pOy8mpeePsHauv6x6xcIubHbElIQwePYlL8bPz9g7GxsUUqlaJQKHB19WBIzEgmT5qDQmFlruaIXEEE2RufIzO1vMSMLekZQd6eRtel5uSZsSWmI5fJWDRnFADHT6V0W3z2JhKJBAdbJWMGevDqXcP54MHRyGUSi7VHRESkc+o0Wj77dgfVNRocHVRMnzTE0k0SsSBmiQENHzCI0NAoAIqKL3Hh4hkqK8qxsrZGHRBKgH8wzk6uxA4bw4GDO8zRJJEriF/Tz3Mgv71X5r2Jc3G2siGlvNhCreo6v+47zIHT59ste++R1Tjb25GSnW+hVvWMwQPVODnY0tCoY8Pvx8y6732nCnjio+Mt/5ZKJQR42HLLrBAmDvFi6nAf7rk2ite+tZwoFhER6ZzKqlq27T7J1dPjGBU7gE3bj1On0Vq6WSIWoM8FqFQqJSJ8MAD5+Tns3rup3fq8vCzqNRpCQiLw9wsi4eRBamqq+7pZIlcQedUV5FW3TstmLVPgZGUNcEUI0LziEvKKWz211kolTna2AKRk51qqWT1i2KBgAM5fzKakrNKs+66p1ZKe136fqTkV7DqRxyePjiF+qDe3zgrlne/OodE2mrVtIiIiXefQiYvMmhaLtZWCyAH+YvWMvyh9LkCdHF1RKpUAJCadNLhNcmoiISERADg7u1FTk9HXzbIYPioHbhwwmLE+anxt7ZEgIbW8hF/SE/lvUgL1jZ2/OKNdPLkuLIbhHr542NiiaWgkraKY3zKS+CYpAa0R++9nLiHU0ZVnjmznl7REbokYxkx1OL629pTVadiadYF3Th2gQmM8kUQulTA3KIpZ6nAGOLnhoLBCq2sgs7KcfTnpfHzuMKV1tX3S/rYEOTgjQRhq7a4AjXHz5vrQQQxz98Hdxg5NQwMp5cVsTD/P2osnL9v/vUGQjycSSVP7uzkEHx2k5rqrJjI8MgwPZ0c09VrS8vL5bf8Rvtm8E22D8ThqOxtrbp41hatGDsPfw42K6hoOn03izf/9REFJKYc+exOZVMr1j7/A2VT9e1AigaAAdwDOJ2d3q91tqakTvB11mt6L+f5kw0Xih3pjay1nYIgzx84X6W0T4mPP8qvDGDPIE08XazT1jaTlVrDpYDZf/pZMVa1xL4xEAvPHB7AgXk1UoBMOKgWNOigoqWHH0Tw+/Ok82YX6H87LZofy+C2DDf7mkU+u1lu29XAOK1/+w+D24WpHls8JY1S0Ox5O1mi0jaTnVrLlSA6fb0ymvKrzeNL5EwJYOiOUAf721NU3ciq5hHfXn+Nwon5f9RaLpwTx/MphvPzNacqqNNy3OAq5TMrXv6fw2rdnGBfjwdMrhuLpYsPWwzk88v5Rao1cF6Ycf0/PX2/ZA4yIdGPpzFCiAh3xdlNRp2kgNbeCbUdy+fy3i1RWG7/+FDIpy2aHMn9CAIHedlRU13PsfBFvr0/kbGopu9+bia+bqtMYXlOvn2Z64/6trKolJ68Yfx9XQtQe3RKg48ZOJW7YaKqrq/jlt+/Iyfnz6oU/O30uQCsqy9mxayMAxcWXDG5TV9daE0wm+/NWhrrKP4xnRk7DRt7+GCOc3Ylwdme8dyCrdv1kVATdEzOa5VFxLeILQCGVEe3iSbSLJ2O91Kza9TMNuvb2UomEAHtHAErqavh40kIGubbGJbrbyLkhbDDRLp7csvU7PXsAe4UV702cy2A373bLlRI5IQ4uhDi4MCMgjBu2/I9LNVW92v6OhDi6AKBp1JJTVdHpts1IkPDAkHEsjRjabrlCKmWQqyeDXD0Z761m1e6faezjTJYQP6EPNfX15Fzq+sv/nsVzWT53eot4BVDI5UQHqYkOUjM2JppVL71Dg4Hrx8/Djf88eg9+Hm4ty1wdFcwYHcfAkEAeePMjZFIhJDwt13BYgMrGChtrIU47N7+0y+3uSGmlpt3/e4OsS63XnLO9Um/9zFG+vHbPCJTy1rB3pVzKwGBnBgY7s2BiIDc9vZv8YsP1Cd+8bySzR/u1WyYFfNxULJkezKLJapY/t48/zhh+xpnKwolq/r0yFoW87bmXEhXkRFSQE9dOCuSmp/foeYibeXjJQFbOC2/5t40VjB/syahoD1a8sJfqugZUVrI+aTuAr5uKuxZGUFWrxclOyeoFEVzMKufRm2PQ6XRYKaTMGetPSm4lb649q2dv6vGbev5MsZdI4IU741gUr263XCmXEhPiQkyIC4unBHHTv3aTka//7FTIJXz62FjGDPRoWWblKOOqEb6MH+zJzc/sNdjmtpjaf23prfs3N78Efx9X3Fwcumzj7u7F2DGTAbCytmH6tHl89sXbJrVDxHL0udqrr6+jsLBzL4+tqnWGhD/r8Pswdx9eGD0DuVRCSnkJn5w9zIWyIhyV1lwXOoip/qGM9PRnafgwPjl3RM9+RdRwVkQNB2BfbjprL54iu6qcAHtH7oweSZiTG6O9ApgTGMFPqe0f4N4qe5RS4VTPC4yiWqth2bbvSC4vxktlzwNDxjHS058YVy8m+wWzJfOi3v4fHjaewW7e1Dc28PHZI+zPTadYU4udXMl4HzV/ix6Fh8qOZRGxvHR8d6+2vyPBDkJSUlp5aZfF4p0DR7I0YiiNOh0/pZ7l59Rz5FVX4mPrwG2RsYz1VjPGW80sdTi/pCV26Td7SrCPFwBpOQVdbv+KeTNYMW8GAPsSzrB2216yCwsJ8HDnzgWzCAvwY/SgCOaMG8lPu9t70BRyOe88tAo/DzfqtVq+2rSDbUcSKKmoYIC/L3+/4RpumT0VgILiUqprDXvBbWxakwSra3pecqm4QrAt60UB6udu2/r75e1/N8DTllfvHo5SLqWorI431p3h5MVSHFQKpo/yYcm0YIJ97Hj9nhHc+NQuvd+eEufdIj72nizg018ukFVQhVQqITLQkfsWR6P2suX9h0Yz6e5N7TLbf96byZFzrR8Zg0Od+dcK4SPo5mf2UFHVPgPYkBcqPMCR5/4Wi1wmITWngvd+OE9iRhl21nLGDfZkxdVh+LipePfvo7j6ka16lQCGhrm0iM+M/Cpe/fYMZ1JLcbZXct2UIB66cSC1ddo+FaAjot256v4t5BRW8/TyoSyZHszDSway6pU/OH6huMVTOm+cv54ANfX4TTl/vWF/y8xQFsWr0el0fL0lhe+2p5NbVIOroxWTY71YtSASXzcVr98zgoX/1M+BWDYrrEV8nrhQzDvrz5GSXYGbsw0LJwbwj5sGIpMaT74ztf860lv3b/MzxEbV9eRjlY2q3b9tVCojW4pcCfQLd6Nbk1dNq9VSUvLnrAv2WGw8cqmEhMJclm1f326o+WB+Ju9MmMsEn0DmBUfpCVAvlT13DhwJwDdJCbxwrPUlmVRayL7cdH6ZfSvuNirifYP0BFygQ2sWuVwq5Y4dP6JDeMqU1tXy930b2T5vOVYyOcPcffQEqK1CwWx1JADPH93Fd8mn260/V1JAjVZLnIcvFfX6wsTU9nckyEHwgHZ1+N1bZd8ifl84tptvLyS0rMuuKufopWzWTb+BMCc3xnqp+1yABjUJ0JScrsV/erk4c+dCoQzVN5t38sKXa1vWJaVns+/kWX557RdoT3QAABsASURBVGncnRyIHzZIT4AumjSWYB8vGnU67n/9P+w+0Xr+MvMukZyVw48v/x8AqbnGPxYVslaB0tjQcy9x8wu6rLL3yq+smBsGIJRlSm5fGWHpjFCsFDJqNQ0senxHOy/T/tMF5BbW8NCNAxkZ5UZMiAsnk9tfV2MHCaMFhWW1rHh+H/UNrffuhaxyEi4U89hSoSbqAH8HDp5tfYYVldVRVNZ6TzjYKlr+PpdW2qUyTLfMDEEuk1BYVsvCx3e067dD5wq5kFnOG/eOIDLQkVFR7npeuOumClOkVtZoWfzETi6VCmEyqcCx80W8tDqOgcHGK030Bhl5leQ0DVFv2JfBkunBNDTC8QtCX2/cn8nzK4fh46ZCIqGdCDL1+E05f71hH+htx+4T+Rw8e4kPfmxNRiwsq+V8RhmXSmp5cVUcQ8JcCPVz4GJWeTv7aycHtezr+id3tew/Pb+Ko4mFPHHrYOIi3DCGqf3Xkd66fxub3oFtnyuXIys7g8LCfNzchHNy/Pghk9ogYlksLkDlcjkDmjLk0zIu0NDw58uGi3H1ZICT8IB4+vB2g3GOv6YnEuHkhlKqXxlrfnAkCqmU0rpaXj2xR299jVbLwfwM5gRG4Gxlo7debe/U8vfzx3a1iM9mKjR1pJQXE+nsgY1M0dGcEAcX5E1f2PtzDcfbrDl/nDXnjxtcZ2r7OxLcNASfXNY1ATonKAK5VEJGRWk78dlMo07HqaJ8wpzcsFPqD9/2NsFNQ/DJXUxAmh8/GoVMRmlFJa9+s15vfU2dhoOnE5kzbgTODvrzLc8aNwKAvQln2onPZtJyCygsKcPDxYmUnL7Pyt9yKIeYpT9R381EIRtrOWqv1uOTSiX4e9hya1MWPMDHG5LaCQSA0dFC3Oqvf2QZHOL85Jck7l0chVIuJS7CVU+ANg/bFxTX6v02CELAWNxmbzAs3BWAjfuzDL70N+zL5Onbh+KgUhAT6qInIIaECvfLxj+yWsRnWz755QILJ6r1lvcmzXGDALUaoQ9ratsuE+IJFXIpMqkEbZsPHFOP39TzZ6r9U5+cMLoO4PfDubzY9Hegt107AWqlkBHsI1zza7elGdz/ms3J3Dor1Ojvm9p/Henp/dsbNDRo+XLN+/j7B1FVVUF+QY7Z2yDSe1hcgA4dPAprGxX19XUknuv8Rr1SiXX3BSCzopQLZYZj/n5LT+K39KRO7XfmpBqND5U2xQWWa/RfMM0e0JTyEjIqDMfuyaXCV2hhrX4IRG2bxJY5QeF8cvboZeM0e7P9bVFIpfjZCvGsXfWADnPzAWBHdorRbZqz6guNxK/2Fgq5DD934WMkJbtrCUixEcLLZefx09RrDQf+S5s+EMor25+/5hhRgF3HDCcBAigVwqMg1QwCtKFR12nCjzHGDvJg+1vTja7/ZV8m731/Xm+5q5MwxJeSbTheuF6rIz2vkjA/B1wd9YcDE9OFeyZC7ciieDU/7c2gXmu+ivcu9kKbsi4ZD0/Kyq8iKsgJJwPxr84OwjJj8X1pOeatZtBdTD1+U89fX5//tmEX1sr23kA7VesrOqPA8LMp08BHVVtM7b+O9PT+7S3qtRpSUvXvc5ErD4sK0MiIIQQGDgB0HDm6j5pawwkAVzqhjoLgOFfaswSFZu9pYonxuXMDmrycGRX683E3F3JP6mT/vrZCIHh6hX5h94tlRSSXFxPi4MJdg0Zza0QsF0oLSa8oJamskD9yM0juRAya2v62+Ns5omjyEne1CH1z0tKNA4awODTG4DZWTcNA6UYEem/h7+GOQi7sq6tF6AcECPFniWnGsz0DvAQvX0Z++3Mc6O2JXCb014VMwx5Xe1sVTvaClyXtCiuMX16l4XRKKd9uS+PX/YazfxVNHqy6euNZu80ZvYYK2f+4N4M75ofj66bixVVx/GvFUJKzK0jLreBCVjkHzxRyJLGoz5LXZE1temxpTMtQrzEMhQI2n39jx99Zv/QHTD1+U89fb5z/IB97br86jHGDPfFwsmmXDNT58bRu12jA+wmCIOwMU/tPRKSvsJgAjY6KJSpSKE9y8tRRsrLTLNWUPifIURCAPZm1x0Fh3TIs3Zl9YJPITDUgIJuH4I3Ze6nsUcmFofc0A9s06nSs2vkTTwyfxBgvNXYKJUPdfRjqLngWGSp4cB8/uIX6DtOp9kb729I8/N6gayTtMtsCWMnkeDYluSmk0hbxaozUPq4rGuwrDBU3NDaSlmtckDfjYKvCuUkcphrJTgcI9BZ+t6MHU+3dmjlrTPA2x6R2tg2gF7phbjorUdSXVFZrWfz4Tp5cNoQpcd5YK2VEBzkRHdQa2nIhs5x73zrE+fTOP6BEzI+p589U+zGDPPjokTEt3s2SCg3Vde09iL5uhpNp2mpaiRF12FakXono+vv8uSJ9htkFqFQiJTZ2HIFqYVjx1OmjnDdSH/TPQrO46knR9GbxCsYFnLuNLXYKZdM27fdhLVO0CDBj9kEOrQ/SNCMewNzqClbt+hlHpTWRLu4E2bsQ5uTKWG813ip7ZqoHkFpRzAen2weFm9p+/bYKAjSroqxLNUPV9k4tZZ8m/fgxRQZCDMxJkK8Q/5mVf6nTmp2t27cRh1mGxaG7syN2NkIIQWqHxCY3JyFcQafTUV5l+Njjhw4EhFjSghLjAqq+jadMoei7jOn+SF5xDate/QMHWyWDw5wJ8bEn0NuO4eFuRAQ6EubvwOePjWPqvZv7bHjy2S8S+OxX/QoVfxVMOX5Tz19P7RUyKa+uHo61UkbCxRLuf+uQwVCI5LULDba7sqY1ZtPXzdbgNn4eXcsE72/Xj6Ip7Ke+/s+X9yHSNcwqQJVKK8aMnoK7mxeNjTqOHt9LWtoFczbB7LhYq1rE1eWGlw0RaCeIQ02jlvxqw7Fakc7C8KsOHckdYkzVDo4tAsyYxzDQXhB1hbVVBrPY21KmqeVAXiYH8oThTqVUzqdTFhDj6sVYL7WeADW1/R0JbmprShe8n0BL/dMardbi4hNaSzB1tQB9oKfgwdTU15NfYvjjIFLtDwgiMzmrvQDVaoWHu0QiIVztR2Ja+2FqH3cXFk0ZD0Babl6n3oi2pZfsbK271P7+QHOyhFUnorl5nfYy2f3lVRr2nMhnz4lWT/OieDUvrorDw9maybHebDBSCLynNDS1SWXVs8e1tqHz4++sX/oDph5/W0w9f921HzrABQ8X4V559IOjXaqz2ZZaTQPpeZWoveyYN96frzYn6w31z58Q0Olv9Gb/9Sb2Tc+QKhNKuolc2XQ+HtmL2Nk7MmXS1bi7eVGvrWfv/t//9OITaBGfAJpGwx6viT6BbJ17G5uuXoa9sn0ShJO1MHxdp20wOgQ6zV/wJieVFFLWYSajQDvBA6lDR1q5YQHT7KU05v3sDE2jljPFwsNYayAxydT2dyS4m+EMLlaCd6A3h4/VASHMmrWISfEzUakMeyWMEewrlA/parKPU1NWe1291qg4nDZCqCuZlJFNWQcv56nktJa/X71nBWMHR2GvssHNyYFZY4bz3sN3kZ5X0KU21dRqKCsXEh78fFy71P7+QGGpcE0F+dgbXC+XSVB7C/1cWNZ5EpwhvtuZ3pJI0lVvVHdorrsY4tv1gt1tKWmqi2rs+AO99Ssn9CdMPf7LYer568ze3an1Qy01x3ASnJdL55U/1u9MB2BImAvvPziK6CAnbKzk+HuouOfaSOKHendaFL6v+6+n+HoJzoS8gu69d+zsHXB388TdzRNHR6fLG4j0W8wiQD3cvZk6aQ52dg7U1FSzY+ev5Of3fCq/K4mi2qqWL9ZxXvpfqk5W1tw/ZDweKjuOX8rRmwqztGmWKHulFTEdZiECGOnpz5xAYRrTdcn6JXaaM+DzqyupbTBct605SclQ/OedA0fy/cwlvDZ2tkFbG7mc8d5CnbpThfoCxtT2d8TdRhB8XRl+ByhrmhpUJVcQ2xyz2gYrmZxHhk3gmVHTGON9+VI0zi5uXLtoGYOihzFi+HiumbekS+1oxr1pSFxrJKGgI6UVgsfEXmVDTFiw3vqR0RHMGS/UWF23Xb/E1fn0LLYfEUpP+Xu68/7Dd7Hvo1fZ/u4LPLfqVr7cuA0bq6bwhy54ZZPTBbE6MKJzr0t/4kBTWZnZo33xMRBrd9vssJZSO4fP6Xvgv3lqIptencaTy4YY/H0vFxvsVUIMdXlV57UR6+pbz7uDbddKfjVPKzpztC9qT/0PHjdHa164M5aXVscxNMxFb31CU13UWaP98DQgdpbNNl7Cpz9g6vGbev5MsS8ub32eRxuptfrwkkGdJhJ99HMSJ5rqpU4d7sPPL07h9Jp57HxnJqsXRPL62jMtiWaGMLX/+gJPd0fc3ZqqmaR1r/LGNfOWcNuye7lt2b1ERw29vIFIv6XPffK2KjvGj5uOVCqlrLyEEwkHQafD0cHwzVinqaO2HwyV9hZV9fUcyMtgjLeau2PGYqewYnduGtrGRga5eHJrZCw+tvYU11bz+kn9KdUO5GWibdQhl0p4d8Jc3j65n1NF+dgrlIzzDmRJ+BBkEikJhbmsTz6jZ9+S3NOJxzC4Ka7S0DaldbWEOroS6ujKS2Nm8N3F0+TXVKGUyQh1dOHWiGH42TlQ16BlXfKpXm+/ofa4WdtyTXA0SaWFZFe1L9qcVVnazot6ID8TTaMWpVTOG+Ov5pXjezhRmIsUYV74ZZGxBDs4k1ddwfNHdl52/34+amRtHva+vmqkUhmNRrzbeu2vrMbNyZFr4seQlJFFdkF7wZNVcKmdF/PA6US0DY3IZVLefWgVb6/9iVMX07BX2TBucDRLZk5GJpWScCGF9dv3GdznI+9+xj2L5zJ3wigcbVXUa7WcuJDCRz9u4si5C/zz1uuBrnllD5+4yLBBQfj7uBIa6MXFtP6fNf/lpovceFUQNlZy1v97Em+sPcvplBJhJqSRviy5ShD2B88WcjpF/x44n17K0pmhhPk7YKeS88POdPJKalEqpEQEOLB6YSQSiVC7ck9C5314PrOMem0jCrmU/7ttMB/+eJ7q2tZrJ7uwup1oAfjit2QWxgeilEtZ9+wkXl97hpMXS5BIJAwJdWbl/HB83FQUl9fxzOf6dW6/3ZrKong1KisZ656N55VvTnMqpRQnWwWLpwQRqXakoKQWD+f+GVZh6vGbev5MsT+WVExxeR0uDla8vCqWJz8+wbGkIqyUUqLUTtw+dwBWVjLOpZUanQxAo23k5qd3c/e1USyYGICbozX1Wh0nLxbxxrpz7D9VoFe+qTf7ry+YNFaIOy+vrOF8ctedUUqlFV6eQlm/hoZGTp7UnzVQ5MqhzwWoXK5A2pR57OjgzMTxMzrd/nzSaU6e+nPNbvD8sd18MWUhLtYqbo8ezu3Rw9utz6kq5+49v1BQrV/PLb+mkrdP7uP+IeNwVFrxeNwkvW2OXcrh3j0bDNbmVDclGBmL/7RVKFq8ioY8oD+knGVBcBThzu7MCBjAjIABetvUNWj5xx+byazUj3E1tf2G2vPQ0PG426h4ZexMvfW37/iBg/mtMVhlmlpeObaXx+LicVRa8czIqXo250suce+eX6nWXn5mj9LS9oKxorKsy+IT4Ied+3jopkW4Oznwyj0r9Nv/3FscPNM6E1N+cSlv/+9H7r9xAY62Kh5fdoOezbHzF7n31Q8MzgEPUKfR8PJX3/HyV//f3p0HR1mfcQD/vptNspvN5r5IcxBycBUwoAGhgAgzaK3oqFB1wKPFo05xRP9pO9YyFh2otlixUw+KM5IKSsUCxXCKHEKomMRAAsRsDkISAuTaI7t593j7x4YNx4J75YXu+/38w7tZ3vd93k0m8+R3PM+/oNNGo88meqbzx+blespCNfhQGP9UfRta27vwo2FJmH/fVLz13n9gtYWupeZQON1hwUurv8Ffni9BWqIGrz8z8ar/09hmwtK3vf/eeXN9DcblJ6K4KBkPzsy9ZtH2laXHvBa6v5TJYsd7m+vw6wdHYeYtGZ4C+hctW1uFddsNl33t1OlevPx+BZY/PRHJ8dFY/tTV8XebRDzzxuGrWnsCQGVdJz7YUoen5hV5Wj5e5HBK+OWKr71+JjeLYJ8/2O9fMOf32514+YMKvP3CFORl6rHulemXvd9jFrHw1f1Y8eykaz4/APT1O7Gy9BhWlh6DTqOGtd/pmVmLjFB5yod561AW7OcXakX5mSgpdo+67z14/AfLSF0qJzvPk0/U1dfAbPG+rIH+P9xcq5LDVLOpGwt2rsdTo0swPXM4UrU6iE4nDMZO7Gmpx4b6algd194J+OHJChiMXXi0cALGJKcjVh0Ns70ftV3nsLX5BMqa665Zgy53YBOQt+QSGNyABHhPUm1OOx7bsxFPjJqEOdkFyNXHI0qlRr/TgTMWI8rPnsa6U5Vou84vgmDiv9K6U5VwSRIWFI5Dli7+qrJKjaard9FvqK9Gs7kbi0YW48dJGdBFRuGCzYLG3m5saarFzpZ6n6f0W8404cg3BzBh/G2w9VlQtuNzn87zxF/2pTv+OTOQlZriSf488Xtphfnhtt0wtJ7Fo3PvwJgRuYjVamHu60NtYwu2HixH2aGjPn9+Vy74n148FgBg6rP6VBhfkiRs3HIISxb/FGnJcXh64Rys+XgPLH0390aCsvJW1J3ejcXzijB1XBrSEzUQHS4YWo0oO9yKf+5suObudYvNgUeW7cOCO/Nw709yMDInDnqtGg4n0GW0oaKuCx+V1eO/J3xrI7zqkxqc77Zi4dx8DB+m96km5Ma9TTje2I1f3FOIKWNTkZqggdnqQMs5M7aXt2HDnobrtkZcUXoMJ0/34rG7CjAyJw6i3YnjDT3422cnUV4bWH1iOQXz/MF+/4I9f8eRNjz8yld47oFRmDQyBVpNBNovWHHwuw58sPUUWs75N+N35c9p7iVreHst3v8YDPbnJ1SK8ofhyYdnQRAEtLR14kD59dsuXykne3AZUlVleajDI5kJw9ILWISLSIGyM1Kx4Y+/gT5Gi093H8DyD9f7fO7E8SOw8MHpEAQBZosNu/dX49vqBpgt/m/iIaLAvf7MRPx8dh5cLgm3Lt4qSyLpr+zMZEwrGYWS4gIIgoDObjPeXrMNRpN/zWeefHwJ0tKG4ULnOfxj7VtDFC3JhSOgRGEuNTEeaQmDu0Xj9DGYUJCHRXfPhj5Gix6zBe9+vs2va1ZUN6DP2o+FD81ArE6D++8uQXZmCko/2x/q8IkIQGFWnGetpyAIyEzVYt60HMyd7N5cufVr773ebwYvPnuv5/j7hnZ8tHGf33+sajRapKa6l6xUVh4JaXx0YzABJQpzS+bfi/tnTvX63vnuXiz5899xocfo9f3rOfl9K15btQlzZozD7bcWBhsmEV3H6qWTUZjtvZTSiaZeLFtbJXNE/mnr6MaufdX4rqYRgTQ/yskZAUEQIIoiamorQh8gyY4JKFGYG56Rftlri9WGxvaz2PvtMWzYtQ+ma3RI8oXV1o+tO4/iiz0VSEr0XmeSiELPbHXA0GrCF4fPoHSHATbR982QcvvTO5vRfs7/VtSXys1xr/+sra1Cf//NveacfMM1oEREREQkK9k6IRERERERAUxAiYiIiEhmTECJiIiISFZMQImIiIhIVopIQFOincjQOqGNCHy/1SPTJWQkcL8WERERUbAUsQv+ncndGB1vhwTAYFTj0+YY7GnX+HWNL191wiUBO6sErNmlQpd5aGIlIiIiCneKGAG9SABQEOfA78YZ8VCuf7UPDe0CVAJwV7GE959zYmxO2OftRERERENCESOgAKAWJOTFOvHCWCNGxTnQ5xDwwFcpsLsEn68xJlvCi/NcGJEO2EQBS9eqcKptCIMmIiIiCkOyJ6Bx+gRMKbkD8QlJAICzZ1tx4Osdst1/fKKIVbf1AAAWH0pCo9m/ZlDaKAkrFkkYlyvhghF4YnUE+tiUgYiIiMhnsk7B548YhTmz5w0knzdm4LVHHHxkwffBTw+rKOAPG1QwWQWkxAGPz3KFMDoiIiKi8CdLAhoZGY1pt8/GxOKpiIhQo6n5ezQ1G+S49VV06sHE12IP7PF7LMD6/e7jeyZJ0EYpYhUDERERUUjIkoCmpmYgMzMXoiiivHwvvjl6ADdqBFQXOXhfszOAIdAB26tUcLqAmGhgclEoIiMiIiJSBtmm4Ds6WrFj9ya0tDbKdUuvdAO1QCUAVkfgCWiPBTCcdR+Pz+UIKBEREZGv/NuBE6Dz59vR1tYsx61+UPRAAiq6AFeQeWNDhwpFmS5kJoUgMCIiIiKFkGUE1G4X5biNT7oHNiFFCkCUKrgM1GR1n6+PCTosIiIiIsVQVCF6APiuKxJd/SqoBOBXI81IjHIh0Il450AN0aiI0MVHREREFO5kmYK/mYguAb+tTMBLY4z4WZYV87Ktl72/+oQe/27R3qDoiIiIiMKf4kZAAeCMJQI1PVHosHHokoiIiEhuihsBBYDlxT0oTrKjojMKbxzXo1OM8GxIMoqKzMmJiIiIZKO4BLRQ70Bxkh0A8NqxuMs6IwWMVZiIiIiIfKa44b5snQOAey1osMln9EBRe5udGSgRERGRrxSXgKoGtrxHBF6D3iNR5/7XaA3BxYiIiIgUQnEJqGWg+1GEIHmK0geqIMN9ftO5oMMiIiIiUgzFJaCXtt/UqQNPQHNTJWSluI+rmxT3MRIREREFTJZNSBqNFmp15GVfi1RHuQOIVCM2Ns7zdUlywWIxD1ksFsdgshijltDVH9h15k9zJ69dZuCoQQICLmdPREREpCyyJKC3TJiM7KwRXt9LSU7H3XMf8rwW7SI2bykdslj6XYPHmgCn4CflS7ir2H3uJwdVno5IRERERPTDFDd3nKVzeo77HP4njhPzJSx72AWVANS1AZvKQxkdERERUfgThqUXhH0NoXSNC7pIF/JiHVhcaEaaxoW2vggsOpjs8zWKMoH7SlyYWyxBJQDt3QKeXyOg08TRTyIiIiJ/KKIQ/e8n9GJ0vN3z2iEJ+OtJvV/XePfZwZHTigZg+UYVeiwhC5GIiIhIMRSRgAKAUwJ6RRWqeyLxcYMOBpP/j97QAZTuU2FfjQAp7MeNiYiIiIaGIqbgQyEvDWhkvU8iIiKioCluE1KgmHwSERERhQYTUCIiIiKSVVivAT18uCqo82fdOTVEkRARERHRRRwBJSIiIiJZMQElIiIiIlkxASUiIiIiWTEBJSIiIiJZMQElIiIiIlkxASUiIiIiWf0Pw/L2bsvsY3MAAAAASUVORK5CYII=;" vertex="1" parent="1">
          <mxGeometry x="-40" y="540" width="672" height="364" as="geometry" />
        </mxCell>
        <mxCell id="l6fjfAdnAK_vOQEOn5jX-2" value="Express set the Content-Type and StatusCode for us" style="text;html=1;strokeColor=none;fillColor=none;align=center;verticalAlign=middle;whiteSpace=wrap;rounded=0;fontFamily=Comfortaa;fontSource=https%3A%2F%2Ffonts.googleapis.com%2Fcss%3Ffamily%3DComfortaa;fontSize=25;fontStyle=2" vertex="1" parent="1">
          <mxGeometry x="84" y="940" width="424" height="30" as="geometry" />
        </mxCell>
      </root>
    </mxGraphModel>
  </diagram>
</mxfile>
